<?xml version="1.0" encoding="utf-8"?>
<!-- Generator: Adobe Illustrator 27.3.1, SVG Export Plug-In . SVG Version: 6.00 Build 0)  -->
<svg version="1.1" id="Glyph" xmlns="http://www.w3.org/2000/svg" xmlns:xlink="http://www.w3.org/1999/xlink" x="0px" y="0px"
	 viewBox="0 0 48 48" enable-background="new 0 0 48 48" xml:space="preserve">
<g>
	<path d="M32.33002,39.32996c-0.17999,0-0.35004,0.05005-0.5,0.14001C29.67999,40.48999,27.38,41,25,41c-8.82001,0-16-7.17999-16-16
		c0-1.48004,0.20001-2.92004,0.60999-4.32001c-0.65997-0.17999-1.28998-0.44-1.88-0.76001C7.23999,21.56,7,23.26001,7,25
		c0,9.92999,8.07001,18,18,18c2.71002,0,5.32001-0.59003,7.76001-1.76001c0.34998-0.16003,0.57001-0.52002,0.57001-0.91003
		C33.33002,39.77997,32.88,39.32996,32.33002,39.32996z"/>
	<path d="M25,13c-1.42999,0-2.84003,0.25-4.16998,0.75C20.12,17.31,17.31,20.12,13.75,20.82996C13.25,22.15997,13,23.57001,13,25
		c0,6.62,5.38,12,12,12s12-5.38,12-12S31.62,13,25,13z M23,28c0.55225,0,1,0.44775,1,1s-0.44775,1-1,1h-4
		c-0.34668,0-0.66846-0.17969-0.85059-0.47412c-0.18213-0.29492-0.19873-0.66309-0.04395-0.97314l0.29395-0.58789
		c0.83496-1.66943,2.08301-3.0332,3.30762-4.25781C21.896,23.51807,22,23.26709,22,23c0-0.55127-0.44873-1-1-1s-1,0.44873-1,1
		c0,0.55225-0.44775,1-1,1s-1-0.44775-1-1c0-1.6543,1.3457-3,3-3s3,1.3457,3,3c0,0.80176-0.3125,1.55518-0.87939,2.12158
		c-0.87451,0.875-1.75879,1.82031-2.43994,2.87842H23z M32,29c0,0.55225-0.44727,1-1,1s-1-0.44775-1-1v-2h-4
		c-0.33203,0-0.6416-0.16455-0.82812-0.43945c-0.18604-0.2749-0.22363-0.62402-0.10059-0.93213l2-5
		c0.20508-0.51318,0.79102-0.76025,1.2998-0.55713c0.5127,0.20557,0.7627,0.78711,0.55762,1.30029L27.47656,25H30v-2
		c0-0.55225,0.44727-1,1-1s1,0.44775,1,1V29z"/>
	<path d="M39.84961,36.021h-0.64728C41.6568,32.87592,43,29.03821,43,25c0-9.92999-8.08002-18-18-18
		c-1.73999,0-3.44,0.23999-5.08002,0.72998c0.32001,0.59003,0.58002,1.22003,0.76001,1.88C22.08002,9.20001,23.52002,9,25,9
		c8.82001,0,16,7.17999,16,16c0,3.36322-1.05518,6.56195-2.97949,9.24939v-0.05701c0-0.55225-0.44727-1-1-1s-1,0.44775-1,1V37.021
		c0,0.55225,0.44727,1,1,1h2.8291c0.55273,0,1-0.44775,1-1S40.40234,36.021,39.84961,36.021z"/>
	<path d="M12,19c3.85974,0,7-3.14026,7-7s-3.14026-7-7-7s-7,3.14026-7,7S8.14026,19,12,19z M10,8h3
		c0.32129,0,0.62305,0.1543,0.81104,0.41553c0.18799,0.26074,0.23926,0.5957,0.1377,0.90088c0,0-1.99792,5.99384-2,6
		c-0.17151,0.51447-0.7514,0.80432-1.26514,0.63232c-0.52393-0.1748-0.80713-0.74121-0.63232-1.26514L11.61279,10H10
		c-0.55225,0-1-0.44775-1-1S9.44775,8,10,8z"/>
</g>
</svg>
