<?xml version="1.0" encoding="utf-8"?>
<!-- Generator: Adobe Illustrator 27.3.1, SVG Export Plug-In . SVG Version: 6.00 Build 0)  -->
<svg version="1.1" id="Glyph" xmlns="http://www.w3.org/2000/svg" xmlns:xlink="http://www.w3.org/1999/xlink" x="0px" y="0px"
	 viewBox="0 0 48 48" enable-background="new 0 0 48 48" xml:space="preserve">
<g>
	<rect x="22" y="18" width="4.00073" height="6"/>
	<path d="M29,31h12V12c0-1.6543-1.3457-3-3-3H10c-1.6543,0-3,1.3457-3,3v19h12c0.26514,0,0.51953,0.10547,0.70703,0.29297
		L21.41406,33h5.17188l1.70703-1.70703C28.48047,31.10547,28.73486,31,29,31z M30.07129,21.62891l2-5
		c0.20508-0.51367,0.78418-0.76367,1.30029-0.55762c0.5127,0.20508,0.76221,0.78711,0.55713,1.2998L32.47705,21H35v-2
		c0-0.55273,0.44775-1,1-1s1,0.44727,1,1v6c0,0.55273-0.44775,1-1,1s-1-0.44727-1-1v-2h-4
		c-0.33203,0-0.64209-0.16504-0.82812-0.43945S29.94824,21.93652,30.07129,21.62891z M18,25c0,0.55273-0.44775,1-1,1s-1-0.44727-1-1
		v-2h-4c-0.33203,0-0.64209-0.16504-0.82812-0.43945s-0.22363-0.62402-0.10059-0.93164l2-5
		c0.20508-0.51367,0.78467-0.76367,1.30029-0.55762c0.5127,0.20508,0.76221,0.78711,0.55713,1.2998L13.47705,21H16v-2
		c0-0.55273,0.44775-1,1-1s1,0.44727,1,1V25z M28,24c0,1.10254-0.89697,2-2,2h-4c-1.10303,0-2-0.89746-2-2v-6
		c0-1.10254,0.89697-2,2-2h4c1.10303,0,2,0.89746,2,2V24z"/>
	<path d="M5,33v3c0,1.64996,1.34998,3,3,3h12v-4.59003L18.59003,33H5z"/>
	<rect x="22" y="35" width="4" height="4"/>
	<path d="M38,33v1c0,0.54999-0.45001,1-1,1s-1-0.45001-1-1v-1h-2v1c0,0.54999-0.45001,1-1,1s-1-0.45001-1-1v-1h-2.59003L28,34.40997
		V39h12c1.65002,0,3-1.35004,3-3v-3H38z"/>
</g>
</svg>
