<?xml version="1.0" encoding="utf-8"?>
<!-- Generator: Adobe Illustrator 27.3.1, SVG Export Plug-In . SVG Version: 6.00 Build 0)  -->
<svg version="1.1" id="Glyph" xmlns="http://www.w3.org/2000/svg" xmlns:xlink="http://www.w3.org/1999/xlink" x="0px" y="0px"
	 viewBox="0 0 48 48" enable-background="new 0 0 48 48" xml:space="preserve">
<g>
	<path d="M40,20h-7.57001c-0.22998,2.39001-2.25,4.26996-4.70001,4.26996H15V37c0,1.64996,1.34998,3,3,3h16.41998
		c0.78003,1.25,1.96002,2.17999,3.39005,2.65998c0.56233,0.18534,1.22764,0.55374,1.77999,0.15001C39.84998,42.62,40,42.32001,40,42
		v-2c1.65002,0,3-1.35004,3-3V23C43,21.34998,41.65002,20,40,20z M21,36c-0.55231,0-1-0.44775-1-1c0-0.55231,0.44769-1,1-1
		s1,0.44769,1,1C22,35.55225,21.55231,36,21,36z M25,36c-0.55231,0-1-0.44775-1-1c0-0.55231,0.44769-1,1-1s1,0.44769,1,1
		C26,35.55225,25.55231,36,25,36z M29,36c-0.55231,0-1-0.44775-1-1c0-0.55231,0.44769-1,1-1s1,0.44769,1,1
		C30,35.55225,29.55231,36,29,36z M33,36c-0.55231,0-1-0.44775-1-1c0-0.55231,0.44769-1,1-1s1,0.44769,1,1
		C34,35.55225,33.55231,36,33,36z M37,36c-0.55231,0-1-0.44775-1-1c0-0.55231,0.44769-1,1-1s1,0.44769,1,1
		C38,35.55225,37.55231,36,37,36z M38,32H20c-0.55273,0-1-0.44775-1-1s0.44727-1,1-1h18c0.55273,0,1,0.44775,1,1S38.55273,32,38,32z
		 M38,28H20c-0.55273,0-1-0.44775-1-1s0.44727-1,1-1h18c0.55273,0,1,0.44775,1,1S38.55273,28,38,28z"/>
	<polygon points="13.72729,15.2793 17.72729,16.61279 17.72729,10.38721 13.72729,11.7207 	"/>
	<path d="M9.72729,13.5c0,0.82715,0.67285,1.5,1.5,1.5h0.5v-3h-0.5C10.40015,12,9.72729,12.67285,9.72729,13.5z"/>
	<path d="M27.72729,5h-20C6.22339,5,5,6.22333,5,7.72723v11.81818c0,1.50391,1.22339,2.72729,2.72729,2.72729v1.81818
		c0,0.29211,0.14025,0.5664,0.37725,0.7373c0.48951,0.35299,1.09921,0.03194,1.61848-0.14117
		c1.28992-0.42969,2.36591-1.27704,3.08063-2.41431h14.92365c1.50391,0,2.72723-1.22339,2.72723-2.72729V7.72723
		C30.45453,6.22333,29.2312,5,27.72729,5z M19.72729,18c0,0.32129-0.1543,0.62299-0.41504,0.81097
		c-0.24689,0.17804-0.59821,0.23785-0.90137,0.13776L12.5647,17h-1.3374c-1.92969,0-3.5-1.57031-3.5-3.5s1.57031-3.5,3.5-3.5h1.3374
		l5.84619-1.94873C18.71558,7.9502,19.05054,8,19.31226,8.18896C19.573,8.37695,19.72729,8.67871,19.72729,9V18z M22.84839,15.87891
		c-0.37744,0.37744-1.02435,0.38916-1.41406-0.00049c-0.39062-0.39062-0.39062-1.02393,0-1.41455
		c0.18848-0.18799,0.29199-0.43896,0.29199-0.70654s-0.10352-0.51855-0.29199-0.70703c-0.39062-0.39062-0.39062-1.02344,0-1.41406
		s1.02344-0.39062,1.41406,0c0.56543,0.56592,0.87793,1.31885,0.87793,2.12061
		C23.72632,14.55908,23.41479,15.3125,22.84839,15.87891z M25.67651,18.70703c-0.37748,0.37748-1.03685,0.3772-1.41406,0
		c-0.39062-0.39062-0.39062-1.02393,0-1.41406c0.94434-0.94434,1.46484-2.2002,1.46484-3.53564s-0.52051-2.59131-1.46484-3.53564
		c-0.39062-0.39014-0.39062-1.02344,0-1.41406s1.02344-0.39062,1.41406,0c1.32227,1.32227,2.05078,3.08008,2.05078,4.94971
		S26.99878,17.38477,25.67651,18.70703z"/>
</g>
</svg>
