<?xml version="1.0" encoding="utf-8"?>
<!-- Generator: Adobe Illustrator 27.3.1, SVG Export Plug-In . SVG Version: 6.00 Build 0)  -->
<svg version="1.1" id="Glyph" xmlns="http://www.w3.org/2000/svg" xmlns:xlink="http://www.w3.org/1999/xlink" x="0px" y="0px"
	 viewBox="0 0 48 48" enable-background="new 0 0 48 48" xml:space="preserve">
<g>
	<path d="M39,8c0-1.65002-1.34998-3-3-3H8C6.34998,5,5,6.34998,5,8v1h34V8z"/>
	<path d="M36,27c1.04999,0,2.06,0.17999,3,0.51996V11H5v25c0,1.64996,1.34998,3,3,3h19.52002C27.17999,38.06,27,37.04999,27,36
		C27,31.03998,31.03998,27,36,27z M10,13h24c0.55273,0,1,0.44727,1,1s-0.44727,1-1,1H10c-0.55273,0-1-0.44727-1-1S9.44727,13,10,13z
		 M10,17h24c0.55273,0,1,0.44727,1,1s-0.44727,1-1,1H10c-0.55273,0-1-0.44727-1-1S9.44727,17,10,17z M10,21h24
		c0.55273,0,1,0.44727,1,1s-0.44727,1-1,1H10c-0.55273,0-1-0.44727-1-1S9.44727,21,10,21z M10,25h19c0.55273,0,1,0.44727,1,1
		s-0.44727,1-1,1H10c-0.55273,0-1-0.44727-1-1S9.44727,25,10,25z M24,35H10c-0.55273,0-1-0.44727-1-1s0.44727-1,1-1h14
		c0.55273,0,1,0.44727,1,1S24.55273,35,24,35z M25,31H10c-0.55273,0-1-0.44727-1-1s0.44727-1,1-1h15c0.55273,0,1,0.44727,1,1
		S25.55273,31,25,31z"/>
	<path d="M36,29c-3.85974,0-7,3.14026-7,7s3.14026,7,7,7s7-3.14026,7-7S39.85974,29,36,29z M38.82812,37.41406
		c0.39062,0.39062,0.39062,1.02343,0,1.41406c-0.37564,0.37564-1.0227,0.39137-1.41407,0L36,37.41406
		c0,0-1.41404,1.41404-1.41406,1.41406c-0.37544,0.37544-1.02191,0.39215-1.41406,0c-0.39062-0.39062-0.39062-1.02344,0-1.41406
		L34.58594,36l-1.41406-1.41406c-0.39062-0.39062-0.39062-1.02344,0-1.41406c0.39062-0.39062,1.02344-0.39062,1.41406,0L36,34.58594
		l1.41406-1.41406c0.39062-0.39062,1.02343-0.39062,1.41406,0c0.39062,0.39062,0.39062,1.02344,0,1.41406L37.41406,36
		L38.82812,37.41406z"/>
</g>
</svg>
