<?xml version="1.0" encoding="utf-8"?>
<!-- Generator: Adobe Illustrator 27.3.1, SVG Export Plug-In . SVG Version: 6.00 Build 0)  -->
<svg version="1.1" id="Glyph" xmlns="http://www.w3.org/2000/svg" xmlns:xlink="http://www.w3.org/1999/xlink" x="0px" y="0px"
	 viewBox="0 0 48 48" enable-background="new 0 0 48 48" xml:space="preserve">
<g>
	<path d="M35.00812,25.05975C34.67499,25.01935,34.34454,25,34,25c-4.96228,0-9,4.03766-9,9c0,4.96228,4.03772,9,9,9
		c0.34454,0,0.67499-0.01935,0.99756-0.0589C39.55994,42.44366,43,38.60016,43,34C43,29.39978,39.55994,25.55634,35.00812,25.05975z
		 M34,28c0.55231,0,1,0.44769,1,1c0,0.55225-0.44769,1-1,1s-1-0.44775-1-1C33,28.44769,33.44769,28,34,28z M36,39h-4
		c-0.55273,0-1-0.44727-1-1s0.44727-1,1-1h1v-3h-1c-0.55273,0-1-0.44727-1-1s0.44727-1,1-1h2c0.55273,0,1,0.44727,1,1v4h1
		c0.55273,0,1,0.44727,1,1S36.55273,39,36,39z"/>
	<path d="M18,25h9.35999c0.09003,0,0.17999,0.02997,0.26001,0.04999c0.44-0.31,0.90002-0.59003,1.38-0.84003V15H11v16h5
		c0.54999,0,1,0.45001,1,1v5h6.42999c-0.17999-0.65002-0.31-1.31-0.37-2H20c-0.54999,0-1-0.45001-1-1s0.45001-1,1-1h3.04999
		c0.06-0.69,0.19-1.35004,0.38-2H20c-0.54999,0-1-0.45001-1-1s0.45001-1,1-1h4.21002c0.37-0.71002,0.79999-1.39001,1.31-2H18
		c-0.54999,0-1-0.45001-1-1S17.45001,25,18,25z M14,27c-0.54999,0-1-0.45001-1-1s0.45001-1,1-1s1,0.45001,1,1S14.54999,27,14,27z
		 M14,23c-0.54999,0-1-0.45001-1-1s0.45001-1,1-1s1,0.45001,1,1S14.54999,23,14,23z M14,19c-0.54999,0-1-0.45001-1-1s0.45001-1,1-1
		s1,0.45001,1,1S14.54999,19,14,19z M18,17h8c0.54999,0,1,0.45001,1,1s-0.45001,1-1,1h-8c-0.54999,0-1-0.45001-1-1
		S17.45001,17,18,17z M18,21h8c0.54999,0,1,0.45001,1,1s-0.45001,1-1,1h-8c-0.54999,0-1-0.45001-1-1S17.45001,21,18,21z"/>
	<path d="M26,7c0-1.10004-0.90002-2-2-2h-8c-1.09998,0-2,0.89996-2,2v2h12V7z"/>
	<path d="M24.21082,39c0,0-8.19257,0-8.21082,0c-0.24402,0-0.5238-0.10944-0.7077-0.29364l-5.99951-5.99951
		C9.10535,32.51935,9,32.26508,9,32V15c0-1.10254,0.89697-2,2-2v-2H7c-1.10455,0-2,0.89539-2,2v28c0,1.09998,0.90002,2,2,2h20.67999
		C26.22083,41.97394,25.02966,40.59802,24.21082,39z"/>
	<rect x="13" y="11" width="14" height="2"/>
	<path d="M31,15v8.42999C31.96002,23.14996,32.96002,23,34,23c0.34003,0,0.66998,0.01001,1,0.04999V13c0-1.10461-0.89545-2-2-2h-4v2
		C30.09998,13,31,13.89996,31,15z"/>
	<polygon points="15,33 12.41406,33 15,35.58594 	"/>
</g>
</svg>
