<?xml version="1.0" encoding="utf-8"?>
<!-- Generator: Adobe Illustrator 27.3.1, SVG Export Plug-In . SVG Version: 6.00 Build 0)  -->
<svg version="1.1" id="Glyph" xmlns="http://www.w3.org/2000/svg" xmlns:xlink="http://www.w3.org/1999/xlink" x="0px" y="0px"
	 viewBox="0 0 48 48" enable-background="new 0 0 48 48" xml:space="preserve">
<g>
	<path d="M35,32.9696c-1.10303,0-2,0.89441-2,1.99323s0.89697,1.99329,2,1.99329s2-0.89447,2-1.99329S36.10303,32.9696,35,32.9696z"
		/>
	<path d="M42.552,36.21429c-0.45416-0.26074-0.7254-0.72906-0.7254-1.25146c0-0.52228,0.27124-0.9906,0.72534-1.25134
		c0.42462-0.24377,0.57281-0.79706,0.32819-1.22009c0,0-1.78894-3.08868-1.79205-3.09412
		c-0.24554-0.42395-0.80121-0.56946-1.22461-0.32709c-0.45416,0.26166-0.99579,0.2608-1.44995,0.00092
		c-0.45416-0.2616-0.7254-0.72992-0.7254-1.25232c0-0.49359-0.40118-0.89301-0.89606-0.89301h-3.58411
		c-0.49487,0-0.89606,0.39941-0.89606,0.89301c0,0.5224-0.27124,0.99072-0.7254,1.25232
		c-0.4541,0.25983-0.99573,0.26074-1.44989-0.00085c-0.42499-0.24481-0.97919-0.09711-1.22467,0.32703
		c0,0-1.79083,3.09204-1.79205,3.09412c-0.24615,0.42499-0.09467,0.9762,0.32812,1.22009
		c0.45416,0.26068,0.7254,0.729,0.7254,1.25134s-0.27118,0.9906-0.72516,1.25134c-0.4248,0.2439-0.57281,0.79755-0.32837,1.22015
		l1.79205,3.09418c0.24677,0.4248,0.79712,0.56897,1.22461,0.32709c0.45416-0.26166,0.99579-0.2608,1.44995-0.00092
		c0.45416,0.2616,0.7254,0.72992,0.7254,1.25232c0,0.49359,0.40118,0.89301,0.89606,0.89301h3.58411
		c0.49487,0,0.89606-0.39941,0.89606-0.89301c0-0.5224,0.27124-0.99072,0.7254-1.25232
		c0.4541-0.25989,0.99567-0.26074,1.44983,0.00079c0.42053,0.24219,0.98315,0.08899,1.22473-0.32697l1.79205-3.09418
		C43.1261,37.00903,42.97589,36.4588,42.552,36.21429z M35,38.94934c-2.20557,0-4-1.7879-4-3.98651s1.79443-3.98651,4-3.98651
		s4,1.7879,4,3.98651S37.20557,38.94934,35,38.94934z"/>
	<polygon points="15,32.90552 12.41406,32.90552 15,35.48279 	"/>
	<rect x="13" y="10.97974" width="14" height="1.99329"/>
	<path d="M20,28.91998h6.88l0.29999-0.52002C27.56,27.73999,28.20001,27.25,28.94,27.06
		c0.02002-0.01001,0.03998-0.01001,0.06-0.02002V14.96997H11v15.94h5c0.54999,0,1,0.45001,1,1v4.98004h8.01001
		c0.01001-0.22003,0.02997-0.44,0.08997-0.66003c0.13-0.47998,0.38-0.90997,0.73004-1.27002
		c-0.02002-0.01996-0.03003-0.03998-0.04999-0.06H20c-0.54999,0-1-0.44995-1-1c0-0.54999,0.45001-0.98999,1-0.98999h5.02002
		c0-0.48999,0.12-0.97998,0.37-1.40997l0.33997-0.59003H20c-0.54999,0-1-0.44-1-0.98999C19,29.35999,19.45001,28.91998,20,28.91998z
		 M14,26.92578c-0.55231,0-1-0.44623-1-0.99664s0.44769-0.99658,1-0.99658s1,0.44617,1,0.99658S14.55231,26.92578,14,26.92578z
		 M14,22.93927c-0.55231,0-1-0.44623-1-0.99664s0.44769-0.99658,1-0.99658s1,0.44617,1,0.99658S14.55231,22.93927,14,22.93927z
		 M14,18.95276c-0.55231,0-1-0.44623-1-0.99664s0.44769-0.99658,1-0.99658s1,0.44617,1,0.99658S14.55231,18.95276,14,18.95276z
		 M18,16.95953h8c0.55225,0,1,0.44574,1,0.99658c0,0.5509-0.44775,0.99664-1,0.99664h-8c-0.55225,0-1-0.44574-1-0.99664
		C17,17.40527,17.44775,16.95953,18,16.95953z M18,20.94604h8c0.55225,0,1,0.44574,1,0.99658c0,0.5509-0.44775,0.99664-1,0.99664h-8
		c-0.55225,0-1-0.44574-1-0.99664C17,21.39178,17.44775,20.94604,18,20.94604z M18,26.92578c-0.55225,0-1-0.44574-1-0.99664
		c0-0.55084,0.44775-0.99658,1-0.99658h8c0.55225,0,1,0.44574,1,0.99658c0,0.5509-0.44775,0.99664-1,0.99664H18z"/>
	<path d="M31,14.96625v10.99713c0.53107-0.62653,1.32288-1.03082,2.21002-1.03082H35V12.97302c0-1.10089-0.89545-1.99329-2-1.99329
		h-4v1.99329C30.10303,12.97302,31,13.86743,31,14.96625z"/>
	<path d="M26,6.99323C26,5.89691,25.09998,5,24,5h-8c-1.09998,0-2,0.89691-2,1.99323v1.99329h12V6.99323z"/>
	<path d="M27.17999,41.52631l-1.52521-2.64099h-9.65454c-0.26526,0-0.51971-0.10504-0.70728-0.29199l-6-5.97974
		C9.10541,32.42657,9,32.17303,9,31.90869V14.96625c0-1.09882,0.89697-1.99323,2-1.99323v-1.99329H7c-1.10455,0-2,0.8924-2,1.99329
		v27.90552c0,1.09631,0.90002,1.99329,2,1.99329h21.94C28.20001,42.67249,27.56,42.18414,27.17999,41.52631z"/>
</g>
</svg>
