<?xml version="1.0" encoding="utf-8"?>
<!-- Generator: Adobe Illustrator 27.3.1, SVG Export Plug-In . SVG Version: 6.00 Build 0)  -->
<svg version="1.1" id="Glyph" xmlns="http://www.w3.org/2000/svg" xmlns:xlink="http://www.w3.org/1999/xlink" x="0px" y="0px"
	 viewBox="0 0 48 48" enable-background="new 0 0 48 48" xml:space="preserve">
<g>
	<rect x="13" y="9" width="6" height="4"/>
	<path d="M19,18.25V15h-7c-0.55273,0-1-0.44775-1-1V9H8c-1.65002,0-3,1.34998-3,3v28c0,1.64996,1.34998,3,3,3h18
		c1.65002,0,3-1.35004,3-3V23.25h-5C21.23999,23.25,19,21.01001,19,18.25z M18,39h-2c-0.55273,0-1-0.44775-1-1s0.44727-1,1-1h2
		c0.55273,0,1,0.44775,1,1S18.55273,39,18,39z"/>
	<path d="M41.45001,20.85999C41.02002,21.09998,40.53003,21.25,40,21.25H24c-0.53003,0-1.02002-0.15002-1.45001-0.39001L29,14.40997
		l2.28998,2.29999C31.48999,16.89996,31.73999,17,32,17s0.51001-0.10004,0.71002-0.29004L35,14.40997L41.45001,20.85999z"/>
	<path d="M41.28998,5.29999L32,14.58997l-9.28998-9.28998C23.10999,5.10999,23.53998,5,24,5h16
		C40.46002,5,40.89001,5.10999,41.28998,5.29999z"/>
	<path d="M43,8v10.25c0,0.39996-0.08002,0.76996-0.21997,1.12L36.40997,13l6.29004-6.29004C42.89001,7.10999,43,7.53998,43,8z"/>
	<path d="M27.59003,13l-6.37006,6.37C21.08002,19.01996,21,18.64996,21,18.25V8c0-0.46002,0.10999-0.89001,0.29999-1.29004
		L27.59003,13z"/>
</g>
</svg>
