<?xml version="1.0" encoding="utf-8"?>
<!-- Generator: Adobe Illustrator 27.3.1, SVG Export Plug-In . SVG Version: 6.00 Build 0)  -->
<svg version="1.1" id="Glyph" xmlns="http://www.w3.org/2000/svg" xmlns:xlink="http://www.w3.org/1999/xlink" x="0px" y="0px"
	 viewBox="0 0 48 48" enable-background="new 0 0 48 48" xml:space="preserve">
<g>
	<path d="M42.6983,6.71576L35.41406,14l7.28424,7.28424C42.88605,20.89307,43,20.46082,43,20V8
		C43,7.53918,42.88605,7.10693,42.6983,6.71576z"/>
	<path d="M41.28424,5.3017C40.89307,5.11395,40.46082,5,40,5H22c-0.46082,0-0.89307,0.11395-1.28424,0.3017L31,15.58594
		L41.28424,5.3017z"/>
	<path d="M31.70703,17.70703C31.51172,17.90234,31.25586,18,31,18s-0.51172-0.09766-0.70703-0.29297L28,15.41406L24.41406,19H28
		c2.41998,0,4.44,1.71997,4.90002,4H40c0.46082,0,0.89307-0.11395,1.28424-0.3017L34,15.41406L31.70703,17.70703z"/>
	<path d="M26.58594,14L19.3017,6.71576C19.11395,7.10693,19,7.53918,19,8v11h2.58594L26.58594,14z"/>
	<path d="M28,21H8c-1.6543,0-3,1.3457-3,3v13c0,1.6543,1.3457,3,3,3v2c0,0.32129,0.1543,0.62305,0.41504,0.81152
		C8.58789,42.93555,8.79297,43,9,43c0.10645,0,0.21289-0.0166,0.31641-0.05176l0.87891-0.29297
		C11.61426,42.18262,12.79785,41.25,13.58301,40H28c1.6543,0,3-1.3457,3-3V24C31,22.3457,29.6543,21,28,21z M18,23.75
		c0.55231,0,1,0.44769,1,1c0,0.55225-0.44769,1-1,1s-1-0.44775-1-1C17,24.19769,17.44769,23.75,18,23.75z M19,36.25h-1
		c-0.55273,0-1-0.44727-1-1v-5c-0.55273,0-1-0.44727-1-1s0.44727-1,1-1h1c0.55273,0,1,0.44727,1,1v5c0.55273,0,1,0.44727,1,1
		S19.55273,36.25,19,36.25z"/>
</g>
</svg>
