<?xml version="1.0" encoding="utf-8"?>
<!-- Generator: Adobe Illustrator 27.3.1, SVG Export Plug-In . SVG Version: 6.00 Build 0)  -->
<svg version="1.1" id="Glyph" xmlns="http://www.w3.org/2000/svg" xmlns:xlink="http://www.w3.org/1999/xlink" x="0px" y="0px"
	 viewBox="0 0 48 48" enable-background="new 0 0 48 48" xml:space="preserve">
<g>
	<rect x="13" y="36.00018" width="2" height="2"/>
	<path d="M40.56934,20.17792c-0.26855-0.18555-0.6123-0.23047-0.9209-0.11426L24,25.93182L8.35107,20.06366
		c-0.30664-0.11621-0.65088-0.07129-0.9209,0.11426C7.16064,20.36542,7,20.67206,7,21.00018v19c0,1.65686,1.34314,3,3,3h28
		c1.65686,0,3-1.34314,3-3v-19C41,20.67206,40.83887,20.36542,40.56934,20.17792z M17,39.00018c0,0.55273-0.44775,1-1,1h-4
		c-0.55225,0-1-0.44727-1-1v-4c0-0.55273,0.44775-1,1-1h4c0.55225,0,1,0.44727,1,1V39.00018z M16,32.00018h-4
		c-0.55225,0-1-0.44727-1-1s0.44775-1,1-1h4c0.55225,0,1,0.44727,1,1S16.55225,32.00018,16,32.00018z M36,40.00018h-6
		c-0.55273,0-1-0.44727-1-1s0.44727-1,1-1h6c0.55273,0,1,0.44727,1,1S36.55273,40.00018,36,40.00018z M36,36.00018h-6
		c-0.55273,0-1-0.44727-1-1s0.44727-1,1-1h6c0.55273,0,1,0.44727,1,1S36.55273,36.00018,36,36.00018z"/>
	<path d="M37,18.9198V7.99982c0-1.65002-1.34998-3-3-3H14c-1.65002,0-3,1.34998-3,3V18.9198l13,4.88L37,18.9198z M22,7.24982h10
		c0.55273,0,1,0.44727,1,1s-0.44727,1-1,1H22c-0.55225,0-1-0.44727-1-1S21.44775,7.24982,22,7.24982z M18,6.99982
		c0.55231,0,1,0.44769,1,1c0,0.55225-0.44769,1-1,1s-1-0.44775-1-1C17,7.44751,17.44769,6.99982,18,6.99982z M20,18.24982h-4
		c-0.55225,0-1-0.44727-1-1s0.44775-1,1-1h1v-4c-0.55225,0-1-0.44727-1-1s0.44775-1,1-1h1c0.55225,0,1,0.44727,1,1v5h1
		c0.55225,0,1,0.44727,1,1S20.55225,18.24982,20,18.24982z M21,12.24982c0-0.55273,0.44775-1,1-1h10c0.55273,0,1,0.44727,1,1
		s-0.44727,1-1,1H22C21.44775,13.24982,21,12.80255,21,12.24982z M23,16.24982c0-0.55273,0.44775-1,1-1h8c0.55273,0,1,0.44727,1,1
		s-0.44727,1-1,1h-8C23.44775,17.24982,23,16.80255,23,16.24982z"/>
</g>
</svg>
