<?xml version="1.0" encoding="utf-8"?>
<!-- Generator: Adobe Illustrator 27.3.1, SVG Export Plug-In . SVG Version: 6.00 Build 0)  -->
<svg version="1.1" id="Glyph" xmlns="http://www.w3.org/2000/svg" xmlns:xlink="http://www.w3.org/1999/xlink" x="0px" y="0px"
	 viewBox="0 0 48 48" enable-background="new 0 0 48 48" xml:space="preserve">
<g>
	<path d="M15,24c-1.10455,0-2,0.89539-2,2v10c0,1.10455,0.89545,2,2,2s2-0.89545,2-2V26C17,24.89539,16.10455,24,15,24z"/>
	<path d="M41,26.18427V22c0-4.5376-1.76562-8.80859-4.97363-12.02832C32.80859,6.76562,28.53809,5,24,5
		c-2.22167,0-4.36815,0.41894-6.374,1.24267C11.28659,8.84601,7,15.13579,7,22v4.18427C5.8385,26.59839,5,27.69806,5,29v4
		c0,1.6543,1.3457,3,3,3h3V26H9c0,0,0-4,0-4.00001c0-6.05287,3.76388-11.63956,9.37988-13.90527C20.14893,7.36816,22.04004,7,24,7
		c4.00488,0,7.77441,1.55859,10.6123,4.38623C37.44141,14.22559,39,17.99512,39,22v4h-2v10h3c1.6543,0,3-1.3457,3-3v-4
		C43,27.69806,42.1615,26.59839,41,26.18427z"/>
	<path d="M33,24c-1.10455,0-2,0.89539-2,2v10c0,0.7384,0.40472,1.37616,1,1.7226V38c0,0.55127-0.44824,1-1,1h-3.18427
		C27.40161,37.8385,26.30194,37,25,37c-1.6543,0-3,1.3457-3,3s1.3457,3,3,3c1.30194,0,2.40161-0.8385,2.81573-2H31
		c1.6543,0,3-1.3457,3-3v-0.2774c0.59528-0.34644,1-0.98419,1-1.7226V26C35,24.89539,34.10455,24,33,24z"/>
</g>
</svg>
