<?xml version="1.0" encoding="utf-8"?>
<!-- Generator: Adobe Illustrator 27.3.1, SVG Export Plug-In . SVG Version: 6.00 Build 0)  -->
<svg version="1.1" id="Glyph" xmlns="http://www.w3.org/2000/svg" xmlns:xlink="http://www.w3.org/1999/xlink" x="0px" y="0px"
	 viewBox="0 0 48 48" enable-background="new 0 0 48 48" xml:space="preserve">
<g>
	<path d="M40.27271,23H25.72729C24.22339,23,23,24.22333,23,25.72723v11.81818c0,1.50391,1.22339,2.72729,2.72729,2.72729h13.25995
		l2.46094,2.46094C41.62213,42.90765,41.85474,43,42.09088,43c0.11719,0,0.23529-0.02222,0.34802-0.06927
		C42.77893,42.79047,43,42.45844,43,42.09088V25.72723C43,24.22333,41.77661,23,40.27271,23z M33,37.25c-0.55231,0-1-0.44775-1-1
		c0-0.55231,0.44769-1,1-1s1,0.44769,1,1C34,36.80225,33.55231,37.25,33,37.25z M34.4209,31.64258
		C34.16504,31.78027,34,32.10059,34,32.45996V33c0,0.55273-0.44727,1-1,1s-1-0.44727-1-1v-0.54004
		c0-1.10254,0.56445-2.09082,1.47363-2.57812C33.79785,29.70703,34,29.36914,34,29c0-0.55176-0.44824-1-1-1s-1,0.44824-1,1
		c0,0.55273-0.44727,1-1,1s-1-0.44727-1-1c0-1.6543,1.3457-3,3-3s3,1.3457,3,3C36,30.10547,35.39453,31.11816,34.4209,31.64258z"/>
	<path d="M39,8c0-1.65002-1.34998-3-3-3H8C6.34998,5,5,6.34998,5,8v1h34V8z"/>
	<path d="M25.72998,21H39V11H5v25c0,1.64996,1.34998,3,3,3h13.22998C21.08002,38.53998,21,38.06,21,37.54999V25.72998
		C21,23.12,23.12,21,25.72998,21z M10,13h24c0.55273,0,1,0.44775,1,1s-0.44727,1-1,1H10c-0.55273,0-1-0.44775-1-1S9.44727,13,10,13z
		 M18,35h-8c-0.55273,0-1-0.44727-1-1s0.44727-1,1-1h8c0.55273,0,1,0.44727,1,1S18.55273,35,18,35z M18,31h-8
		c-0.55273,0-1-0.44727-1-1s0.44727-1,1-1h8c0.55273,0,1,0.44727,1,1S18.55273,31,18,31z M18,27h-8c-0.55273,0-1-0.44727-1-1
		s0.44727-1,1-1h8c0.55273,0,1,0.44727,1,1S18.55273,27,18,27z M18,23h-8c-0.55273,0-1-0.44775-1-1s0.44727-1,1-1h8
		c0.55273,0,1,0.44775,1,1S18.55273,23,18,23z M10,19c-0.55273,0-1-0.44775-1-1s0.44727-1,1-1h24c0.55273,0,1,0.44775,1,1
		s-0.44727,1-1,1H10z"/>
</g>
</svg>
