<?xml version="1.0" encoding="utf-8"?>
<!-- Generator: Adobe Illustrator 27.3.1, SVG Export Plug-In . SVG Version: 6.00 Build 0)  -->
<svg version="1.1" id="Glyph" xmlns="http://www.w3.org/2000/svg" xmlns:xlink="http://www.w3.org/1999/xlink" x="0px" y="0px"
	 viewBox="0 0 48 48" enable-background="new 0 0 48 48" xml:space="preserve">
<g>
	<path d="M14,42c0,0.34998,0.17999,0.66998,0.46997,0.84998c0.30005,0.17999,0.67004,0.20001,0.98004,0.04004L17,42.12
		c0,0,1.54999,0.77002,1.55005,0.77002c0.31042,0.15509,0.68408,0.1449,0.97998-0.04004C19.82001,42.66998,20,42.34998,20,42v-4h-6
		V42z"/>
	<path d="M5,37c0,2.16364,1.81238,4,4,4h3v-3h-1c-0.54999,0-1-0.45001-1-1s0.45001-1,1-1h24v-3H9C6.78998,33,5,34.78998,5,37z"/>
	<rect x="22" y="38" width="13" height="3"/>
	<path d="M10,11.90155c-1.6947,0.09351-3.39093,0.42096-5,0.96631v5.60687c1.62299-0.49084,3.31311-0.77911,5-0.86322V11.90155z"/>
	<path d="M10,5c-2.76001,0-5,2.23999-5,5v0.76477c1.62299-0.49084,3.31311-0.77911,5-0.86322V5z"/>
	<path d="M10,19.61151c-1.6947,0.09351-3.39093,0.42096-5,0.96631v6.18695c1.62299-0.49084,3.31311-0.77911,5-0.86322V19.61151z"/>
	<path d="M16,19h8.21252c-0.47754-0.93176-0.82599-1.93829-1.02173-3H16V19z"/>
	<path d="M17,8.00329c0.15376-0.00011,0.30906,0.03308,0.44726,0.10218L18,8.38184V5h-2v3.38184
		c0,0,0.55241-0.27621,0.55273-0.27637C16.68689,8.03839,16.84264,8.0034,17,8.00329z"/>
	<path d="M10,31v-3.09845c-1.6947,0.09351-3.39093,0.42096-5,0.96631v3.67212C6.06,31.57996,7.46002,31,9,31H10z"/>
	<path d="M33.2002,24.95953C33.13336,24.97363,33.07104,25,33,25H15c-0.55225,0-1-0.44775-1-1s0.44775-1,1-1h12.69165
		c-0.80981-0.56903-1.54413-1.23859-2.17346-2H15c-0.55225,0-1-0.44775-1-1v-5c0-0.55225,0.44775-1,1-1h8
		c0-3.72003,1.84998-7.01001,4.67999-9H20v5c0,0.34668-0.17969,0.66846-0.47412,0.85059
		c-0.29318,0.1809-0.66528,0.19734-0.97314,0.04394L17,10.11816l-1.55273,0.77637c-0.30957,0.1543-0.67822,0.13818-0.97314-0.04395
		C14.17969,10.66846,14,10.34668,14,10V5h-2v26h23v-6.04999C34.67999,24.98999,34.34998,25,34,25
		C33.73004,25,33.46533,24.9787,33.2002,24.95953z M27,29h-9c-0.55225,0-1-0.44775-1-1s0.44775-1,1-1h9c0.55225,0,1,0.44775,1,1
		S27.55225,29,27,29z"/>
	<path d="M35.00854,5.06061C34.67236,5.01978,34.34235,5,34,5c-4.96277,0-9,4.03723-9,9c0,4.96271,4.03723,9,9,9
		c0.34235,0,0.67236-0.01978,0.99756-0.05933C39.55951,22.44409,43,18.60065,43,14S39.55951,5.55591,35.00854,5.06061z M34,8
		c0.55231,0,1,0.44769,1,1c0,0.55225-0.44769,1-1,1s-1-0.44775-1-1C33,8.44769,33.44769,8,34,8z M36,19h-4c-0.55225,0-1-0.44775-1-1
		s0.44775-1,1-1h1v-3h-1c-0.55225,0-1-0.44775-1-1s0.44775-1,1-1h2c0.55225,0,1,0.44775,1,1v4h1c0.55225,0,1,0.44775,1,1
		S36.55225,19,36,19z"/>
</g>
</svg>
