<?xml version="1.0" encoding="utf-8"?>
<!-- Generator: Adobe Illustrator 27.3.1, SVG Export Plug-In . SVG Version: 6.00 Build 0)  -->
<svg version="1.1" id="Glyph" xmlns="http://www.w3.org/2000/svg" xmlns:xlink="http://www.w3.org/1999/xlink" x="0px" y="0px"
	 viewBox="0 0 48 48" enable-background="new 0 0 48 48" xml:space="preserve">
<g>
	<path d="M32,7.47258c0-0.41286-0.27777-0.77205-0.67358-0.87222L25,5v8.65617h7V7.47258z"/>
	<path d="M23,5l-6.32642,1.60036C16.27777,6.70053,16,7.05972,16,7.47258v6.1836h7V5z"/>
	<path d="M31.87274,15.67989H25v8.36103C26.59253,22.84903,31.09302,19.21027,31.87274,15.67989z"/>
	<path d="M23,24.04091v-8.36103h-6.87274C16.90698,19.21027,21.40747,22.84903,23,24.04091z"/>
	<rect x="22" y="38.95258" width="4" height="4.04742"/>
	<path d="M29,34.90515h12V15.67989c0-1.66959-1.34998-3.03557-3-3.03557h-4v2.02371c0,5.0896-6.39001,10.00727-8.34003,11.39351
		c-0.5,0.344-1.06995,0.52612-1.65997,0.52612s-1.15997-0.18213-1.65002-0.52612C20.39001,24.6753,14,19.75763,14,14.66803v-2.02371
		h-4c-1.65002,0-3,1.36598-3,3.03557v19.22527h12c0.26562,0,0.51953,0.10672,0.70703,0.29644l1.70703,1.72727h5.17188
		l1.70703-1.72727C28.48047,35.01187,28.73438,34.90515,29,34.90515z M32,26.8103h4c0.55273,0,1,0.45257,1,1.01186
		s-0.44727,1.01186-1,1.01186h-4c-0.55273,0-1-0.45257-1-1.01186S31.44727,26.8103,32,26.8103z M30,30.85773h6
		c0.55273,0,1,0.45257,1,1.01186s-0.44727,1.01186-1,1.01186h-6c-0.55273,0-1-0.45257-1-1.01186S29.44727,30.85773,30,30.85773z
		 M12,26.8103h4c0.55273,0,1,0.45257,1,1.01186s-0.44727,1.01186-1,1.01186h-4c-0.55273,0-1-0.45257-1-1.01186
		S11.44727,26.8103,12,26.8103z M18,32.88144h-6c-0.55273,0-1-0.45257-1-1.01186s0.44727-1.01186,1-1.01186h6
		c0.55273,0,1,0.45257,1,1.01186S18.55273,32.88144,18,32.88144z M24,34.90515c-0.55231,0-1-0.45306-1-1.01186
		c0-0.55886,0.44769-1.01186,1-1.01186s1,0.453,1,1.01186C25,34.45209,24.55231,34.90515,24,34.90515z"/>
	<path d="M38,36.92886v1.01186c0,0.55929-0.44727,1.01186-1,1.01186s-1-0.45257-1-1.01186v-1.01186h-2v1.01186
		c0,0.55929-0.44727,1.01186-1,1.01186s-1-0.45257-1-1.01186v-1.01186h-2.58594L28,38.35969V43h12c1.65002,0,3-1.36604,3-3.03557
		v-3.03557H38z"/>
	<path d="M5,36.92886v3.03557C5,41.63396,6.34998,43,8,43h12v-4.64031l-1.41406-1.43083H5z"/>
</g>
</svg>
