<?xml version="1.0" encoding="utf-8"?>
<!-- Generator: Adobe Illustrator 27.3.1, SVG Export Plug-In . SVG Version: 6.00 Build 0)  -->
<svg version="1.1" id="Glyph" xmlns="http://www.w3.org/2000/svg" xmlns:xlink="http://www.w3.org/1999/xlink" x="0px" y="0px"
	 viewBox="0 0 48 48" enable-background="new 0 0 48 48" xml:space="preserve">
<g>
	<path d="M32,19h-1v2h1c0.55176,0,1-0.44873,1-1S32.55176,19,32,19z"/>
	<path d="M5,32c0,1.10455,0.89545,2,2,2h3v-3H5V32z"/>
	<path d="M17,34h20c1.10455,0,2-0.89545,2-2v-1H17V34z"/>
	<rect x="12" y="31" width="3" height="3"/>
	<rect x="18" y="36" width="10" height="2"/>
	<path d="M38.71997,17.85999l-0.75-0.25c-1.25-0.41998-2.37-1.16998-3.22998-2.15002H30.31c-2.5,0-4.53998-2.02997-4.53998-4.53998
		V9H7c-1.09998,0-2,0.89996-2,2v18h34V17.91998C38.90997,17.90997,38.81,17.89001,38.71997,17.85999z M15,26
		c0,0.54999-0.45001,1-1,1s-1-0.45001-1-1v-3h-2v3c0,0.54999-0.45001,1-1,1s-1-0.45001-1-1v-8c0-0.54999,0.45001-1,1-1
		s1,0.45001,1,1v3h2v-3c0-0.54999,0.45001-1,1-1s1,0.45001,1,1V26z M20,21c0.54999,0,1,0.45001,1,1s-0.45001,1-1,1h-1v2h1
		c0.54999,0,1,0.45001,1,1s-0.45001,1-1,1h-2c-0.54999,0-1-0.45001-1-1v-8c0-0.54999,0.45001-1,1-1h2c0.54999,0,1,0.45001,1,1
		s-0.45001,1-1,1h-1v2H20z M26,27h-2c-0.54999,0-1-0.45001-1-1v-8c0-0.54999,0.45001-1,1-1s1,0.45001,1,1v7h1
		c0.54999,0,1,0.45001,1,1S26.54999,27,26,27z M32,23h-1v3c0,0.54999-0.45001,1-1,1s-1-0.45001-1-1v-8c0-0.54999,0.45001-1,1-1h2
		c1.65002,0,3,1.34998,3,3C35,21.64996,33.65002,23,32,23z"/>
	<path d="M32,40H14c-0.55231,0-1,0.44769-1,1v1c0,0.54999,0.45001,1,1,1h18c0.54999,0,1-0.45001,1-1v-1
		C33,40.44769,32.55231,40,32,40z"/>
	<path d="M40.46155,5H30.30768c-1.39978,0-2.53845,1.13867-2.53845,2.53845v3.38458c0,1.39984,1.13867,2.53851,2.53845,2.53851
		h5.42896c0.66516,1.05847,1.66669,1.84723,2.86732,2.24713c0.47839,0.15948,1.03376,0.47212,1.5064,0.13141
		c0.22064-0.15906,0.3512-0.41437,0.3512-0.68628v-1.69226c1.39978,0,2.53845-1.13867,2.53845-2.53851V7.53845
		C43,6.13867,41.86133,5,40.46155,5z M31.38464,10c-0.55231,0-1-0.44775-1-1c0-0.55231,0.44769-1,1-1c0.55225,0,1,0.44769,1,1
		C32.38464,9.55225,31.93689,10,31.38464,10z M35.38464,10c-0.55231,0-1-0.44775-1-1c0-0.55231,0.44769-1,1-1
		c0.55225,0,1,0.44769,1,1C36.38464,9.55225,35.93689,10,35.38464,10z M39.38464,10c-0.55231,0-1-0.44775-1-1
		c0-0.55231,0.44769-1,1-1c0.55225,0,1,0.44769,1,1C40.38464,9.55225,39.93689,10,39.38464,10z"/>
</g>
</svg>
