<?xml version="1.0" encoding="utf-8"?>
<!-- Generator: Adobe Illustrator 27.3.1, SVG Export Plug-In . SVG Version: 6.00 Build 0)  -->
<svg version="1.1" id="Glyph" xmlns="http://www.w3.org/2000/svg" xmlns:xlink="http://www.w3.org/1999/xlink" x="0px" y="0px"
	 viewBox="0 0 48 48" enable-background="new 0 0 48 48" xml:space="preserve">
<g>
	<path d="M42.55157,14.1922c-0.45416-0.26251-0.72455-0.73199-0.72455-1.25653c0-0.5246,0.27039-0.99408,0.72455-1.25659
		c0.42877-0.24719,0.57574-0.79541,0.32812-1.22375c0,0-1.791-3.10195-1.79205-3.10376
		c-0.24428-0.42308-0.8005-0.57381-1.22418-0.3277c-0.45502,0.26166-0.99841,0.26123-1.44995-0.00043
		c-0.45416-0.26208-0.7254-0.73151-0.7254-1.2561c0-0.49481-0.40076-0.89606-0.89606-0.89606h-3.58411
		c-0.4953,0-0.89606,0.40125-0.89606,0.89606c0,0.5246-0.27124,0.99402-0.7254,1.2561
		c-0.45238,0.26165-0.99574,0.26208-1.4499,0.00046c-0.42346-0.24395-0.98066-0.09316-1.22424,0.32767l-1.79205,3.10376
		c-0.24762,0.42834-0.10065,0.97656,0.32812,1.22375c0.45416,0.26251,0.72455,0.73199,0.72455,1.25659
		c0,0.52454-0.27039,0.99402-0.72455,1.25653c-0.42877,0.24719-0.57574,0.79541-0.32812,1.22375
		c0,0,1.79039,3.10087,1.79205,3.10376c0.24444,0.42337,0.80043,0.57283,1.22418,0.3277
		c0.45416-0.26251,0.99756-0.26208,1.44995,0.00043c0.45416,0.26208,0.7254,0.73151,0.7254,1.2561
		c0,0.49481,0.40076,0.89606,0.89606,0.89606h3.58411c0.4953,0,0.89606-0.40125,0.89606-0.89606
		c0-0.5246,0.27124-0.99402,0.7254-1.2561c0.45153-0.26251,0.99492-0.26294,1.44993-0.00044
		c0.42439,0.24483,0.97895,0.09603,1.2242-0.32769l1.79205-3.10376C43.12732,14.98761,42.98035,14.43939,42.55157,14.1922z
		 M35,16.93567c-2.20605,0-4-1.79443-4-4s1.79395-4,4-4s4,1.79443,4,4S37.20605,16.93567,35,16.93567z"/>
	<circle cx="35" cy="12.93567" r="2"/>
	<path d="M22,30c-4.41113,0-8-3.58887-8-8s3.58887-8,8-8c1.07483,0,2.09937,0.21625,3.03656,0.60242
		c0.01672-0.12775,0.02966-0.25574,0.06342-0.38245c0.13-0.48999,0.38-0.92999,0.73004-1.27997
		c-0.27167-0.27942-0.46173-0.61761-0.60358-0.97943L22,11.15381l-10.08789,2.52246L11,14.84424V24
		c0,3.17969,5.44629,8.41602,11,12.11621C27.55371,32.41602,33,27.17969,33,24v-1.0177
		c-1.23657-0.09003-2.26776-0.94849-2.58002-2.1123c-0.16315,0.04761-0.3302,0.07104-0.49634,0.08478
		C29.96869,21.29773,30,21.6449,30,22C30,26.41113,26.41113,30,22,30z"/>
	<path d="M35,23v1c0,4.49414-6.70996,10.43262-12.45703,14.15234C22.37793,38.25879,22.18945,38.3125,22,38.3125
		s-0.37793-0.05371-0.54297-0.16016C15.70996,34.43262,9,28.49414,9,24v-9.5c0-0.22314,0.07422-0.43994,0.21191-0.61572
		l1.33594-1.71045c0.1377-0.17529,0.3291-0.30029,0.5459-0.35449l10.66406-2.6665c0.1582-0.04004,0.32617-0.04004,0.48438,0
		l2.95099,0.73792c0.05579-0.14661,0.11621-0.29224,0.19684-0.43079l1.78998-3.10999
		c0.01001-0.02002,0.03003-0.04999,0.04999-0.07001l-4.98999-1.25c-0.15997-0.03998-0.32001-0.03998-0.47998,0L8.78998,8.26996
		C8.57001,8.32996,8.38,8.45001,8.23999,8.63l-3.02997,3.88C5.07001,12.67999,5,12.89996,5,13.12V24
		c0,9.31,15.83002,18.47998,16.5,18.87C21.65997,42.95996,21.83002,43,22,43s0.34003-0.04004,0.5-0.13
		C23.16998,42.47998,39,33.31,39,24v-2.04004C38.47998,22.59998,37.67999,23,36.78998,23H35z"/>
	<path d="M27.17999,19.51996l-1.10211-1.90875C25.00629,16.61487,23.57532,16,22,16c-3.30859,0-6,2.69141-6,6s2.69141,6,6,6
		s6-2.69141,6-6c0-0.63989-0.10291-1.25562-0.28925-1.83429C27.50677,19.97437,27.32037,19.76379,27.17999,19.51996z"/>
</g>
</svg>
