<?xml version="1.0" encoding="utf-8"?>
<!-- Generator: Adobe Illustrator 27.3.1, SVG Export Plug-In . SVG Version: 6.00 Build 0)  -->
<svg version="1.1" id="Glyph" xmlns="http://www.w3.org/2000/svg" xmlns:xlink="http://www.w3.org/1999/xlink" x="0px" y="0px"
	 viewBox="0 0 48 48" enable-background="new 0 0 48 48" xml:space="preserve">
<g>
	<path d="M18,31c0.46002,0,0.85999-0.31,0.96997-0.76001l0.98004-3.91003C18.71002,26.76996,17.38,27,16,27
		s-2.71002-0.23004-3.95001-0.67004l0.98004,3.91003C13.14001,30.69,13.53998,31,14,31h1v2h-1c-0.54999,0-1,0.45001-1,1v6
		c0,1.64996,1.34998,3,3,3s3-1.35004,3-3v-6c0-0.54999-0.45001-1-1-1h-1v-2H18z"/>
	<path d="M16,5C10.48596,5,6,9.48596,6,15s4.48596,10,10,10s10-4.48596,10-10S21.51404,5,16,5z M16,10c-2.75684,0-5,2.24316-5,5
		c0,0.55225-0.44775,1-1,1s-1-0.44775-1-1c0-3.85986,3.14014-7,7-7c0.55225,0,1,0.44775,1,1S16.55225,10,16,10z"/>
	<path d="M33,5c-2.83002,0-5.35999,1.32001-7.01001,3.37C27.27002,10.26996,28,12.54999,28,15
		c0,1.95001-0.46002,3.78998-1.29999,5.41998C28.32001,22.01001,30.54999,23,33,23c4.96002,0,9-4.04004,9-9
		C42,9.03998,37.96002,5,33,5z M33,19.5c-0.55231,0-1-0.44775-1-1c0-0.55231,0.44769-1,1-1s1,0.44769,1,1
		C34,19.05225,33.55231,19.5,33,19.5z M34.41992,13.89307C34.16504,14.03027,34,14.35107,34,14.70996V15.25c0,0.55225-0.44775,1-1,1
		s-1-0.44775-1-1v-0.54004c0-1.10107,0.56396-2.08887,1.47168-2.57812C33.79785,11.95654,34,11.61865,34,11.25
		c0-0.55127-0.44873-1-1-1s-1,0.44873-1,1c0,0.55225-0.44775,1-1,1s-1-0.44775-1-1c0-1.6543,1.3457-3,3-3s3,1.3457,3,3
		C36,12.35596,35.39453,13.36865,34.41992,13.89307z"/>
</g>
</svg>
