<?xml version="1.0" encoding="utf-8"?>
<!-- Generator: Adobe Illustrator 27.3.1, SVG Export Plug-In . SVG Version: 6.00 Build 0)  -->
<svg version="1.1" id="Glyph" xmlns="http://www.w3.org/2000/svg" xmlns:xlink="http://www.w3.org/1999/xlink" x="0px" y="0px"
	 viewBox="0 0 48 48" enable-background="new 0 0 48 48" xml:space="preserve">
<g>
	<path d="M42,37h-4.78516l-1.33301-2l1.33301-2H42c0.34277,0,0.66113-0.17529,0.84473-0.46484s0.20605-0.65283,0.05957-0.9624
		C41.57129,28.75195,38.80273,27,35.67969,27c-2.90527,0-5.50391,1.5166-6.9248,4h-15.7627C12.125,30.35254,11.07617,30,10,30
		c-2.75684,0-5,2.24316-5,5s2.24316,5,5,5c1.07617,0,2.125-0.35254,2.99219-1h15.7627c1.4209,2.4834,4.01953,4,6.9248,4
		c3.12305,0,5.8916-1.75195,7.22461-4.57275c0.14648-0.30957,0.12402-0.67285-0.05957-0.9624S42.34277,37,42,37z M10,36
		c-0.55231,0-1-0.44775-1-1c0-0.55231,0.44769-1,1-1s1,0.44769,1,1C11,35.55225,10.55231,36,10,36z"/>
	<circle cx="24" cy="17" r="4"/>
	<path d="M12.97363,19.90186c-0.47852,0.27637-0.64258,0.88818-0.36621,1.36621l2,3.46387
		c0.27539,0.47803,0.88867,0.6416,1.36621,0.36621c1.0498-0.60596,2.30273-0.60498,3.35059,0C20.37402,25.7041,21,26.78857,21,28
		c0,0.55225,0.44727,1,1,1h4c0.55273,0,1-0.44775,1-1c0-1.21143,0.62598-2.2959,1.67578-2.90186
		c1.04785-0.60498,2.30078-0.60596,3.35059,0c0.47656,0.27539,1.08887,0.11182,1.36621-0.36621l2-3.46387
		c0.27637-0.47803,0.1123-1.08984-0.36621-1.36621C33.97754,19.29639,33.35059,18.21143,33.35059,17
		s0.62695-2.29639,1.67578-2.90186c0.47852-0.27637,0.64258-0.88818,0.36621-1.36621l-2-3.46387
		c-0.27734-0.47852-0.88965-0.64209-1.36621-0.36621c-1.0498,0.60596-2.30273,0.60498-3.35059,0C27.62598,8.2959,27,7.21143,27,6
		c0-0.55225-0.44727-1-1-1h-4c-0.55273,0-1,0.44775-1,1c0,1.21143-0.62598,2.2959-1.67578,2.90186
		c-1.04785,0.60498-2.30078,0.60596-3.35059,0c-0.47754-0.27588-1.09082-0.1123-1.36621,0.36621l-2,3.46387
		c-0.27637,0.47803-0.1123,1.08984,0.36621,1.36621c1.04883,0.60547,1.67578,1.69043,1.67578,2.90186
		S14.02246,19.29639,12.97363,19.90186z M24,11c3.30859,0,6,2.69141,6,6s-2.69141,6-6,6s-6-2.69141-6-6S20.69141,11,24,11z"/>
</g>
</svg>
