<?xml version="1.0" encoding="utf-8"?>
<!-- Generator: Adobe Illustrator 27.3.1, SVG Export Plug-In . SVG Version: 6.00 Build 0)  -->
<svg version="1.1" id="Glyph" xmlns="http://www.w3.org/2000/svg" xmlns:xlink="http://www.w3.org/1999/xlink" x="0px" y="0px"
	 viewBox="0 0 48 48" enable-background="new 0 0 48 48" xml:space="preserve">
<g>
	<path d="M33.99927,21.99988c0.00049,0,0.00098,0,0.00146,0C34.55176,21.99939,35,21.55103,35,21v-1c0-0.55127-0.44873-1-1-1
		s-1,0.44873-1,1v1C33,21.55103,33.44824,21.99939,33.99927,21.99988z"/>
	<path d="M5,31c0,1.10455,0.89545,2,2,2h3v-3H5V31z"/>
	<path d="M31.75781,24.59131C31.31152,24.70264,31,25.10156,31,25.56152V28h6v-2.43848c0-0.45996-0.31152-0.85889-0.75781-0.97021
		L35,24.28076V25c0,0.55225-0.44775,1-1,1s-1-0.44775-1-1v-0.71924L31.75781,24.59131z"/>
	<rect x="12" y="30" width="3" height="3"/>
	<path d="M30,30H17v3h24c1.10455,0,2-0.89545,2-2v-1h-5H30z"/>
	<rect x="19" y="35" width="10" height="2"/>
	<path d="M24,12H12c-0.55127,0-1,0.44873-1,1v4c0,0.55127,0.44873,1,1,1h7c0.37891,0,0.7251,0.21387,0.89453,0.55273
		C20.34912,19.4624,21.08691,20.17139,22,20.58691V19c0-0.55225,0.44775-1,1-1h1c0.55127,0,1-0.44873,1-1v-4
		C25,12.44873,24.55127,12,24,12z M14,16c-0.55231,0-1-0.44775-1-1c0-0.55231,0.44769-1,1-1s1,0.44769,1,1
		C15,15.55225,14.55231,16,14,16z M18,16c-0.55231,0-1-0.44775-1-1c0-0.55231,0.44769-1,1-1s1,0.44769,1,1
		C19,15.55225,18.55231,16,18,16z M22,16c-0.55231,0-1-0.44775-1-1c0-0.55231,0.44769-1,1-1s1,0.44769,1,1
		C23,15.55225,22.55231,16,22,16z"/>
	<path d="M41,6H7C5.89545,6,5,6.89539,5,8v20h24v-2.43842c0-1.37671,0.93689-2.57672,2.27246-2.91071l0.19965-0.04993
		C31.177,22.1366,31,21.58984,31,21v-0.88159c0-1.45087,0.97784-2.78363,2.4021-3.0603C35.31732,16.6861,37,18.15015,37,20v1
		c0,0.58984-0.177,1.1366-0.47211,1.60095l0.19965,0.04993C38.06311,22.98486,39,24.18488,39,25.56158V28h4V8
		C43,6.89539,42.10455,6,41,6z M27,17c0,1.6543-1.3457,3-3,3v2c0,0.32129-0.1543,0.62305-0.41553,0.81104
		C23.41211,22.93555,23.20703,23,23,23c-0.10645,0-0.21289-0.01709-0.31641-0.05127l-0.87891-0.29297
		C20.38525,22.18262,19.20166,21.25049,18.4165,20H12c-1.6543,0-3-1.3457-3-3v-4c0-1.6543,1.3457-3,3-3h12c1.6543,0,3,1.3457,3,3V17
		z"/>
	<path d="M33,39H15c-0.55231,0-1,0.44769-1,1v1c0,0.55225,0.44769,1,1,1h18c0.55231,0,1-0.44775,1-1v-1
		C34,39.44769,33.55231,39,33,39z"/>
</g>
</svg>
