<?xml version="1.0" encoding="UTF-8"?>
<svg xmlns="http://www.w3.org/2000/svg" version="1.1" viewBox="0 0 48 48">
  <!-- Generator: Adobe Illustrator 28.7.1, SVG Export Plug-In . SVG Version: 1.2.0 Build 142)  -->
  <g>
    <g id="OUTLINE">
      <g>
        <path d="M24,17c-.55225,0-1,.44775-1,1v4.18427c-1.1615.41412-2,1.51379-2,2.81573,0,1.6543,1.3457,3,3,3,1.30194,0,2.40161-.8385,2.81573-2h4.18427c.55225,0,1-.44775,1-1s-.44775-1-1-1h-4.18427c-.30206-.84717-.96857-1.51367-1.81573-1.81573v-4.18427c0-.55225-.44775-1-1-1ZM24,26c-.55127,0-1-.44873-1-1s.44873-1,1-1,1,.44873,1,1-.44873,1-1,1Z"/>
        <path d="M39.44,38.37l-2.71002-3.72003c2.04004-2.67999,3.27002-6.01996,3.27002-9.64996,0-2.89001-.78003-5.59003-2.12-7.92999,1.31-.92004,2.12-2.41003,2.12-4.07001,0-2.76001-2.23999-5-5-5-1.78998,0-3.41998.98999-4.31,2.48999-1.75-.81-3.66998-1.31-5.69-1.44v-2.04999h3c.54999,0,1-.45001,1-1s-.45001-1-1-1h-8c-.54999,0-1,.45001-1,1s.45001,1,1,1h3v2.04999c-2.01001.12-3.92999.62-5.69,1.44-.89001-1.5-2.52002-2.48999-4.31-2.48999-2.76001,0-5,2.23999-5,5,0,1.65997.81,3.15997,2.13,4.07001-1.01001,1.75-1.70001,3.69995-1.97998,5.79999-.07001.54999.31,1.04999.85999,1.12.53998.07001,1.04999-.31,1.12-.85999.92999-6.91003,6.89001-12.13,13.87-12.13,7.71997,0,14,6.27997,14,14s-6.28003,14-14,14c-6.97998,0-12.94-5.22003-13.87-12.13-.07001-.54999-.58002-.92999-1.12-.85999-.54999.06995-.92999.56995-.85999,1.12.38,2.82001,1.48999,5.38,3.12,7.51996l-2.71002,3.72003c-.46002.63-.65002,1.39996-.52997,2.16998.12994.77002.53998,1.44,1.15997,1.89001.51001.38,1.09998.57001,1.71997.57001.93188,0,1.80988-.44653,2.36005-1.20001l2.33997-3.20001c2.45001,1.52002,5.33002,2.40002,8.39001,2.40002,3.08002,0,5.95001-.89001,8.39001-2.40002l2.33997,3.19c.46002.64001,1.14001,1.06,1.91003,1.17999.75781.10114,1.53467-.06537,2.14996-.52997.64001-.46002,1.05005-1.13,1.17999-1.90002.12006-.77002-.06995-1.53998-.52997-2.16998ZM11.22998,15.40997c-.75-.56-1.22998-1.45001-1.22998-2.40997,0-1.65002,1.34998-3,3-3,1.04999,0,2.02002.57001,2.54999,1.44-1.66998,1.03998-3.13,2.38995-4.32001,3.96997ZM36.77002,15.39996c-1.17999-1.57001-2.65002-2.91998-4.32001-3.95996.53998-.87,1.5-1.44,2.54999-1.44,1.65002,0,3,1.34998,3,3,0,.95996-.47998,1.84998-1.22998,2.39996ZM11.65002,40.62c-.14001.20001-.36005.33002-.60004.37s-.46997-.02002-.66998-.16998c-.20001-.14001-.33002-.35004-.37-.59003-.04004-.23999.02002-.47998.16998-.67999l2.44-3.34003c.42999.43005.88.84003,1.35999,1.22003l-2.32996,3.19ZM37.60999,40.82996c-.19.14001-.42999.20001-.65997.16003-.23999-.03998-.46002-.16998-.60004-.37l-2.31995-3.16998c.47998-.39001.92999-.80005,1.35999-1.23004l2.42999,3.33002c.14996.20001.21002.44.16998.67999-.03998.23999-.16998.45001-.38.59998Z"/>
        <path d="M35.00049,23.9834c.54297-.09961.90283-.62061.80273-1.16406-1.04443-5.68945-6.0083-9.81934-11.80322-9.81934-6.6167,0-12,5.3833-12,12s5.3833,12,12,12c5.79492,0,10.75879-4.12988,11.80322-9.81934.1001-.54346-.25977-1.06445-.80273-1.16406-.54443-.1001-1.06445.26025-1.16406.80273-.80933,4.40906-4.44629,7.68964-8.83643,8.12708v-2.94641c0-.55225-.44775-1-1-1s-1,.44775-1,1v2.94934c-4.71729-.47058-8.47876-4.23206-8.94934-8.94934h2.94934c.55225,0,1-.44775,1-1s-.44775-1-1-1h-2.94934c.50342-5.04633,4.77271-9,9.94934-9,4.8291,0,8.96631,3.44043,9.83643,8.18066.09961.54297.62061.90479,1.16406.80273Z"/>
      </g>
    </g>
  </g>
</svg>