<?xml version="1.0" encoding="UTF-8"?>
<svg xmlns="http://www.w3.org/2000/svg" version="1.1" viewBox="0 0 48 48">
  <!-- Generator: Adobe Illustrator 28.7.1, SVG Export Plug-In . SVG Version: 1.2.0 Build 142)  -->
  <g>
    <g id="OUTLINE">
      <g>
        <path d="M42,37H10c-.15997,0-.31.03998-.45001.10999l-4,2c-.33997.15997-.54999.51001-.54999.89001s.21002.72998.54999.89001l4,2c.14001.06995.29004.10999.45001.10999h10c.54999,0,1-.45001,1-1s-.45001-1-1-1h-9.76001l-2-1,2-1h22.76001v2h-9c-.54999,0-1,.45001-1,1s.45001,1,1,1h18c.54999,0,1-.45001,1-1v-4c0-.54999-.45001-1-1-1ZM37,41h-2v-2h2v2ZM41,41h-2v-2h2v2Z"/>
        <path d="M42,24c.54999,0,1-.45001,1-1v-13c0-1.65002-1.34998-3-3-3h-5v-1c0-.54999-.45001-1-1-1h-4c-.54999,0-1,.45001-1,1v1h-2v-1c0-.54999-.45001-1-1-1h-4c-.54999,0-1,.45001-1,1v1h-2v-1c0-.54999-.45001-1-1-1h-4c-.54999,0-1,.45001-1,1v1h-5c-1.65002,0-3,1.34998-3,3v22c0,1.64996,1.34998,3,3,3h32c1.65002,0,3-1.35004,3-3v-5c0-.54999-.45001-1-1-1s-1,.45001-1,1v5c0,.54999-.45001,1-1,1H8c-.54999,0-1-.45001-1-1V15h34v8c0,.54999.45001,1,1,1ZM31,7h2v2h-2v-2ZM23,7h2v2h-2v-2ZM15,7h2v2h-2v-2ZM7,13v-3c0-.54999.45001-1,1-1h5v1c0,.54999.45001,1,1,1h4c.54999,0,1-.45001,1-1v-1h2v1c0,.54999.45001,1,1,1h4c.54999,0,1-.45001,1-1v-1h2v1c0,.54999.45001,1,1,1h4c.54999,0,1-.45001,1-1v-1h5c.54999,0,1,.45001,1,1v3H7Z"/>
        <path d="M15,18c0-.55225-.44727-1-1-1h-4c-.55273,0-1,.44775-1,1v4c0,.55225.44727,1,1,1h4c.55273,0,1-.44775,1-1v-4ZM13,21h-2v-2h2v2Z"/>
        <path d="M23,18c0-.55225-.44727-1-1-1h-4c-.55273,0-1,.44775-1,1v4c0,.55225.44727,1,1,1h4c.55273,0,1-.44775,1-1v-4ZM21,21h-2v-2h2v2Z"/>
        <path d="M22,25h-4c-.55273,0-1,.44775-1,1v4c0,.55225.44727,1,1,1h4c.55273,0,1-.44775,1-1v-4c0-.55225-.44727-1-1-1ZM21,29h-2v-2h2v2Z"/>
        <path d="M26,25c-.55273,0-1,.44775-1,1v4c0,.55225.44727,1,1,1h4c.55273,0,1-.44775,1-1v-4c0-.55225-.44727-1-1-1h-4ZM29,29h-2v-2h2v2Z"/>
        <path d="M14,25h-4c-.55273,0-1,.44775-1,1v4c0,.55225.44727,1,1,1h4c.55273,0,1-.44775,1-1v-4c0-.55225-.44727-1-1-1ZM13,29h-2v-2h2v2Z"/>
      </g>
    </g>
  </g>
</svg>