<?xml version="1.0" encoding="UTF-8"?>
<svg xmlns="http://www.w3.org/2000/svg" version="1.1" viewBox="0 0 48 48">
  <!-- Generator: Adobe Illustrator 28.7.1, SVG Export Plug-In . SVG Version: 1.2.0 Build 142)  -->
  <g>
    <g id="OUTLINE">
      <g>
        <path d="M11.29297,37.70703c.19531.19531.45117.29297.70703.29297s.51172-.09766.70703-.29297l4-4c.39062-.39062.39062-1.02344,0-1.41406s-1.02344-.39062-1.41406,0l-3.29297,3.29297-1.29297-1.29297c-.39062-.39062-1.02344-.39062-1.41406,0s-.39062,1.02344,0,1.41406l2,2Z"/>
        <path d="M40,8h-3c-.54999,0-1,.45001-1,1s.45001,1,1,1h3c.54999,0,1,.45001,1,1v4H9v-4c0-.54999.45001-1,1-1h1v2c0,.54999.45001,1,1,1h4c.54999,0,1-.45001,1-1v-2h2v2c0,.54999.45001,1,1,1h4c.54999,0,1-.45001,1-1v-2h8c.54999,0,1-.45001,1-1s-.45001-1-1-1h-8v-2c0-.54999-.45001-1-1-1h-4c-.54999,0-1,.45001-1,1v2h-2v-2c0-.54999-.45001-1-1-1h-4c-.54999,0-1,.45001-1,1v2h-1c-1.65002,0-3,1.34998-3,3v18.72998c-1.23999,1.41003-2,3.25-2,5.27002,0,4.40997,3.59003,8,8,8,2.02002,0,3.85999-.76001,5.27002-2h6.72998c.54999,0,1-.45001,1-1s-.45001-1-1-1h-5.08002c.67999-1.17999,1.08002-2.54004,1.08002-4,0-4.41003-3.59003-8-8-8-1.46002,0-2.82001.39996-4,1.07996v-11.07996h32v21c0,.54999-.45001,1-1,1h-11c-.54999,0-1,.45001-1,1s.45001,1,1,1h11c1.65002,0,3-1.35004,3-3V11c0-1.65002-1.34998-3-3-3ZM21,7h2v4h-2v-4ZM13,7h2v4h-2v-4ZM13,29c3.31,0,6,2.69,6,6,0,3.25482-2.75134,6-6,6-3.31,0-6-2.69-6-6,0-1.63.65002-3.10004,1.71002-4.17999,1.08997-1.12,2.60999-1.82001,4.28998-1.82001Z"/>
        <path d="M34,25h4c.55225,0,1-.44775,1-1v-4c0-.55225-.44775-1-1-1h-4c-.55225,0-1,.44775-1,1v4c0,.55225.44775,1,1,1ZM35,21h2v2h-2v-2Z"/>
        <path d="M26,25h4c.55225,0,1-.44775,1-1v-4c0-.55225-.44775-1-1-1h-4c-.55225,0-1,.44775-1,1v4c0,.55225.44775,1,1,1ZM27,21h2v2h-2v-2Z"/>
        <path d="M25,32c0,.55225.44775,1,1,1h4c.55225,0,1-.44775,1-1v-4c0-.55225-.44775-1-1-1h-4c-.55225,0-1,.44775-1,1v4ZM27,29h2v2h-2v-2Z"/>
        <path d="M33,32c0,.55225.44775,1,1,1h4c.55225,0,1-.44775,1-1v-4c0-.55225-.44775-1-1-1h-4c-.55225,0-1,.44775-1,1v4ZM35,29h2v2h-2v-2Z"/>
      </g>
    </g>
  </g>
</svg>