<?xml version="1.0" encoding="UTF-8"?>
<svg xmlns="http://www.w3.org/2000/svg" version="1.1" viewBox="0 0 48 48">
  <!-- Generator: Adobe Illustrator 28.7.1, SVG Export Plug-In . SVG Version: 1.2.0 Build 142)  -->
  <g>
    <g id="OUTLINE">
      <g>
        <path d="M14,29c-.55273,0-1,.44775-1,1v4c0,.55225.44727,1,1,1s1-.44775,1-1v-4c0-.55225-.44727-1-1-1Z"/>
        <circle cx="14" cy="38" r="1"/>
        <path d="M40,8h-1v-2c0-.54999-.45001-1-1-1h-4c-.54999,0-1,.45001-1,1v2h-2v-2c0-.54999-.45001-1-1-1h-4c-.54999,0-1,.45001-1,1v2h-2v-2c0-.54999-.45001-1-1-1h-4c-.54999,0-1,.45001-1,1v2h-7c-1.65002,0-3,1.34998-3,3v17.35999c-1.25,1.53998-2,3.5-2,5.64001,0,4.95996,4.03998,9,9,9,2.14001,0,4.09998-.75,5.64001-2h11.35999c.54999,0,1-.45001,1-1s-.45001-1-1-1h-9.52002c.41003-.62.73999-1.29004.98999-2h18.53003v1c0,.54999-.45001,1-1,1h-5c-.54999,0-1,.45001-1,1s.45001,1,1,1h5c1.65002,0,3-1.35004,3-3V11c0-1.65002-1.34998-3-3-3ZM35,7h2v4h-2v-4ZM27,7h2v4h-2v-4ZM19,7h2v4h-2v-4ZM14,41c-3.85999,0-7-3.14001-7-7s3.14001-7,7-7,7,3.14001,7,7-3.14001,7-7,7ZM41,15h-19c-.54999,0-1,.45001-1,1s.45001,1,1,1h19v18h-18.06c.03998-.33002.06-.66003.06-1,0-4.96002-4.03998-9-9-9-1.84998,0-3.57001.56-5,1.51996v-9.51996h9c.54999,0,1-.45001,1-1s-.45001-1-1-1h-9v-4c0-.54999.45001-1,1-1h7v2c0,.54999.45001,1,1,1h4c.54999,0,1-.45001,1-1v-2h2v2c0,.54999.45001,1,1,1h4c.54999,0,1-.45001,1-1v-2h2v2c0,.54999.45001,1,1,1h4c.54999,0,1-.45001,1-1v-2h1c.54999,0,1,.45001,1,1v4Z"/>
        <path d="M34,25h4c.55273,0,1-.44775,1-1v-4c0-.55225-.44727-1-1-1h-4c-.55273,0-1,.44775-1,1v4c0,.55225.44727,1,1,1ZM35,21h2v2h-2v-2Z"/>
        <path d="M26,33h4c.55273,0,1-.44775,1-1v-4c0-.55225-.44727-1-1-1h-4c-.55273,0-1,.44775-1,1v4c0,.55225.44727,1,1,1ZM27,29h2v2h-2v-2Z"/>
        <path d="M34,33h4c.55273,0,1-.44775,1-1v-4c0-.55225-.44727-1-1-1h-4c-.55273,0-1,.44775-1,1v4c0,.55225.44727,1,1,1ZM35,29h2v2h-2v-2Z"/>
      </g>
    </g>
  </g>
</svg>