<?xml version="1.0" encoding="UTF-8"?>
<svg xmlns="http://www.w3.org/2000/svg" version="1.1" viewBox="0 0 48 48">
  <!-- Generator: Adobe Illustrator 28.7.1, SVG Export Plug-In . SVG Version: 1.2.0 Build 142)  -->
  <g>
    <g id="OUTLINE">
      <g>
        <path d="M42,26c-.54999,0-1,.45001-1,1v7h-14v-9c0-1.65002-1.34998-3-3-3h-1v-1c0-.54999-.45001-1-1-1h-8c-.54999,0-1,.45001-1,1v1h-1c-1.65002,0-3,1.34998-3,3v13h-1c-.54999,0-1-.45001-1-1v-17c0-.54999-.45001-1-1-1s-1,.45001-1,1v17c0,1.64996,1.34998,3,3,3h1c0,1.64996,1.34998,3,3,3h12c1.65002,0,3-1.35004,3-3h13c1.65002,0,3-1.35004,3-3v-10c0-.54999-.45001-1-1-1ZM15,22h6v2h-6v-2ZM25,40c0,.54999-.45001,1-1,1h-12c-.54999,0-1-.45001-1-1v-15c0-.54999.45001-1,1-1h1v1c0,.54999.45001,1,1,1h8c.54999,0,1-.45001,1-1v-1h1c.54999,0,1,.45001,1,1v15ZM41,37c0,.54999-.45001,1-1,1h-13v-2h14v1Z"/>
        <path d="M40,7h-5v-1c0-.55273-.44775-1-1-1h-4c-.55225,0-1,.44727-1,1v1h-2v-1c0-.55273-.44775-1-1-1h-4c-.55225,0-1,.44727-1,1v1h-2v-1c0-.55273-.44775-1-1-1h-4c-.55225,0-1,.44727-1,1v1h-5c-1.6543,0-3,1.3457-3,3v6c0,.55273.44775,1,1,1s1-.44727,1-1v-6c0-.55176.44873-1,1-1h5v1c0,.55273.44775,1,1,1h4c.55225,0,1-.44727,1-1v-1h2v1c0,.55273.44775,1,1,1h4c.55225,0,1-.44727,1-1v-1h2v1c0,.55273.44775,1,1,1h4c.55225,0,1-.44727,1-1v-1h5c.55127,0,1,.44824,1,1v13c0,.55273.44775,1,1,1s1-.44727,1-1v-13c0-1.6543-1.3457-3-3-3ZM17,9h-2v-2h2v2ZM25,9h-2v-2h2v2ZM33,9h-2v-2h2v2Z"/>
        <path d="M14,30h6c.55225,0,1-.44727,1-1s-.44775-1-1-1h-6c-.55225,0-1,.44727-1,1s.44775,1,1,1Z"/>
        <path d="M22,32h-8c-.55225,0-1,.44727-1,1s.44775,1,1,1h8c.55225,0,1-.44727,1-1s-.44775-1-1-1Z"/>
        <path d="M38,15c.55225,0,1-.44727,1-1s-.44775-1-1-1h-6c-.55225,0-1,.44727-1,1s.44775,1,1,1h6Z"/>
        <path d="M27,18c0,.55273.44775,1,1,1h10c.55225,0,1-.44727,1-1s-.44775-1-1-1h-10c-.55225,0-1,.44727-1,1Z"/>
      </g>
    </g>
  </g>
</svg>