<?xml version="1.0" encoding="UTF-8"?>
<svg xmlns="http://www.w3.org/2000/svg" version="1.1" viewBox="0 0 48 48">
  <!-- Generator: Adobe Illustrator 28.7.1, SVG Export Plug-In . SVG Version: 1.2.0 Build 142)  -->
  <g>
    <g id="OUTLINE">
      <g>
        <path d="M42,26c.54999,0,1-.45001,1-1v-14c0-1.65002-1.34998-3-3-3h-1v-2c0-.54999-.45001-1-1-1h-4c-.54999,0-1,.45001-1,1v2h-2v-2c0-.54999-.45001-1-1-1h-4c-.54999,0-1,.45001-1,1v2h-5c-.54999,0-1,.45001-1,1s.45001,1,1,1h5v2c0,.54999.45001,1,1,1h4c.54999,0,1-.45001,1-1v-2h2v2c0,.54999.45001,1,1,1h4c.54999,0,1-.45001,1-1v-2h1c.54999,0,1,.45001,1,1v4H9v-4c0-.54999.45001-1,1-1h6c.54999,0,1-.45001,1-1s-.45001-1-1-1h-6c-1.65002,0-3,1.34998-3,3v18.72998c-1.23999,1.41003-2,3.25-2,5.27002,0,4.40997,3.59003,8,8,8,2.02002,0,3.85999-.76001,5.27002-2h21.72998c1.65002,0,3-1.35004,3-3v-9c0-.54999-.45001-1-1-1s-1,.45001-1,1v6h-20c0-4.41003-3.59003-8-8-8-1.46002,0-2.82001.39996-4,1.07996v-11.07996h32v8c0,.54999.45001,1,1,1ZM29,11h-2v-4h2v4ZM37,11h-2v-4h2v4ZM20.73999,37h20.26001v1c0,.54999-.45001,1-1,1h-20.08002c.36005-.62.63-1.29004.82001-2ZM13,29c3.31,0,6,2.69,6,6s-2.69,6-6,6-6-2.69-6-6c0-1.63.65002-3.10004,1.71002-4.17999,1.08997-1.12,2.60999-1.82001,4.28998-1.82001Z"/>
        <path d="M10,36h3c.55225,0,1-.44775,1-1v-3c0-.55225-.44775-1-1-1s-1,.44775-1,1v2h-2c-.55225,0-1,.44775-1,1s.44775,1,1,1Z"/>
        <path d="M39,20c0-.55225-.44775-1-1-1h-4c-.55225,0-1,.44775-1,1v4c0,.55225.44775,1,1,1h4c.55225,0,1-.44775,1-1v-4ZM37,23h-2v-2h2v2Z"/>
        <path d="M31,20c0-.55225-.44775-1-1-1h-4c-.55225,0-1,.44775-1,1v4c0,.55225.44775,1,1,1h4c.55225,0,1-.44775,1-1v-4ZM29,23h-2v-2h2v2Z"/>
        <path d="M18,19c-.55225,0-1,.44775-1,1v4c0,.55225.44775,1,1,1h4c.55225,0,1-.44775,1-1v-4c0-.55225-.44775-1-1-1h-4ZM21,23h-2v-2h2v2Z"/>
        <path d="M30,27h-4c-.55225,0-1,.44775-1,1v4c0,.55225.44775,1,1,1h4c.55225,0,1-.44775,1-1v-4c0-.55225-.44775-1-1-1ZM29,31h-2v-2h2v2Z"/>
        <path d="M38,27h-4c-.55225,0-1,.44775-1,1v4c0,.55225.44775,1,1,1h4c.55225,0,1-.44775,1-1v-4c0-.55225-.44775-1-1-1ZM37,31h-2v-2h2v2Z"/>
      </g>
    </g>
  </g>
</svg>