<?xml version="1.0" encoding="UTF-8"?>
<svg xmlns="http://www.w3.org/2000/svg" version="1.1" viewBox="0 0 48 48">
  <!-- Generator: Adobe Illustrator 28.7.1, SVG Export Plug-In . SVG Version: 1.2.0 Build 142)  -->
  <g>
    <g id="OUTLINE">
      <g>
        <path d="M12,32v2h-2c-.55273,0-1,.44727-1,1s.44727,1,1,1h3c.55273,0,1-.44727,1-1v-3c0-.55273-.44727-1-1-1s-1,.44727-1,1Z"/>
        <path d="M42,20c.54999,0,1-.45001,1-1v-11c0-1.65002-1.34998-3-3-3h-24c-1.65002,0-3,1.34998-3,3v19c-4.40997,0-8,3.58997-8,8s3.59003,8,8,8h29c.54999,0,1-.45001,1-1v-19c0-.54999-.45001-1-1-1s-1,.45001-1,1v18h-2V10c0-.54999-.45001-1-1-1h-6c-.54999,0-1,.45001-1,1s.45001,1,1,1h5v30h-18.72998c1.66998-1.47003,2.72998-3.60999,2.72998-6,0-2.02002-.76001-3.85999-2-5.27002V11h9c.54999,0,1-.45001,1-1s-.45001-1-1-1h-10c-.54999,0-1,.45001-1,1v18.07996c-.62-.35999-1.28998-.62994-2-.81995V8c0-.54999.45001-1,1-1h24c.54999,0,1,.45001,1,1v11c0,.54999.45001,1,1,1ZM19,35c0,3.31-2.69,6-6,6s-6-2.69-6-6,2.69-6,6-6,6,2.69,6,6Z"/>
        <path d="M35,29v-6c0-.55273-.44727-1-1-1s-1,.44727-1,1v6c0,.55273.44727,1,1,1s1-.44727,1-1Z"/>
      </g>
    </g>
  </g>
</svg>