<?xml version="1.0" encoding="UTF-8"?>
<svg xmlns="http://www.w3.org/2000/svg" version="1.1" viewBox="0 0 48 48">
  <!-- Generator: Adobe Illustrator 28.7.1, SVG Export Plug-In . SVG Version: 1.2.0 Build 142)  -->
  <g>
    <g id="OUTLINE">
      <g>
        <path d="M39.97998,19h-1v-11c0-1.65002-1.34998-3-3-3h-7.97998c-.54999,0-1,.45001-1,1s.45001,1,1,1h7.97998c.55005,0,1,.45001,1,1v20.39001l-12.97998,6.48999-13.02002-6.5V8c0-.54999.45001-1,1-1h12.02002c.54999,0,1-.45001,1-1s-.45001-1-1-1h-12.02002c-1.65997,0-3,1.34998-3,3v11h-1c-1.65997,0-3,1.34998-3,3v18c0,1.64996,1.34003,3,3,3h12.02002c.54999,0,1-.45001,1-1s-.45001-1-1-1h-11.40997l9.64996-6.76001,5.31,2.65002c.14001.06995.29999.10999.45001.10999s.31-.04004.45001-.10999l5.29999-2.65002,9.64001,6.76001h-15.39001c-.54999,0-1,.45001-1,1s.45001,1,1,1h15.97998c1.65002,0,3-1.35004,3-3v-18c0-1.65002-1.34998-3-3-3ZM6.97998,22c0-.54999.45001-1,1-1h1v6.38l-2-1v-4.38ZM6.97998,39.69v-11.07001l9.23004,4.60999-9.23004,6.46002ZM40.97998,39.66998l-9.19-6.45001,9.19-4.58997v11.03998ZM40.97998,26.39001l-2,1v-6.39001h1c.55005,0,1,.45001,1,1v4.39001Z"/>
        <path d="M24,14c-2.20557,0-4,1.79395-4,4,0,1.04498.40198,2.57178,1.11542,3.82434l-4.56268,2.28113c-.2373.11914-.41748.32715-.50146.57812-.08398.25195-.06445.52637.0542.76367l2,4c.16943.33887.51562.55273.89453.55273h10c.37891,0,.7251-.21387.89453-.55273l2-4c.11865-.2373.13818-.51172.0542-.76367-.08398-.25098-.26416-.45898-.50146-.57812l-4.56268-2.28113c.71344-1.25256,1.11542-2.77936,1.11542-3.82434,0-2.20605-1.79443-4-4-4ZM24,16c1.10303,0,2,.89746,2,2,0,1.49512-1.25244,4-2,4s-2-2.50488-2-4c0-1.10254.89697-2,2-2ZM29.6582,25.44727l-1.27637,2.55273h-8.76367l-1.27637-2.55273,4.08014-2.03986c.47089.36584.9986.59259,1.57806.59259s1.10718-.22675,1.57806-.59259l4.08014,2.03986Z"/>
        <path d="M14,11h4c.55225,0,1-.44727,1-1s-.44775-1-1-1h-4c-.55225,0-1,.44727-1,1s.44775,1,1,1Z"/>
        <path d="M14,15h5c.55225,0,1-.44727,1-1s-.44775-1-1-1h-5c-.55225,0-1,.44727-1,1s.44775,1,1,1Z"/>
        <path d="M34,11c.55225,0,1-.44727,1-1s-.44775-1-1-1h-4c-.55225,0-1,.44727-1,1s.44775,1,1,1h4Z"/>
        <path d="M28,14c0,.55273.44775,1,1,1h5c.55225,0,1-.44727,1-1s-.44775-1-1-1h-5c-.55225,0-1,.44727-1,1Z"/>
      </g>
    </g>
  </g>
</svg>