<?xml version="1.0" encoding="UTF-8"?>
<svg xmlns="http://www.w3.org/2000/svg" version="1.1" viewBox="0 0 48 48">
  <!-- Generator: Adobe Illustrator 28.7.1, SVG Export Plug-In . SVG Version: 1.2.0 Build 142)  -->
  <g>
    <g id="OUTLINE">
      <g>
        <path d="M29.75195,15.28516c.15625.52832.71191.83252,1.24316.67334.5293-.15771.83105-.71436.67285-1.24365-1.01758-3.41846-4.09863-5.71484-7.66797-5.71484-4.41113,0-8,3.58887-8,8s3.58887,8,8,8c3.56934,0,6.65039-2.29639,7.66797-5.71484.1582-.5293-.14355-1.08594-.67285-1.24365-.53027-.1582-1.08691.14502-1.24316.67334-.76367,2.56299-3.0752,4.28516-5.75195,4.28516-3.30859,0-6-2.69141-6-6s2.69141-6,6-6c2.67676,0,4.98828,1.72217,5.75195,4.28516Z"/>
        <path d="M23,14v2h-2c-.55273,0-1,.44775-1,1s.44727,1,1,1h3c.55273,0,1-.44775,1-1v-3c0-.55225-.44727-1-1-1s-1,.44775-1,1Z"/>
        <path d="M33.46997,24.29999c1.47003-2.67999,2.53003-5.29999,2.53003-7.29999,0-5.79004-4.13-10.76001-9.82001-11.79999-.53998-.10004-1.06.25995-1.15997.79999-.10004.53998.26001,1.06.79999,1.15997,4.73999.88,8.17999,5.01001,8.17999,9.84003,0,4.32001-6.63,13.32001-10,17.44-3.37-4.12-10-13.12-10-17.44,0-4.83002,3.44-8.96002,8.17999-9.84003.53998-.09998.90002-.62.79999-1.15997-.09998-.54004-.62-.90002-1.15997-.79999-5.69,1.03998-9.82001,6.00995-9.82001,11.79999,0,2,1.06,4.62,2.53003,7.29999-5.91003,1.76001-9.53003,5.02002-9.53003,8.70001,0,5.60999,8.34998,10,19,10s19-4.39001,19-10c0-3.67999-3.62-6.94-9.53003-8.70001ZM24,41c-9.21002,0-17-3.66003-17-8,0-2.79004,3.34003-5.46002,8.57001-6.91003,3.17999,5.26001,7.39001,10.23004,7.66998,10.56.19.22003.47003.35004.76001.35004s.57001-.13.76001-.35004c.27997-.32996,4.48999-5.29999,7.66998-10.56,5.22998,1.45001,8.57001,4.12,8.57001,6.91003,0,4.33997-7.78998,8-17,8Z"/>
        <path d="M6,13h4c.55273,0,1-.44775,1-1s-.44727-1-1-1h-4c-.55273,0-1,.44775-1,1s.44727,1,1,1Z"/>
        <path d="M6.55273,6.89453s3.99396,1.99695,4,2c.47113.23553,1.09546.04407,1.3418-.44727.24707-.49414.04688-1.09473-.44727-1.3418l-4-2c-.49414-.24805-1.09473-.04736-1.3418.44727-.24707.49414-.04688,1.09473.44727,1.3418Z"/>
        <path d="M37,12c0,.55225.44727,1,1,1h4c.55273,0,1-.44775,1-1s-.44727-1-1-1h-4c-.55273,0-1,.44775-1,1Z"/>
        <path d="M37.00098,8.99744c.15125.0011.30414-.03186.44629-.10291l4-2c.49414-.24707.69434-.84766.44727-1.3418-.24707-.49463-.84766-.69531-1.3418-.44727l-4,2c-.92029.46014-.58081,1.88434.44824,1.89197Z"/>
      </g>
    </g>
  </g>
</svg>