<?xml version="1.0" encoding="UTF-8"?>
<svg xmlns="http://www.w3.org/2000/svg" version="1.1" viewBox="0 0 48 48">
  <!-- Generator: Adobe Illustrator 28.7.1, SVG Export Plug-In . SVG Version: 1.2.0 Build 142)  -->
  <g>
    <g id="OUTLINE">
      <g>
        <path d="M42,35h-10c-.19727,0-.39062.05859-.55469.16797l-2.74805,1.83203h-9.39453l-2.74805-1.83203c-.16406-.10938-.35742-.16797-.55469-.16797H6c-.55225,0-1,.44727-1,1v2c0,2.75684,2.24316,5,5,5h10c.55225,0,1-.44727,1-1s-.44775-1-1-1h-10c-1.6543,0-3-1.3457-3-3v-1h8.69727l2.74805,1.83203c.16406.10938.35742.16797.55469.16797h10c.19727,0,.39062-.05859.55469-.16797l2.74805-1.83203h8.69727v1c0,1.6543-1.3457,3-3,3h-14c-.55225,0-1,.44727-1,1s.44775,1,1,1h14c2.75684,0,5-2.24316,5-5v-2c0-.55273-.44775-1-1-1Z"/>
        <path d="M42,18c.54999,0,1-.45001,1-1v-9c0-1.65002-1.34998-3-3-3H8c-1.65002,0-3,1.34998-3,3v22c0,1.64996,1.34998,3,3,3h32c1.65002,0,3-1.35004,3-3v-9c0-.54999-.45001-1-1-1s-1,.45001-1,1v9c0,.54999-.45001,1-1,1H8c-.54999,0-1-.45001-1-1V8c0-.54999.45001-1,1-1h32c.54999,0,1,.45001,1,1v9c0,.54999.45001,1,1,1Z"/>
        <path d="M12,19h-2c-.54999,0-1,.45001-1,1v8c0,.54999.45001,1,1,1h2c1.65002,0,3-1.35004,3-3,0-.77002-.29999-1.47003-.78003-2,.48004-.53003.78003-1.23004.78003-2,0-1.65002-1.34998-3-3-3ZM12,27h-1v-2h1c.54999,0,1,.45001,1,1s-.45001,1-1,1ZM12,23h-1v-2h1c.54999,0,1,.45001,1,1s-.45001,1-1,1Z"/>
        <path d="M20,29c1.6543,0,3-1.3457,3-3v-4c0-1.6543-1.3457-3-3-3s-3,1.3457-3,3v4c0,1.6543,1.3457,3,3,3ZM19,22c0-.55176.44873-1,1-1s1,.44824,1,1v4c0,.55176-.44873,1-1,1s-1-.44824-1-1v-4Z"/>
        <path d="M25,22v4c0,1.6543,1.3457,3,3,3s3-1.3457,3-3v-4c0-1.6543-1.3457-3-3-3s-3,1.3457-3,3ZM29,22v4c0,.55176-.44873,1-1,1s-1-.44824-1-1v-4c0-.55176.44873-1,1-1s1,.44824,1,1Z"/>
        <path d="M34,19c-.54999,0-1,.45001-1,1v8c0,.54999.45001,1,1,1s1-.45001,1-1v-2.65002l.75-.94,1.29999,3.91003c.17944.53833.7442.77325,1.26996.63.52008-.18005.80005-.74005.63007-1.27002l-1.71002-5.13,1.54004-1.92999c.34998-.42999.27997-1.06-.16003-1.40002-.42999-.33997-1.06-.27997-1.40002.16003l-2.21997,2.76996v-2.14996c0-.54999-.45001-1-1-1Z"/>
        <path d="M10,11h6c.55225,0,1-.44727,1-1s-.44775-1-1-1h-6c-.55225,0-1,.44727-1,1s.44775,1,1,1Z"/>
        <path d="M19,14c0-.55273-.44775-1-1-1h-8c-.55225,0-1,.44727-1,1s.44775,1,1,1h8c.55225,0,1-.44727,1-1Z"/>
      </g>
    </g>
  </g>
</svg>