<?xml version="1.0" encoding="UTF-8"?>
<svg xmlns="http://www.w3.org/2000/svg" version="1.1" viewBox="0 0 48 48">
  <!-- Generator: Adobe Illustrator 28.7.1, SVG Export Plug-In . SVG Version: 1.2.0 Build 142)  -->
  <g>
    <g id="OUTLINE">
      <g>
        <path d="M24.45001,29.10999l-4.57001-2.28998c.71997-1.25,1.12-2.78003,1.12-3.82001,0-2.21002-1.78998-4-4-4s-4,1.78998-4,4c0,1.03998.40002,2.57001,1.12,3.82001l-4.57001,2.28998c-.22998.10999-.40997.32001-.5.57001-.08002.26001-.06.52997.06.77002l2,4c.16003.33997.51001.54999.89001.54999h10c.38,0,.72998-.21002.89001-.54999l2-4c.12-.24005.14001-.51001.06-.77002-.09003-.25-.27002-.46002-.5-.57001ZM17,21c1.09998,0,2,.89996,2,2,0,1.5-1.25,4-2,4s-2-2.5-2-4c0-1.10004.90002-2,2-2ZM21.38,33h-8.76001l-1.27997-2.54999,4.07996-2.04004c.47003.35999,1,.59003,1.58002.59003s1.10999-.23004,1.58002-.59003l4.07996,2.04004-1.27997,2.54999Z"/>
        <path d="M40,7h-5v-1c0-.54999-.45001-1-1-1h-4c-.54999,0-1,.45001-1,1v1h-2v-1c0-.54999-.45001-1-1-1h-4c-.54999,0-1,.45001-1,1v1h-2v-1c0-.54999-.45001-1-1-1h-4c-.54999,0-1,.45001-1,1v1h-5c-1.65002,0-3,1.34998-3,3v30c0,1.64996,1.34998,3,3,3h12c.54999,0,1-.45001,1-1s-.45001-1-1-1h-12c-.54999,0-1-.45001-1-1v-1h34v1c0,.54999-.45001,1-1,1h-16c-.54999,0-1,.45001-1,1s.45001,1,1,1h16c1.65002,0,3-1.35004,3-3V10c0-1.65002-1.34998-3-3-3ZM31,7h2v4h-2v-4ZM23,7h2v4h-2v-4ZM15,7h2v4h-2v-4ZM41,15h-12c-.54999,0-1,.45001-1,1s.45001,1,1,1h12v20H7v-20h18c.54999,0,1-.45001,1-1s-.45001-1-1-1H7v-5c0-.54999.45001-1,1-1h5v3c0,.54999.45001,1,1,1h4c.54999,0,1-.45001,1-1v-3h2v3c0,.54999.45001,1,1,1h4c.54999,0,1-.45001,1-1v-3h2v3c0,.54999.45001,1,1,1h4c.54999,0,1-.45001,1-1v-3h5c.54999,0,1,.45001,1,1v5Z"/>
        <path d="M32,21h6c.55225,0,1-.44775,1-1s-.44775-1-1-1h-6c-.55225,0-1,.44775-1,1s.44775,1,1,1Z"/>
        <path d="M30,25h8c.55225,0,1-.44775,1-1s-.44775-1-1-1h-8c-.55225,0-1,.44775-1,1s.44775,1,1,1Z"/>
      </g>
    </g>
  </g>
</svg>