<?xml version="1.0" encoding="UTF-8"?>
<svg xmlns="http://www.w3.org/2000/svg" version="1.1" viewBox="0 0 48 48">
  <!-- Generator: Adobe Illustrator 28.7.1, SVG Export Plug-In . SVG Version: 1.2.0 Build 142)  -->
  <g>
    <g id="OUTLINE">
      <g>
        <path d="M25.43359,30.52002c.7539-.75342.7539-1.97949.00098-2.7334l-1.97754-1.98096c-.73047-.73047-2.00098-.73096-2.7334.00049l-.56152.66016-2.63574-2.54688.65918-.66016c.75293-.75391.75195-1.97998,0-2.73291l-1.97754-1.97998c-.72754-.73096-2.00391-.73145-2.7334-.00049l-2.63672,2.64014c-1.11523,1.11768-1.11523,2.93555,0,4.05322l7.90918,7.9209c.54102.5415,1.26074.83984,2.02539.83984h.00098c.76562-.00049,1.48438-.29883,2.02539-.84033l2.63477-2.63965ZM20.77344,32h-.00098c-.23047,0-.44727-.09033-.61035-.25342l-7.9082-7.92041c-.33789-.33838-.33789-.88867,0-1.22705l2.53809-2.64014,1.97754,1.88721-.6582.65967c-.75391.75391-.75391,1.97998-.00098,2.7334l2.63574,2.64014c.73047.73145,2.00391.73145,2.73438,0l.56152-.66016,1.93066,1.93359-2.58984,2.59375c-.16309.16309-.37891.25342-.60938.25342Z"/>
        <path d="M42,29c-.54999,0-1,.45001-1,1v9c0,.54999-.45001,1-1,1h-18.96997l1.59998-1.85999c5.02002-1.92004,8.37-6.76001,8.37-12.14001,0-7.17004-5.83002-13-13-13-3.48999,0-6.65997,1.39001-9,3.64001v-8.64001c0-.54999.45001-1,1-1h13c.54999,0,1-.45001,1-1s-.45001-1-1-1h-13c-1.65002,0-3,1.34998-3,3v11.09998c-1.26001,2.01001-2,4.37-2,6.90002,0,2.48999.72998,4.87,2,6.89001v6.10999c0,1.64996,1.34998,3,3,3h6.67999l.56.64996c.19.22003.47003.35004.76001.35004s.57001-.13.76001-.35004l.56-.64996h20.67999c1.65002,0,3-1.35004,3-3v-9c0-.54999-.45001-1-1-1ZM10,40c-.54999,0-1-.45001-1-1v-3.65002c1.23999,1.19,2.71002,2.15002,4.37,2.79004l1.59998,1.85999h-4.96997ZM18,40.45996l-3.28003-3.81995c-.10999-.13-.25995-.23004-.41998-.29004-4.37-1.57001-7.29999-5.71997-7.29999-10.34998,0-6.07001,4.92999-11,11-11s11,4.92999,11,11c0,4.63-2.92999,8.77997-7.29999,10.34998-.16003.06-.31.16003-.41998.29004l-3.28003,3.81995Z"/>
        <path d="M40,5h-13c-.55273,0-1,.44775-1,1s.44727,1,1,1h13c.55176,0,1,.44873,1,1v18c0,.55225.44727,1,1,1s1-.44775,1-1V8c0-1.6543-1.3457-3-3-3Z"/>
        <path d="M35.82324,14.23682l-3.53027,1.87939c-.48724.2597-.67279.86505-.41321,1.35229.24438.45868.86725.67188,1.35266.41333l3.53027-1.87939c.4873-.25977.67285-.86523.41309-1.35254-.25977-.48779-.86523-.67188-1.35254-.41309Z"/>
        <path d="M31.77539,9.71387l-2.59082,3.64502c-.31934.44971-.21387,1.07422.23633,1.39404.44641.31744,1.07648.21069,1.39453-.23535l2.59082-3.64551c.31934-.44971.21387-1.07422-.23633-1.39404-.45117-.3208-1.07422-.21436-1.39453.23584Z"/>
        <path d="M32.75879,21.02539c.01465.54346.45898.97461,1,.97461.00781,0,.0166,0,.02539-.00049l4.4707-.11426c.55273-.01416.98828-.47314.97461-1.0249-.01465-.54346-.45898-.97461-1-.97461-.00781,0-.0166,0-.02539.00049l-4.4707.11426c-.55273.01416-.98828.47314-.97461,1.0249Z"/>
      </g>
    </g>
  </g>
</svg>