<?xml version="1.0" encoding="UTF-8"?>
<svg xmlns="http://www.w3.org/2000/svg" version="1.1" viewBox="0 0 48 48">
  <!-- Generator: Adobe Illustrator 28.7.1, SVG Export Plug-In . SVG Version: 1.2.0 Build 142)  -->
  <g>
    <g id="OUTLINE">
      <path d="M42,25c.54999,0,1-.45001,1-1v-4c0-.54999-.45001-1-1-1h-6v-2h2c1.09998,0,2-.90002,2-2v-6c0-1.10004-.90002-2-2-2h-10c-1.09998,0-2,.89996-2,2v6c0,1.09998.90002,2,2,2h2v2h-7.06l1-2.65002c.17999-.47998-.03003-1.02002-.48999-1.23999l-4.57001-2.28998c.71997-1.25,1.12-2.78003,1.12-3.82001,0-2.21002-1.78998-4-4-4s-4,1.78998-4,4c0,1.03998.40002,2.57001,1.12,3.82001l-4.57001,2.28998c-.45996.21997-.66998.76001-.48999,1.23999l1,2.65002h-3.06c-.54999,0-1,.45001-1,1v4c0,.54999.45001,1,1,1h1v10h-1c-.54999,0-1,.45001-1,1v4c0,.54999.45001,1,1,1h14c.54999,0,1-.45001,1-1s-.45001-1-1-1H7v-2h34v2h-17c-.54999,0-1,.45001-1,1s.45001,1,1,1h18c.54999,0,1-.45001,1-1v-4c0-.54999-.45001-1-1-1h-1v-10h1ZM28,15v-6h10v6h-10ZM34,17v2h-2v-2h2ZM16,7c1.09998,0,2,.89996,2,2,0,1.5-1.25,4-2,4s-2-2.5-2-4c0-1.10004.90002-2,2-2ZM14.41998,14.40997c.47003.35999,1,.59003,1.58002.59003s1.10999-.23004,1.58002-.59003l4.16998,2.08002-.94,2.51001h-9.62l-.94-2.51001,4.16998-2.08002ZM39,35H9v-2h30v2ZM27,23c-.54999,0-1,.45001-1,1s.45001,1,1,1h12v6H9v-6h14c.54999,0,1-.45001,1-1s-.45001-1-1-1H7v-2h34v2h-14Z"/>
    </g>
  </g>
</svg>