<?xml version="1.0" encoding="UTF-8"?>
<svg xmlns="http://www.w3.org/2000/svg" version="1.1" viewBox="0 0 48 48">
  <!-- Generator: Adobe Illustrator 28.7.1, SVG Export Plug-In . SVG Version: 1.2.0 Build 142)  -->
  <g>
    <g id="OUTLINE">
      <g>
        <path d="M42,22c.54999,0,1-.45001,1-1v-13c0-1.65002-1.34998-3-3-3H8c-1.65002,0-3,1.34998-3,3v29c0,1.64996,1.34998,3,3,3h10.65002l4.72998,3.77997c.17999.15002.40002.22003.62.22003s.44-.07001.62-.22003l4.72998-3.77997h10.65002c1.65002,0,3-1.35004,3-3v-12c0-.54999-.45001-1-1-1s-1,.45001-1,1v12c0,.54999-.45001,1-1,1h-11c-.22998,0-.45001.07996-.62.21997l-4.38,3.5-4.38-3.5c-.16998-.14001-.39001-.21997-.62-.21997h-11c-.54999,0-1-.45001-1-1V8c0-.54999.45001-1,1-1h32c.54999,0,1,.45001,1,1v13c0,.54999.45001,1,1,1Z"/>
        <path d="M10.99805,24.01172c-.5459.08398-.91992.59473-.83594,1.14062,1.04102,6.75391,6.98926,11.84766,13.83789,11.84766,7.71973,0,14-6.28027,14-14s-6.28027-14-14-14c-6.84863,0-12.79688,5.09375-13.83789,11.84766-.08398.5459.29004,1.05664.83594,1.14062s1.05664-.29004,1.14062-.83594c.8916-5.78809,5.99121-10.15234,11.86133-10.15234,6.61719,0,12,5.38281,12,12s-5.38281,12-12,12c-5.87012,0-10.96973-4.36426-11.86133-10.15234-.08398-.5459-.59375-.91895-1.14062-.83594Z"/>
        <path d="M24,33c5.51001,0,10-4.48999,10-10s-4.48999-10-10-10-10,4.48999-10,10,4.48999,10,10,10ZM24,15c4.40997,0,8,3.58997,8,8s-3.59003,8-8,8-8-3.59003-8-8,3.59003-8,8-8Z"/>
        <path d="M23.55273,24.89453s3.99603,1.99799,4,2c.47693.23846,1.09528.04437,1.3418-.44727.24707-.49414.04688-1.09473-.44727-1.3418l-3.44727-1.72363v-4.38184c0-.55273-.44727-1-1-1s-1,.44727-1,1v5c0,.37891.21387.72461.55273.89453Z"/>
      </g>
    </g>
  </g>
</svg>