<?xml version="1.0" encoding="UTF-8"?>
<svg xmlns="http://www.w3.org/2000/svg" version="1.1" viewBox="0 0 48 48">
  <!-- Generator: Adobe Illustrator 28.7.1, SVG Export Plug-In . SVG Version: 1.2.0 Build 142)  -->
  <g>
    <g id="OUTLINE">
      <g>
        <path d="M41,23.17999v-1.17999c0-2.76001-2.23999-5-5-5h-5.08002c.52002-.90002.87-1.92004,1.01001-3h4.07001c.54999,0,1-.45001,1-1s-.45001-1-1-1h-4.07001c-.08997-.70001-.26001-1.37-.52002-2h2.59003c.54999,0,1-.45001,1-1s-.45001-1-1-1h-3.76001c-1.46997-1.83002-3.71997-3-6.23999-3s-4.77002,1.16998-6.23999,3h-3.76001c-.54999,0-1,.45001-1,1s.45001,1,1,1h2.59003c-.26001.63-.43005,1.29999-.52002,2h-4.07001c-.54999,0-1,.45001-1,1s.45001,1,1,1h4.07001c.14001,1.07996.48999,2.09998,1.01001,3h-5.08002c-2.76001,0-5,2.23999-5,5v1.17999c-1.15997.41998-2,1.52002-2,2.82001v10c0,1.64996,1.34998,3,3,3v3c0,.54999.45001,1,1,1h4c.54999,0,1-.45001,1-1v-3h10c.54999,0,1-.45001,1-1s-.45001-1-1-1H8c-.54999,0-1-.45001-1-1v-10c0-.54999.45001-1,1-1h2c.54999,0,1,.45001,1,1v4c0,1.64996,1.34998,3,3,3h20c1.65002,0,3-1.35004,3-3v-4c0-.54999.45001-1,1-1h2c.54999,0,1,.45001,1,1v2c0,.54999.45001,1,1,1s1-.45001,1-1v-2c0-1.29999-.84003-2.40002-2-2.82001ZM10,39h2v2h-2v-2ZM24,7c3.31,0,6,2.69,6,6s-2.69,6-6,6-6-2.69-6-6,2.69-6,6-6ZM39,23h-1c-1.65002,0-3,1.34998-3,3v4c0,.54999-.45001,1-1,1H14c-.54999,0-1-.45001-1-1v-4c0-1.65002-1.34998-3-3-3h-1v-1c0-1.65002,1.34998-3,3-3h6.72998c1.41003,1.23999,3.25,2,5.27002,2s3.85999-.76001,5.27002-2h6.72998c1.65002,0,3,1.34998,3,3v1Z"/>
        <path d="M42,31c-.54999,0-1,.45001-1,1v4c0,.54999-.45001,1-1,1h-12c-.54999,0-1,.45001-1,1s.45001,1,1,1h6v3c0,.54999.45001,1,1,1h4c.54999,0,1-.45001,1-1v-3c1.65002,0,3-1.35004,3-3v-4c0-.54999-.45001-1-1-1ZM38,41h-2v-2h2v2Z"/>
        <path d="M21,14h3c.55225,0,1-.44727,1-1v-3c0-.55273-.44775-1-1-1s-1,.44727-1,1v2h-2c-.55225,0-1,.44727-1,1s.44775,1,1,1Z"/>
      </g>
    </g>
  </g>
</svg>