<?xml version="1.0" encoding="utf-8"?>
<!-- Generator: Adobe Illustrator 27.3.1, SVG Export Plug-In . SVG Version: 6.00 Build 0)  -->
<svg version="1.1" id="Outline" xmlns="http://www.w3.org/2000/svg" xmlns:xlink="http://www.w3.org/1999/xlink" x="0px" y="0px"
	 viewBox="0 0 48 48" enable-background="new 0 0 48 48" xml:space="preserve">
<g>
	<circle cx="36" cy="25" r="1"/>
	<path d="M24,23c0-1.6543-1.3457-3-3-3s-3,1.3457-3,3c0,0.55225,0.44775,1,1,1s1-0.44775,1-1c0-0.55127,0.44873-1,1-1s1,0.44873,1,1
		c0,0.26709-0.104,0.51807-0.29297,0.70703c-1.22461,1.22461-2.47266,2.58838-3.30762,4.25781l-0.29395,0.58789
		c-0.15479,0.31006-0.13818,0.67822,0.04395,0.97314C18.33154,29.82031,18.65332,30,19,30h4c0.55225,0,1-0.44775,1-1s-0.44775-1-1-1
		h-2.31934c0.68115-1.05811,1.56543-2.00342,2.43994-2.87842C23.6875,24.55518,24,23.80176,24,23z"/>
	<path d="M31,30c0.55273,0,1-0.44775,1-1v-6c0-0.55225-0.44727-1-1-1s-1,0.44775-1,1v2h-2.52344l1.45215-3.62842
		c0.20508-0.51318-0.04492-1.09473-0.55762-1.30029c-0.50879-0.20312-1.09473,0.04395-1.2998,0.55713l-2,5
		c-0.12305,0.30811-0.08545,0.65723,0.10059,0.93213C25.3584,26.83545,25.66797,27,26,27h4v2C30,29.55225,30.44727,30,31,30z"/>
	<path d="M39.84961,36.021h-0.65216C41.65399,32.87708,43,29.04297,43,25c0-9.92529-8.0752-18-18-18
		c-1.9845,0-3.92206,0.34174-5.78021,0.97961C17.75195,6.16467,15.5105,5,13,5c-4.41113,0-8,3.58887-8,8
		c0,2.5105,1.16467,4.75195,2.97961,6.21979C7.34174,21.07794,7,23.0155,7,25c0,9.92529,8.07471,18,18,18
		c2.70702,0,5.31834-0.5913,7.76071-1.7578c1.22146-0.58338,0.21027-2.44083-0.93259-1.77101C29.67676,40.48584,27.38086,41,25,41
		c-8.82227,0-16-7.17773-16-16c0-1.61212,0.25171-3.1889,0.72552-4.70856C10.72638,20.7428,11.83276,21,13,21
		c0.24396,0,0.48431-0.01514,0.72278-0.03662C13.26099,22.25427,13,23.61658,13,25c0,6.6167,5.3833,12,12,12
		c4.95215,0,9.45508-3.10059,11.20508-7.71533c0.19531-0.5166-0.06445-1.09375-0.58105-1.28955
		c-0.5166-0.19531-1.09277,0.06348-1.29004,0.58057C32.87793,32.41846,29.12695,35,25,35c-5.51416,0-10-4.48584-10-10
		c0-1.65289,0.40247-3.21503,1.16772-4.6571c1.86719-0.80865,3.36658-2.30798,4.17523-4.17517C21.78503,15.40247,23.34711,15,25,15
		c4.12695,0,7.87793,2.58154,9.33398,6.42432c0.15234,0.3999,0.53223,0.646,0.93555,0.646c0.11816,0,0.2373-0.021,0.35449-0.06543
		c0.5166-0.1958,0.77637-0.77295,0.58105-1.28955C34.45508,16.10059,29.95215,13,25,13c-1.38342,0-2.74573,0.26093-4.03662,0.72272
		C20.98486,13.48425,21,13.24396,21,13c0-1.16724-0.2572-2.27362-0.70856-3.27448C21.8111,9.25171,23.38788,9,25,9
		c8.82227,0,16,7.17773,16,16c0,3.36481-1.05334,6.56561-2.97949,9.25531v-0.06293c0-0.55225-0.44727-1-1-1s-1,0.44775-1,1V37.021
		c0,0.55225,0.44727,1,1,1h2.8291c0.55273,0,1-0.44775,1-1S40.40234,36.021,39.84961,36.021z M13,19c-3.30859,0-6-2.69141-6-6
		s2.69141-6,6-6s6,2.69141,6,6S16.30859,19,13,19z"/>
	<path d="M14,9h-3c-0.55225,0-1,0.44775-1,1s0.44775,1,1,1h1.61279l-1.56152,4.68359
		c-0.1748,0.52393,0.1084,1.09033,0.63232,1.26514c0.10498,0.03516,0.21191,0.05176,0.31641,0.05176
		c0.41895,0,0.80908-0.26514,0.94873-0.68408l2-6c0.10156-0.30518,0.05029-0.64014-0.1377-0.90088C14.62305,9.1543,14.32129,9,14,9z
		"/>
</g>
</svg>
