<?xml version="1.0" encoding="utf-8"?>
<!-- Generator: Adobe Illustrator 27.3.1, SVG Export Plug-In . SVG Version: 6.00 Build 0)  -->
<svg version="1.1" id="Outline" xmlns="http://www.w3.org/2000/svg" xmlns:xlink="http://www.w3.org/1999/xlink" x="0px" y="0px"
	 viewBox="0 0 48 48" enable-background="new 0 0 48 48" xml:space="preserve">
<g>
	<circle cx="8" cy="20" r="1"/>
	<path d="M41,31V12c0-1.65002-1.34998-3-3-3H10c-1.65002,0-3,1.34998-3,3v4c0,0.54999,0.45001,1,1,1s1-0.45001,1-1v-4
		c0-0.54999,0.45001-1,1-1h28c0.54999,0,1,0.45001,1,1v19c0,0-10,0-10.00001,0c-0.25218,0-0.53255,0.10797-0.71001,0.28998
		L26.59003,33h-5.18005c0,0-1.69657-1.70662-1.69995-1.71002C19.53481,31.11372,19.24706,31,19,31H9v-7c0-0.54999-0.45001-1-1-1
		s-1,0.45001-1,1v7c-1.09998,0-2,0.89996-2,2v3c0,1.64996,1.34998,3,3,3h32c1.65002,0,3-1.35004,3-3v-3
		C43,31.89996,42.09998,31,41,31z M20,37H8c-0.54999,0-1-0.45001-1-1v-3h11.59003L20,34.40997V37z M26,37h-4v-2h4V37z M41,36
		c0,0.54999-0.45001,1-1,1H28v-2.59003L29.40997,33H32v1c0,0.54999,0.45001,1,1,1s1-0.45001,1-1v-1h2v1c0,0.54999,0.45001,1,1,1
		s1-0.45001,1-1v-1h3V36z"/>
	<path d="M14.37158,16.07129c-0.51562-0.20605-1.09521,0.04395-1.30029,0.55762c0,0-1.99548,4.98869-1.99999,4.99998
		C10.81687,22.26494,11.31854,23,12,23h4v2c0,0.55273,0.44775,1,1,1s1-0.44727,1-1v-6c0-0.55273-0.44775-1-1-1s-1,0.44727-1,1v2
		h-2.52295l1.45166-3.62891C15.13379,16.8584,14.88428,16.27637,14.37158,16.07129z"/>
	<path d="M33.37158,16.07129c-0.51611-0.20605-1.09521,0.04395-1.30029,0.55762c0,0-1.99329,4.98322-1.99998,4.99996
		C29.81516,22.26924,30.31468,23,31,23h4v2c0,0.55273,0.44775,1,1,1s1-0.44727,1-1v-6c0-0.55273-0.44775-1-1-1s-1,0.44727-1,1v2
		h-2.52295l1.45166-3.62891C34.13379,16.8584,33.88428,16.27637,33.37158,16.07129z"/>
	<path d="M26,26c1.10303,0,2-0.89746,2-2v-6c0-1.10254-0.89697-2-2-2h-4c-1.10303,0-2,0.89746-2,2v6c0,1.10254,0.89697,2,2,2H26z
		 M22,18h4l0.00146,6H22V18z"/>
</g>
</svg>
