<?xml version="1.0" encoding="utf-8"?>
<!-- Generator: Adobe Illustrator 27.3.1, SVG Export Plug-In . SVG Version: 6.00 Build 0)  -->
<svg version="1.1" id="Outline" xmlns="http://www.w3.org/2000/svg" xmlns:xlink="http://www.w3.org/1999/xlink" x="0px" y="0px"
	 viewBox="0 0 48 48" enable-background="new 0 0 48 48" xml:space="preserve">
<g>
	<circle cx="17" cy="6" r="1"/>
	<path d="M40,20h-7V8c0-1.6543-1.3457-3-3-3h-9c-0.55273,0-1,0.44775-1,1s0.44727,1,1,1h9c0.55176,0,1,0.44873,1,1v13
		c0,0.55127-0.44824,1-1,1H13c-0.37891,0-0.72559,0.21387-0.89453,0.55273C11.65234,23.45996,10.91211,24.17041,10,24.58838V23
		c0-0.55225-0.44727-1-1-1H8c-0.55176,0-1-0.44873-1-1V8c0-0.55127,0.44824-1,1-1h5c0.55273,0,1-0.44775,1-1s-0.44727-1-1-1H8
		C6.3457,5,5,6.3457,5,8v13c0,1.6543,1.3457,3,3,3v2c0,0.32075,0.15425,0.62198,0.41394,0.80997
		c0.55117,0.399,1.22485,0.03243,1.78625-0.15274c1.41895-0.47949,2.60059-1.41211,3.38379-2.65723H15v13c0,1.6543,1.3457,3,3,3
		h16.41602c0.7832,1.24512,1.96582,2.17773,3.39074,2.65971c0.56358,0.18578,1.22392,0.55219,1.77918,0.15035
		C39.8457,42.62207,40,42.3208,40,42v-2c1.6543,0,3-1.3457,3-3V23C43,21.3457,41.6543,20,40,20z M41,37c0,0.55127-0.44824,1-1,1h-1
		c-0.55273,0-1,0.44775-1,1v1.58789c-0.91504-0.41992-1.65332-1.12939-2.10547-2.03516C35.72559,38.21387,35.37891,38,35,38H18
		c-0.55176,0-1-0.44873-1-1V24h13c1.30194,0,2.40161-0.8385,2.81573-2H40c0.55176,0,1,0.44873,1,1V37z"/>
	<path d="M38,26H20c-0.55273,0-1,0.44775-1,1s0.44727,1,1,1h18c0.55273,0,1-0.44775,1-1S38.55273,26,38,26z"/>
	<path d="M38,30H20c-0.55273,0-1,0.44775-1,1s0.44727,1,1,1h18c0.55273,0,1-0.44775,1-1S38.55273,30,38,30z"/>
	<circle cx="21" cy="35" r="1"/>
	<circle cx="25" cy="35" r="1"/>
	<circle cx="29" cy="35" r="1"/>
	<circle cx="33" cy="35" r="1"/>
	<circle cx="37" cy="35" r="1"/>
	<path d="M12.5,11C10.57031,11,9,12.57031,9,14.5s1.57031,3.5,3.5,3.5h1.3374c0,0,5.84619,1.94873,5.8462,1.94873
		c0.30352,0.10021,0.64178,0.04945,0.90136-0.1377C20.8457,19.62305,21,19.32129,21,19v-9c0-0.32129-0.1543-0.62305-0.41504-0.81104
		C20.32324,9,19.98828,8.9502,19.68359,9.05127L13.8374,11H12.5z M11,14.5c0-0.82715,0.67285-1.5,1.5-1.5H13v3h-0.5
		C11.67285,16,11,15.32715,11,14.5z M19,17.61279l-4-1.3335V12.7207l4-1.3335V17.61279z"/>
	<path d="M25.53516,19.70703c0.38581,0.38581,1.02809,0.38597,1.41406,0C28.27148,18.38477,29,16.62695,29,14.75732
		s-0.72852-3.62744-2.05078-4.94971c-0.39062-0.39062-1.02344-0.39062-1.41406,0s-0.39062,1.02393,0,1.41406
		C26.47949,12.16602,27,13.42188,27,14.75732s-0.52051,2.59131-1.46484,3.53564
		C25.14453,18.68311,25.14453,19.31641,25.53516,19.70703z"/>
	<path d="M22.70703,16.87842c0.37758,0.37758,1.02367,0.3899,1.41406,0.00049c0.5664-0.56641,0.87793-1.31982,0.87793-2.12207
		c0-0.80176-0.3125-1.55469-0.87793-2.12061c-0.39062-0.39062-1.02344-0.39062-1.41406,0s-0.39062,1.02344,0,1.41406
		c0.18848,0.18848,0.29199,0.43945,0.29199,0.70703s-0.10352,0.51855-0.29199,0.70654
		C22.31641,15.85449,22.31641,16.48778,22.70703,16.87842z"/>
</g>
</svg>
