<?xml version="1.0" encoding="utf-8"?>
<!-- Generator: Adobe Illustrator 27.3.1, SVG Export Plug-In . SVG Version: 6.00 Build 0)  -->
<svg version="1.1" id="Outline" xmlns="http://www.w3.org/2000/svg" xmlns:xlink="http://www.w3.org/1999/xlink" x="0px" y="0px"
	 viewBox="0 0 48 48" enable-background="new 0 0 48 48" xml:space="preserve">
<g>
	<circle cx="6" cy="21" r="1"/>
	<path d="M10,15h24c0.55225,0,1-0.44727,1-1s-0.44775-1-1-1H10c-0.55225,0-1,0.44727-1,1S9.44775,15,10,15z"/>
	<path d="M10,19h24c0.55225,0,1-0.44727,1-1s-0.44775-1-1-1H10c-0.55225,0-1,0.44727-1,1S9.44775,19,10,19z"/>
	<path d="M10,35h14c0.55225,0,1-0.44727,1-1s-0.44775-1-1-1H10c-0.55225,0-1,0.44727-1,1S9.44775,35,10,35z"/>
	<path d="M10,31h15c0.55225,0,1-0.44727,1-1s-0.44775-1-1-1H10c-0.55225,0-1,0.44727-1,1S9.44775,31,10,31z"/>
	<path d="M10,27h19c0.55225,0,1-0.44727,1-1s-0.44775-1-1-1H10c-0.55225,0-1,0.44727-1,1S9.44775,27,10,27z"/>
	<path d="M10,23h24c0.55225,0,1-0.44727,1-1s-0.44775-1-1-1H10c-0.55225,0-1,0.44727-1,1S9.44775,23,10,23z"/>
	<path d="M39,28.08246V8c0-1.6543-1.3457-3-3-3H8C6.3457,5,5,6.3457,5,8v9c0,0.55273,0.44775,1,1,1s1-0.44727,1-1v-6h30v16.26331
		C36.35944,27.09747,35.69165,27,35,27c-4.41113,0-8,3.58887-8,8c0,0.69165,0.09747,1.35944,0.26331,2H8c-0.55127,0-1-0.44824-1-1
		V25c0-0.55273-0.44775-1-1-1s-1,0.44727-1,1v11c0,1.6543,1.3457,3,3,3h20.08246c1.38586,2.38708,3.96423,4,6.91754,4
		c4.41113,0,8-3.58887,8-8C43,32.04669,41.38708,29.46832,39,28.08246z M7,9V8c0-0.55176,0.44873-1,1-1h28c0.55127,0,1,0.44824,1,1
		v1H7z M35,41c-3.30859,0-6-2.69141-6-6s2.69141-6,6-6s6,2.69141,6,6S38.30859,41,35,41z"/>
	<path d="M36.79297,32.79297L34.5,35.08594l-1.29297-1.29297c-0.39062-0.39062-1.02344-0.39062-1.41406,0
		s-0.39062,1.02344,0,1.41406l2,2C33.98828,37.40234,34.24414,37.5,34.5,37.5s0.51172-0.09766,0.70703-0.29297l3-3
		c0.39062-0.39062,0.39062-1.02344,0-1.41406S37.18359,32.40234,36.79297,32.79297z"/>
</g>
</svg>
