<?xml version="1.0" encoding="utf-8"?>
<!-- Generator: Adobe Illustrator 27.3.1, SVG Export Plug-In . SVG Version: 6.00 Build 0)  -->
<svg version="1.1" id="Outline" xmlns="http://www.w3.org/2000/svg" xmlns:xlink="http://www.w3.org/1999/xlink" x="0px" y="0px"
	 viewBox="0 0 48 48" enable-background="new 0 0 48 48" xml:space="preserve">
<g>
	<circle cx="6" cy="20" r="1"/>
	<path d="M10,15h24c0.55273,0,1-0.44727,1-1s-0.44727-1-1-1H10c-0.55273,0-1,0.44727-1,1S9.44727,15,10,15z"/>
	<path d="M10,19h24c0.55273,0,1-0.44727,1-1s-0.44727-1-1-1H10c-0.55273,0-1,0.44727-1,1S9.44727,19,10,19z"/>
	<path d="M10,35h14c0.55273,0,1-0.44727,1-1s-0.44727-1-1-1H10c-0.55273,0-1,0.44727-1,1S9.44727,35,10,35z"/>
	<path d="M10,31h15c0.55273,0,1-0.44727,1-1s-0.44727-1-1-1H10c-0.55273,0-1,0.44727-1,1S9.44727,31,10,31z"/>
	<path d="M10,27h19c0.55273,0,1-0.44727,1-1s-0.44727-1-1-1H10c-0.55273,0-1,0.44727-1,1S9.44727,27,10,27z"/>
	<path d="M10,23h24c0.55273,0,1-0.44727,1-1s-0.44727-1-1-1H10c-0.55273,0-1,0.44727-1,1S9.44727,23,10,23z"/>
	<path d="M39,28.08246V8c0-1.6543-1.3457-3-3-3H8C6.3457,5,5,6.3457,5,8v8c0,0.55273,0.44727,1,1,1s1-0.44727,1-1v-5h30v16.26331
		C36.35944,27.09747,35.69165,27,35,27c-4.41113,0-8,3.58887-8,8c0,0.69165,0.09747,1.35944,0.26331,2H8c-0.55176,0-1-0.44824-1-1
		V24c0-0.55273-0.44727-1-1-1s-1,0.44727-1,1v12c0,1.6543,1.3457,3,3,3h20.08246c1.38586,2.38708,3.96423,4,6.91754,4
		c4.41113,0,8-3.58887,8-8C43,32.04669,41.38708,29.46832,39,28.08246z M7,9V8c0-0.55176,0.44824-1,1-1h28c0.55176,0,1,0.44824,1,1
		v1H7z M35,41c-3.30859,0-6-2.69141-6-6s2.69141-6,6-6s6,2.69141,6,6S38.30859,41,35,41z"/>
	<path d="M37.82812,32.17188c-0.39063-0.39062-1.02344-0.39062-1.41406,0L35,33.58594l-1.41406-1.41406
		c-0.39062-0.39062-1.02345-0.39062-1.41406,0c-0.39062,0.39062-0.39062,1.02344,0,1.41406L33.58594,35l-1.41406,1.41406
		c-0.39062,0.39062-0.39062,1.02344,0,1.41406c0.38745,0.38739,1.02783,0.38623,1.41406,0L35,36.41406
		c0,0,1.41406,1.41406,1.41412,1.41406c0.38745,0.38745,1.02759,0.38641,1.414,0c0.39062-0.39062,0.39062-1.02344,0-1.41406
		L36.41406,35l1.41406-1.41406C38.21875,33.19531,38.21875,32.5625,37.82812,32.17188z"/>
</g>
</svg>
