<?xml version="1.0" encoding="utf-8"?>
<!-- Generator: Adobe Illustrator 27.3.1, SVG Export Plug-In . SVG Version: 6.00 Build 0)  -->
<svg version="1.1" id="Outline" xmlns="http://www.w3.org/2000/svg" xmlns:xlink="http://www.w3.org/1999/xlink" x="0px" y="0px"
	 viewBox="0 0 48 48" enable-background="new 0 0 48 48" xml:space="preserve">
<g>
	<circle cx="6" cy="24" r="1"/>
	<circle cx="14" cy="18" r="1"/>
	<circle cx="14" cy="22" r="1"/>
	<circle cx="14" cy="26" r="1"/>
	<path d="M26,17h-8c-0.55225,0-1,0.44727-1,1s0.44775,1,1,1h8c0.55225,0,1-0.44727,1-1S26.55225,17,26,17z"/>
	<path d="M26,21h-8c-0.55225,0-1,0.44727-1,1s0.44775,1,1,1h8c0.55225,0,1-0.44727,1-1S26.55225,21,26,21z"/>
	<path d="M26,25h-8c-0.55225,0-1,0.44727-1,1s0.44775,1,1,1h8c0.55225,0,1-0.44727,1-1S26.55225,25,26,25z"/>
	<path d="M42.42999,35.39996C41.91998,35.10999,41.62,34.57996,41.62,34c0-0.57999,0.29996-1.10994,0.80993-1.39999
		c0.46793-0.26614,0.6421-0.90676,0.36005-1.37003c0,0-1.99701-3.45485-2-3.46002c-0.27568-0.47694-0.88068-0.64095-1.35999-0.37
		c-0.51001,0.29004-1.10999,0.29004-1.62,0C37.29999,27.10999,37,26.57996,37,26c0-0.54999-0.45001-1-1-1h-1V12
		c0-1.65002-1.34998-3-3-3h-6V8c0-1.65002-1.34998-3-3-3h-6c-1.65002,0-3,1.34998-3,3v1H8c-1.65002,0-3,1.34998-3,3v8
		c0,0.54999,0.45001,1,1,1s1-0.45001,1-1v-8c0-0.54999,0.45001-1,1-1h3v2c-1.09998,0-2,0.89996-2,2v17
		c0,0.26996,0.10999,0.51996,0.28998,0.70996l6,6C15.47998,38.89001,15.72998,39,16,39h10.48999c0,0,0.7196,1.22924,0.72003,1.22998
		c0.27039,0.46189,0.87345,0.64503,1.35999,0.37c0.51001-0.28998,1.10999-0.28998,1.62,0
		C30.37,40.70001,30.52002,40.83997,30.64001,41H8c-0.54999,0-1-0.45001-1-1V28c0-0.54999-0.45001-1-1-1s-1,0.45001-1,1v12
		c0,1.64996,1.34998,3,3,3h28c0.54999,0,1-0.45001,1-1c0-0.58002,0.29999-1.10999,0.81-1.40002
		c0.50999-0.28997,1.10995-0.28998,1.61995-0.00002c0.47569,0.27045,1.08958,0.10844,1.36003-0.36997c0,0,2-3.46002,2.00001-3.46004
		C43.07137,36.30775,42.89819,35.66463,42.42999,35.39996z M29,11h3c0.54999,0,1,0.45001,1,1v13h-1c-0.54999,0-1,0.45001-1,1V15
		c0-1.10004-0.90002-2-2-2V11z M16,8c0-0.54999,0.45001-1,1-1h6c0.54999,0,1,0.45001,1,1v1h-8V8z M13,11h14v2H13V11z M15,35.58997
		L12.40997,33H15V35.58997z M26.42999,29.10999C26.29999,29.03998,26.15997,29,26,29h-6c-0.54999,0-1,0.45001-1,1s0.45001,1,1,1
		h5.34003c0,0-0.12985,0.22971-0.13,0.22998c-0.25679,0.45426-0.12328,1.09681,0.35999,1.37C25.75,32.70001,25.90002,32.84998,26,33
		h-6c-0.54999,0-1,0.45001-1,1s0.45001,1,1,1c0,0,6,0,6.02002-0.01001c-0.11998,0.15995-0.26998,0.30996-0.44993,0.40993
		c-0.47044,0.26135-0.63973,0.91067-0.36006,1.37004L25.34003,37H17v-5c0-0.54999-0.45001-1-1-1h-5V15l18,0
		c0,2.89193,0,5.78387,0,8.6758c0,1.30251,0.00028,2.60501-0.00118,3.90751c-0.29145-0.17076-0.75355-0.37028-1.10153-0.31556
		c-0.2268,0.03566-0.58633,0.5022-0.68727,0.5022L26.42999,29.10999z M40.63,36.51001l-1.14001,1.97998
		C38.59998,38.26001,37.64001,38.38,36.81,38.87c-0.83002,0.47998-1.41998,1.23999-1.66998,2.13h-2.28003
		c-0.25-0.89001-0.83997-1.65002-1.66998-2.13s-1.78998-0.60999-2.67999-0.38L27.37,36.51001
		C28.01001,35.84998,28.38,34.95996,28.38,34c0-0.96002-0.37-1.85004-1.01001-2.51001l1.14001-1.97998
		c0.57001,0.14996,1.16998,0.13,1.75-0.01001c0.04999-0.02002,0.09998-0.02002,0.14001-0.04004
		C30.66998,29.38,30.94,29.27997,31.19,29.13c0.83002-0.48004,1.41998-1.23999,1.66998-2.13h2.28003
		c0.25,0.89001,0.83997,1.64996,1.66998,2.13c0.83002,0.48999,1.78998,0.60999,2.67999,0.38L40.63,31.48999
		C39.98999,32.14996,39.62,33.03998,39.62,34C39.62,34.95996,39.98999,35.84998,40.63,36.51001z"/>
	<path d="M34,30c-2.20557,0-4,1.79395-4,4s1.79443,4,4,4s4-1.79395,4-4S36.20557,30,34,30z M34,36c-1.10303,0-2-0.89746-2-2
		s0.89697-2,2-2s2,0.89746,2,2S35.10303,36,34,36z"/>
</g>
</svg>
