<?xml version="1.0" encoding="utf-8"?>
<!-- Generator: Adobe Illustrator 27.3.1, SVG Export Plug-In . SVG Version: 6.00 Build 0)  -->
<svg version="1.1" id="Outline" xmlns="http://www.w3.org/2000/svg" xmlns:xlink="http://www.w3.org/1999/xlink" x="0px" y="0px"
	 viewBox="0 0 48 48" enable-background="new 0 0 48 48" xml:space="preserve">
<g>
	<circle cx="6" cy="24" r="1"/>
	<circle cx="14" cy="18" r="1"/>
	<circle cx="14" cy="22" r="1"/>
	<circle cx="14" cy="26" r="1"/>
	<path d="M18,19h8c0.55273,0,1-0.44727,1-1s-0.44727-1-1-1h-8c-0.55225,0-1,0.44727-1,1S17.44775,19,18,19z"/>
	<path d="M18,23h8c0.55273,0,1-0.44727,1-1s-0.44727-1-1-1h-8c-0.55225,0-1,0.44727-1,1S17.44775,23,18,23z"/>
	<circle cx="33" cy="28" r="1"/>
	<path d="M35,36h-1v-4c0-0.55273-0.44727-1-1-1h-2c-0.55273,0-1,0.44727-1,1s0.44727,1,1,1h1v3h-1c-0.55273,0-1,0.44727-1,1
		s0.44727,1,1,1h4c0.55273,0,1-0.44727,1-1S35.55273,36,35,36z"/>
	<path d="M33,43c5.51001,0,10-4.48999,10-10c0-4.83002-3.44-8.87-8-9.79999V12c0-1.65002-1.34998-3-3-3h-6V8
		c0-1.65002-1.34998-3-3-3h-6c-1.65002,0-3,1.34998-3,3v1H8c-1.65002,0-3,1.34998-3,3v8c0,0.54999,0.45001,1,1,1s1-0.45001,1-1v-8
		c0-0.54999,0.45001-1,1-1h3v2c-1.09998,0-2,0.89996-2,2c0,0,0,16.99942,0,17.00005
		c0.00007,0.24861,0.12791,0.52755,0.28998,0.70991c0,0,5.99984,5.99984,6.00002,6.00002C15.46875,38.88872,15.74827,39,16,39
		h9.02002c0.57001,0.76001,1.25,1.42999,2.01001,2H8c-0.54999,0-1-0.45001-1-1V28c0-0.54999-0.45001-1-1-1s-1,0.45001-1,1v12
		c0,1.64996,1.34998,3,3,3 M29,11h3c0.54999,0,1,0.45001,1,1v11c-0.67999,0-1.34998,0.07001-2,0.20001V15c0-1.10004-0.90002-2-2-2
		V11z M16,8c0-0.54999,0.45001-1,1-1h6c0.54999,0,1,0.45001,1,1v1h-8V8z M13,11h14v2H13V11z M15,35.58997L12.40997,33H15V35.58997z
		 M20,31h3.20001C23.07001,31.64996,23,32.32001,23,33h-3c-0.54999,0-1,0.45001-1,1s0.45001,1,1,1h3.20001
		c0.14001,0.70001,0.35999,1.35999,0.64001,2H17v-5c0-0.54999-0.45001-1-1-1h-5V15h18v8.83997
		c-0.71002,0.31-1.35999,0.70001-1.96997,1.16003H18c-0.54999,0-1,0.45001-1,1s0.45001,1,1,1h7.02002
		c-0.47003,0.62-0.87,1.27997-1.17999,2H20c-0.54999,0-1,0.45001-1,1S19.45001,31,20,31z M33,41c-4.40997,0-8-3.59003-8-8
		c0-4.41003,3.59003-8,8-8s8,3.58997,8,8C41,37.40997,37.40997,41,33,41z"/>
</g>
</svg>
