<?xml version="1.0" encoding="utf-8"?>
<!-- Generator: Adobe Illustrator 27.3.1, SVG Export Plug-In . SVG Version: 6.00 Build 0)  -->
<svg version="1.1" id="Outline" xmlns="http://www.w3.org/2000/svg" xmlns:xlink="http://www.w3.org/1999/xlink" x="0px" y="0px"
	 viewBox="0 0 48 48" enable-background="new 0 0 48 48" xml:space="preserve">
<g>
	<circle cx="22" cy="42" r="1"/>
	<path d="M40.56934,19.17773c-0.1535-0.10608-0.33185-0.16034-0.51392-0.17065C40.03534,19.00543,40.02411,19,40,19h-3V8
		c0-1.6543-1.3457-3-3-3H14c-1.6543,0-3,1.3457-3,3v11H8c-0.02411,0-0.0354,0.00543-0.05542,0.00708
		c-0.18176,0.01044-0.36029,0.06476-0.5144,0.17065C7.16064,19.36523,7,19.67188,7,20v20c0,1.6543,1.3457,3,3,3h8
		c0.55225,0,1-0.44727,1-1s-0.44775-1-1-1h-8c-0.55127,0-1-0.44824-1-1V21.44336l14.64893,5.49316
		c0.22656,0.08398,0.47559,0.08398,0.70215,0L39,21.44336V40c0,0.55176-0.44824,1-1,1H26c-0.55273,0-1,0.44727-1,1s0.44727,1,1,1h12
		c1.6543,0,3-1.3457,3-3V20C41,19.67188,40.83887,19.36523,40.56934,19.17773z M35,20.80664l-11,4.125l-11-4.12488V8
		c0-0.55176,0.44873-1,1-1h20c0.55176,0,1,0.44824,1,1V20.80664z"/>
	<path d="M16,33h-4c-0.55225,0-1,0.44727-1,1v4c0,0.55273,0.44775,1,1,1h4c0.55225,0,1-0.44727,1-1v-4
		C17,33.44727,16.55225,33,16,33z M15,37h-2v-2h2V37z"/>
	<path d="M30,39h6c0.55273,0,1-0.44727,1-1s-0.44727-1-1-1h-6c-0.55273,0-1,0.44727-1,1S29.44727,39,30,39z"/>
	<path d="M30,35h6c0.55273,0,1-0.44727,1-1s-0.44727-1-1-1h-6c-0.55273,0-1,0.44727-1,1S29.44727,35,30,35z"/>
	<path d="M16,29h-4c-0.55225,0-1,0.44727-1,1s0.44775,1,1,1h4c0.55225,0,1-0.44727,1-1S16.55225,29,16,29z"/>
	<circle cx="18" cy="9.75" r="1"/>
	<path d="M32,9H22c-0.55225,0-1,0.44727-1,1s0.44775,1,1,1h10c0.55273,0,1-0.44727,1-1S32.55273,9,32,9z"/>
	<path d="M32,13H22c-0.55225,0-1,0.44727-1,1s0.44775,1,1,1h10c0.55273,0,1-0.44727,1-1S32.55273,13,32,13z"/>
	<path d="M32,17h-8c-0.55225,0-1,0.44727-1,1s0.44775,1,1,1h8c0.55273,0,1-0.44727,1-1S32.55273,17,32,17z"/>
	<path d="M20,18h-1v-5c0-0.55273-0.44775-1-1-1h-1c-0.55225,0-1,0.44727-1,1s0.44775,1,1,1v4h-1c-0.55225,0-1,0.44727-1,1
		s0.44775,1,1,1h4c0.55225,0,1-0.44727,1-1S20.55225,18,20,18z"/>
</g>
</svg>
