<?xml version="1.0" encoding="utf-8"?>
<!-- Generator: Adobe Illustrator 27.3.1, SVG Export Plug-In . SVG Version: 6.00 Build 0)  -->
<svg version="1.1" id="Outline" xmlns="http://www.w3.org/2000/svg" xmlns:xlink="http://www.w3.org/1999/xlink" x="0px" y="0px"
	 viewBox="0 0 48 48" enable-background="new 0 0 48 48" xml:space="preserve">
<g>
	<circle cx="31" cy="9" r="1"/>
	<path d="M40,8h-5c-0.55225,0-1,0.44727-1,1s0.44775,1,1,1h4.58594L31,18.58594L22.41406,10H27c0.55225,0,1-0.44727,1-1
		s-0.44775-1-1-1h-5c-1.6543,0-3,1.3457-3,3v11H8c-1.6543,0-3,1.3457-3,3v12c0,1.6543,1.3457,3,3,3h18c1.6543,0,3-1.3457,3-3V26h11
		c1.6543,0,3-1.3457,3-3V11C43,9.3457,41.6543,8,40,8z M21,11.41406L26.58594,17l-5,5H21V11.41406z M25.58594,24L17,32.58594
		L8.41406,24H25.58594z M7,36.58594V25.41406L12.58594,31L7,36.58594z M8.41406,38L14,32.41406l2.29297,2.29297
		C16.48828,34.90234,16.74414,35,17,35s0.51172-0.09766,0.70703-0.29297L20,32.41406L25.58594,38H8.41406z M27,36.58594L21.41406,31
		L27,25.41406V36.58594z M28.81573,24C28.40161,22.8385,27.30194,22,26,22h-1.58594L28,18.41406l2.29297,2.29297
		C30.48828,20.90234,30.74414,21,31,21s0.51172-0.09766,0.70703-0.29297L34,18.41406L39.58594,24H28.81573z M41,22.58594
		L35.41406,17L41,11.41406V22.58594z"/>
	<path d="M10,20c0.55225,0,1-0.44727,1-1v-3h2.58594l-0.29297,0.29297c-0.39061,0.39061-0.39062,1.02338-0.00006,1.41401
		c0.37213,0.37219,1.02715,0.38702,1.41412,0.00006l2-2c0.39062-0.39062,0.39062-1.02344,0-1.41406l-2-2
		c-0.39062-0.39062-1.02344-0.39062-1.41406,0s-0.39062,1.02344,0,1.41406L13.58594,14H10c-0.55225,0-1,0.44727-1,1v4
		C9,19.55273,9.44775,20,10,20z"/>
	<path d="M38,28c-0.55225,0-1,0.44727-1,1v3h-2.58594l0.29297-0.29297c0.39062-0.39062,0.39062-1.02344,0-1.41406
		s-1.02344-0.39062-1.41406,0l-2,2c-0.39062,0.39062-0.39062,1.02344,0,1.41406c0,0,1.99644,1.99644,2,2
		c0.3731,0.3731,1.02483,0.38924,1.41407,0c0.39062-0.39062,0.39062-1.02344,0-1.41406L34.41406,34H38c0.55225,0,1-0.44727,1-1v-4
		C39,28.44727,38.55225,28,38,28z"/>
</g>
</svg>
