<?xml version="1.0" encoding="utf-8"?>
<!-- Generator: Adobe Illustrator 27.3.1, SVG Export Plug-In . SVG Version: 6.00 Build 0)  -->
<svg version="1.1" id="Outline" xmlns="http://www.w3.org/2000/svg" xmlns:xlink="http://www.w3.org/1999/xlink" x="0px" y="0px"
	 viewBox="0 0 48 48" enable-background="new 0 0 48 48" xml:space="preserve">
<g>
	<circle cx="30" cy="30" r="1"/>
	<path d="M40,6H22c-1.6543,0-3,1.3457-3,3v11H8c-1.6543,0-3,1.3457-3,3v13c0,1.6543,1.3457,3,3,3v2
		c0,0.32129,0.1543,0.62207,0.41406,0.81055C8.58691,41.93555,8.79199,42,9,42c0.10547,0,0.21094-0.0166,0.31348-0.0498
		l0.88672-0.29297c1.41895-0.47949,2.60059-1.41211,3.38379-2.65723H28c1.6543,0,3-1.3457,3-3v-2c0-0.55273-0.44727-1-1-1
		s-1,0.44727-1,1v2c0,0.55176-0.44824,1-1,1H13c-0.37891,0-0.72559,0.21387-0.89453,0.55273
		C11.65234,38.45996,10.91309,39.1709,10,39.58887V38c0-0.55273-0.44727-1-1-1H8c-0.55176,0-1-0.44824-1-1V23
		c0-0.55176,0.44824-1,1-1h20c0.55176,0,1,0.44824,1,1v3c0,0.55273,0.44727,1,1,1s1-0.44727,1-1v-2h9c1.6543,0,3-1.3457,3-3V9
		C43,7.3457,41.6543,6,40,6z M35.41406,15L41,9.41406v11.17188L35.41406,15z M31,16.58594L22.41406,8h17.17188L31,16.58594z
		 M21,9.41406L26.58594,15l-5,5H21V9.41406z M28,20h-3.58594L28,16.41406l2.29297,2.29297C30.48828,18.90234,30.74414,19,31,19
		s0.51172-0.09766,0.70703-0.29297L34,16.41406L39.58594,22h-8.7702C30.40161,20.8385,29.30194,20,28,20z"/>
	<circle cx="18" cy="24.75" r="1"/>
	<path d="M18,35.25h1c0.55273,0,1-0.44727,1-1s-0.44727-1-1-1v-5c0-0.55273-0.44727-1-1-1h-1c-0.55273,0-1,0.44727-1,1
		s0.44727,1,1,1v5C17,34.80273,17.44727,35.25,18,35.25z"/>
</g>
</svg>
