<?xml version="1.0" encoding="utf-8"?>
<!-- Generator: Adobe Illustrator 27.3.1, SVG Export Plug-In . SVG Version: 6.00 Build 0)  -->
<svg version="1.1" id="Outline" xmlns="http://www.w3.org/2000/svg" xmlns:xlink="http://www.w3.org/1999/xlink" x="0px" y="0px"
	 viewBox="0 0 48 48" enable-background="new 0 0 48 48" xml:space="preserve">
<g>
	<circle cx="6" cy="24" r="1"/>
	<path d="M40,5H22c-1.65002,0-3,1.34998-3,3v1H8c-1.65002,0-3,1.34998-3,3v8c0,0.54999,0.45001,1,1,1s1-0.45001,1-1v-8
		c0-0.54999,0.45001-1,1-1h3v3c0,0.54999,0.45001,1,1,1h7v5c0,1.64996,1.34998,3,3,3h5v17c0,0.54999-0.45001,1-1,1H8
		c-0.54999,0-1-0.45001-1-1V28c0-0.54999-0.45001-1-1-1s-1,0.45001-1,1v12c0,1.64996,1.34998,3,3,3h18c1.65002,0,3-1.35004,3-3V23
		h11c1.65002,0,3-1.35004,3-3V8C43,6.34998,41.65002,5,40,5z M19,13h-6v-2h6V13z M39.59003,7L31,15.58997L22.40997,7H39.59003z
		 M21,19.58997V8.40997L26.59003,14L21,19.58997z M22.40997,21L28,15.40997l2.28998,2.29999C30.48999,17.89996,30.73999,18,31,18
		s0.51001-0.10004,0.71002-0.29004L34,15.40997L39.59003,21H22.40997z M41,19.58997L35.40997,14L41,8.40997V19.58997z"/>
	<path d="M18,39c0.55273,0,1-0.44775,1-1s-0.44727-1-1-1h-2c-0.55273,0-1,0.44775-1,1s0.44727,1,1,1H18z"/>
</g>
</svg>
