<?xml version="1.0" encoding="utf-8"?>
<!-- Generator: Adobe Illustrator 27.3.1, SVG Export Plug-In . SVG Version: 6.00 Build 0)  -->
<svg version="1.1" id="Outline" xmlns="http://www.w3.org/2000/svg" xmlns:xlink="http://www.w3.org/1999/xlink" x="0px" y="0px"
	 viewBox="0 0 48 48" enable-background="new 0 0 48 48" xml:space="preserve">
<g>
	<circle cx="24" cy="32" r="1"/>
	<path d="M42.42999,15.39996C41.91998,15.10999,41.62,14.57996,41.62,14c0-0.58002,0.29999-1.10999,0.81-1.40002
		c0.47998-0.27997,0.64001-0.89001,0.35999-1.37l-2-3.46002c-0.26996-0.47998-0.88-0.64996-1.35999-0.37
		c-0.51001,0.29004-1.10999,0.29004-1.62,0C37.29999,7.10999,37,6.58997,37,6c0-0.54999-0.45001-1-1-1H10c-2.76001,0-5,2.23999-5,5
		v26c0,2.70996,2.28998,5,5,5h4v1c0,0.34998,0.17999,0.66998,0.46997,0.84998c0.30005,0.17999,0.67004,0.20001,0.98004,0.04004
		L17,42.12l1.54999,0.77002C18.69,42.95996,18.84998,43,19,43c0.17999,0,0.37-0.04999,0.53003-0.15002
		C19.82001,42.66998,20,42.34998,20,42v-1h14c0.54999,0,1-0.45001,1-1V23h1c0.54999,0,1-0.45001,1-1
		c0-0.59003,0.29999-1.10999,0.81-1.40002c0.51001-0.29999,1.10999-0.28998,1.62,0c0.47998,0.27002,1.09003,0.10999,1.35999-0.37
		l2-3.46002C43.07001,16.28998,42.90997,15.67999,42.42999,15.39996z M16,7h2v2.38c0,0-0.54999-0.27002-0.55008-0.27006
		c-0.28706-0.14349-0.61334-0.14325-0.89994,0.00004L16,9.38V7z M7,10c0-1.65002,1.34998-3,3-3v2.89001
		C9,9.94,7.98999,10.06,7,10.26001V10z M7,12.31c0.97998-0.22003,2-0.35999,3-0.41998v5.69995c-0.98999,0.06-2,0.17999-3,0.38V12.31
		z M7,20.01996c0.98999-0.21997,2-0.37,3-0.42999v6.30005C9,25.94,7.98999,26.06,7,26.26001V20.01996z M7,28.31
		c0.97998-0.22003,2-0.35999,3-0.41998V31c-1.12,0-2.15997,0.37-3,1V28.31z M18,40.38l-0.54999-0.27002
		C17.31,40.03998,17.15002,40,17,40s-0.31,0.03998-0.45001,0.10999L16,40.38V37h2V40.38z M33,39H20v-2h13V39z M33,31h-5
		c-0.54999,0-1,0.45001-1,1s0.45001,1,1,1h5v2H11c-0.54999,0-1,0.45001-1,1s0.45001,1,1,1h3v2h-4c-1.63,0-3-1.37-3-3
		c0-1.65002,1.34998-3,3-3h10c0.54999,0,1-0.45001,1-1s-0.45001-1-1-1h-8V7h2v4c0,0.34998,0.17999,0.66998,0.46997,0.84998
		c0.30005,0.17999,0.67004,0.20001,0.98004,0.04004L17,11.12c0,0,1.54798,0.76902,1.54999,0.77002
		c0.29289,0.1455,0.68259,0.1459,0.98004-0.04004C19.82001,11.66998,20,11.34998,20,11V7h10.64001
		C30.52002,7.15997,30.37,7.29999,30.19,7.39996c-0.51001,0.29004-1.10999,0.29004-1.62,0
		c-0.47998-0.27997-1.09003-0.10999-1.35999,0.37l-2,3.46002c-0.28003,0.47998-0.12,1.09003,0.35999,1.37
		c0.51001,0.29004,0.81,0.82001,0.81,1.40002H15c-0.54999,0-1,0.45001-1,1v4c0,0.54999,0.45001,1,1,1h12.07001l0.14001,0.22998
		c0.26996,0.47998,0.88,0.64001,1.35999,0.37c0.51001-0.28998,1.10999-0.29999,1.62,0C30.70001,20.89001,31,21.40997,31,22
		c0,0.54999,0.45001,1,1,1h1V31z M25.21002,16.76996L25.91998,18H16v-2h9.10999C25.03998,16.25,25.07001,16.52997,25.21002,16.76996
		z M40.63,16.51996l-1.14001,1.96002C38.59998,18.26001,37.64001,18.38,36.81,18.87c-0.83002,0.47998-1.41998,1.23999-1.66998,2.13
		h-2.28003c-0.25-0.89001-0.83997-1.65002-1.66998-2.13s-1.78998-0.60999-2.67999-0.39001L27.37,16.51996
		C28.01001,15.84998,28.38,14.95996,28.38,14c0-0.96002-0.37-1.85004-1.01001-2.52002l1.14001-1.96002
		C29.40002,9.73999,30.35999,9.62,31.19,9.13c0.83002-0.48004,1.41998-1.23999,1.66998-2.13h2.28003
		c0.25,0.89001,0.83997,1.64996,1.66998,2.13c0.83002,0.48999,1.78998,0.60999,2.67999,0.38995L40.63,11.47998
		C39.98999,12.14996,39.62,13.03998,39.62,14C39.62,14.95996,39.98999,15.84998,40.63,16.51996z"/>
	<path d="M34,10c-2.20557,0-4,1.79443-4,4s1.79443,4,4,4s4-1.79443,4-4S36.20557,10,34,10z M34,16c-1.10303,0-2-0.89697-2-2
		s0.89697-2,2-2s2,0.89697,2,2S35.10303,16,34,16z"/>
	<path d="M19.29297,23.29297L17,25.58594l-1.29297-1.29297c-0.39062-0.39062-1.02344-0.39062-1.41406,0s-0.39062,1.02344,0,1.41406
		l2,2C16.48828,27.90234,16.74414,28,17,28s0.51172-0.09766,0.70703-0.29297l3-3c0.39062-0.39062,0.39062-1.02344,0-1.41406
		S19.68359,22.90234,19.29297,23.29297z"/>
	<path d="M29,27h-5c-0.55225,0-1,0.44775-1,1s0.44775,1,1,1h5c0.55225,0,1-0.44775,1-1S29.55225,27,29,27z"/>
	<path d="M29,23h-5c-0.55225,0-1,0.44775-1,1s0.44775,1,1,1h5c0.55225,0,1-0.44775,1-1S29.55225,23,29,23z"/>
</g>
</svg>
