<?xml version="1.0" encoding="utf-8"?>
<!-- Generator: Adobe Illustrator 27.3.1, SVG Export Plug-In . SVG Version: 6.00 Build 0)  -->
<svg version="1.1" id="Outline" xmlns="http://www.w3.org/2000/svg" xmlns:xlink="http://www.w3.org/1999/xlink" x="0px" y="0px"
	 viewBox="0 0 48 48" enable-background="new 0 0 48 48" xml:space="preserve">
<g>
	<circle cx="24" cy="6" r="1"/>
	<path d="M41,26.17999V22c0-4.54004-1.77002-8.81-4.96997-12.03003c-2.17004-2.14996-4.87006-3.69-7.81006-4.44
		C27.67999,5.39001,27.14001,5.71997,27,6.25c-0.14001,0.53998,0.19,1.07996,0.71997,1.21997
		c2.60004,0.66003,4.99005,2.02002,6.89001,3.92004C37.44,14.22998,39,18,39,22v4h-2.17999C36.40002,24.83997,35.29999,24,34,24
		c-1.65002,0-3,1.34998-3,3v8c0,1.29999,0.84003,2.39996,2,2.82001V38c0,0.54999-0.45001,1-1,1h-3.17999
		C28.40002,37.83997,27.29999,37,26,37c-1.65002,0-3,1.34998-3,3c0,1.64996,1.34998,3,3,3c1.29999,0,2.40002-0.84003,2.82001-2H32
		c1.65002,0,3-1.35004,3-3v-0.17999c0.84998-0.31,1.51001-0.97003,1.82001-1.82001H40c1.65002,0,3-1.35004,3-3v-4
		C43,27.70001,42.15997,26.59998,41,26.17999z M26,41c-0.54999,0-1-0.45001-1-1s0.45001-1,1-1s1,0.45001,1,1S26.54999,41,26,41z
		 M35,35c0,0.54999-0.45001,1-1,1s-1-0.45001-1-1v-8c0-0.54999,0.45001-1,1-1s1,0.45001,1,1V35z M41,33c0,0.54999-0.45001,1-1,1h-3
		v-6h3c0.54999,0,1,0.45001,1,1V33z"/>
	<path d="M21,6.25c-0.14001-0.53003-0.67999-0.85004-1.21997-0.72003c-0.76001,0.20001-1.46002,0.42999-2.15001,0.71002
		C11.28169,8.81637,7,15.14986,7,22v4.17999C5.84003,26.59998,5,27.70001,5,29v4c0,1.64996,1.34998,3,3,3h3.17999
		c0.41998,1.15997,1.52002,2,2.82001,2c1.65002,0,3-1.35004,3-3v-8c0-1.65002-1.34998-3-3-3c-1.29999,0-2.40002,0.83997-2.82001,2H9
		v-4c0-6.04655,3.76622-11.64174,9.38-13.90002c0.60999-0.25,1.22998-0.45996,1.90002-0.63C20.81,7.32996,21.14001,6.78998,21,6.25z
		 M13,27c0-0.54999,0.45001-1,1-1s1,0.45001,1,1v8c0,0.54999-0.45001,1-1,1s-1-0.45001-1-1V27z M11,28v6H8c-0.54999,0-1-0.45001-1-1
		v-4c0-0.54999,0.45001-1,1-1H11z"/>
</g>
</svg>
