<?xml version="1.0" encoding="utf-8"?>
<!-- Generator: Adobe Illustrator 27.3.1, SVG Export Plug-In . SVG Version: 6.00 Build 0)  -->
<svg version="1.1" id="Outline" xmlns="http://www.w3.org/2000/svg" xmlns:xlink="http://www.w3.org/1999/xlink" x="0px" y="0px"
	 viewBox="0 0 48 48" enable-background="new 0 0 48 48" xml:space="preserve">
<g>
	<circle cx="6" cy="19" r="1"/>
	<path d="M40,21h-1V8c0-1.6543-1.3457-3-3-3H8C6.3457,5,5,6.3457,5,8v7c0,0.55225,0.44727,1,1,1s1-0.44775,1-1v-4h30v10H24
		c-1.6543,0-3,1.3457-3,3v13H8c-0.55176,0-1-0.44824-1-1V23c0-0.55225-0.44727-1-1-1s-1,0.44775-1,1v13c0,1.6543,1.3457,3,3,3
		h13.78027c0.5495,0.60931,1.33655,1,2.21973,1h14.58594c0,0,2.7001,2.7001,2.70702,2.70702
		c0.26416,0.26416,0.72418,0.36942,1.08986,0.21681C42.75684,42.76953,43,42.4043,43,42V24C43,22.3457,41.6543,21,40,21z M7,9V8
		c0-0.55127,0.44824-1,1-1h28c0.55176,0,1,0.44873,1,1v1H7z M41,39.58594l-1.29297-1.29297C39.51953,38.10547,39.26562,38,39,38H24
		c-0.55176,0-1-0.44824-1-1V24c0-0.55127,0.44824-1,1-1h16c0.55176,0,1,0.44873,1,1V39.58594z"/>
	<path d="M32,25c-1.6543,0-3,1.3457-3,3c0,0.55273,0.44727,1,1,1s1-0.44727,1-1c0-0.55176,0.44824-1,1-1s1,0.44824,1,1
		c0,0.36914-0.20215,0.70703-0.52637,0.88184C31.56445,29.36914,31,30.35742,31,31.45996V32c0,0.55273,0.44727,1,1,1s1-0.44727,1-1
		v-0.54004c0-0.35938,0.16504-0.67969,0.4209-0.81738C34.39453,30.11816,35,29.10547,35,28C35,26.3457,33.6543,25,32,25z"/>
	<circle cx="32" cy="35.25" r="1"/>
	<path d="M10,15h24c0.55273,0,1-0.44775,1-1s-0.44727-1-1-1H10c-0.55273,0-1,0.44775-1,1S9.44727,15,10,15z"/>
	<path d="M10,19h24c0.55273,0,1-0.44775,1-1s-0.44727-1-1-1H10c-0.55273,0-1,0.44775-1,1S9.44727,19,10,19z"/>
	<path d="M10,35h8c0.55273,0,1-0.44727,1-1s-0.44727-1-1-1h-8c-0.55273,0-1,0.44727-1,1S9.44727,35,10,35z"/>
	<path d="M10,31h8c0.55273,0,1-0.44727,1-1s-0.44727-1-1-1h-8c-0.55273,0-1,0.44727-1,1S9.44727,31,10,31z"/>
	<path d="M10,27h8c0.55273,0,1-0.44727,1-1s-0.44727-1-1-1h-8c-0.55273,0-1,0.44727-1,1S9.44727,27,10,27z"/>
	<path d="M10,23h8c0.55273,0,1-0.44775,1-1s-0.44727-1-1-1h-8c-0.55273,0-1,0.44775-1,1S9.44727,23,10,23z"/>
</g>
</svg>
