<?xml version="1.0" encoding="utf-8"?>
<!-- Generator: Adobe Illustrator 27.3.1, SVG Export Plug-In . SVG Version: 6.00 Build 0)  -->
<svg version="1.1" id="Outline" xmlns="http://www.w3.org/2000/svg" xmlns:xlink="http://www.w3.org/1999/xlink" x="0px" y="0px"
	 viewBox="0 0 48 48" enable-background="new 0 0 48 48" xml:space="preserve">
<g>
	<circle cx="24" cy="32" r="1"/>
	<path d="M18,29h9c0.55225,0,1-0.44775,1-1s-0.44775-1-1-1h-9c-0.55225,0-1,0.44775-1,1S17.44775,29,18,29z"/>
	<circle cx="33" cy="10" r="1"/>
	<path d="M35,18h-1v-4c0-0.55225-0.44775-1-1-1h-2c-0.55225,0-1,0.44775-1,1s0.44775,1,1,1h1v3h-1c-0.55225,0-1,0.44775-1,1
		s0.44775,1,1,1h4c0.55225,0,1-0.44775,1-1S35.55225,18,35,18z"/>
	<path d="M33,5H10c-2.76001,0-5,2.23999-5,5v26c0,2.70996,2.28998,5,5,5h4v1c0,0.34998,0.17999,0.66998,0.46997,0.84998
		c0.30005,0.17999,0.67004,0.20001,0.98004,0.04004L17,42.12c0,0,1.54999,0.77002,1.55021,0.77013
		c0.31247,0.156,0.68276,0.14553,0.97982-0.04015C19.82001,42.66998,20,42.34998,20,42v-1h14c0.54999,0,1-0.45001,1-1V24.79999
		C39.56,23.87,43,19.82996,43,15C43,9.48999,38.51001,5,33,5z M16,7h2v2.38c0,0-0.54999-0.27002-0.55016-0.27011
		c-0.28993-0.1449-0.60959-0.14242-0.89985,0.00009C16.54998,9.10999,16,9.38,16,9.38V7z M7,10c0-1.65002,1.34998-3,3-3v2.89001
		C9,9.94,7.98999,10.06,7,10.26001V10z M7,12.31c0.97998-0.22003,2-0.35999,3-0.41998v5.69995c-0.98999,0.06-2,0.17999-3,0.38V12.31
		z M7,20.01996c0.98999-0.21997,2-0.37,3-0.42999v6.30005C9,25.94,7.98999,26.06,7,26.26001V20.01996z M7,28.31
		c0.97998-0.22003,2-0.35999,3-0.41998V31c-1.12,0-2.15997,0.37-3,1V28.31z M18,40.38c0,0-0.54999-0.27002-0.55008-0.27007
		c-0.2909-0.14541-0.60857-0.14301-0.89993,0.00005C16.54998,40.10999,16,40.38,16,40.38V37h2V40.38z M33,39H20v-2h13V39z M33,31h-5
		c-0.54999,0-1,0.45001-1,1s0.45001,1,1,1h5v2H11c-0.54999,0-1,0.45001-1,1s0.45001,1,1,1h3v2h-4c-1.63,0-3-1.37-3-3
		c0-1.65002,1.34998-3,3-3h10c0.54999,0,1-0.45001,1-1s-0.45001-1-1-1h-8V7h2v4c0,0.34998,0.17999,0.66998,0.46997,0.84998
		c0.30005,0.17999,0.67004,0.20001,0.98004,0.04004L17,11.12c0,0,1.54999,0.77002,1.55018,0.77011
		c0.31381,0.15669,0.68092,0.14542,0.97985-0.04013C19.82001,11.66998,20,11.34998,20,11V7h7.03003
		c-2.19,1.64001-3.69,4.14001-3.98004,7H15c-0.54999,0-1,0.45001-1,1v5c0,0.54999,0.45001,1,1,1h10.02002
		c0.57001,0.76001,1.25,1.42999,2.01001,2H15c-0.54999,0-1,0.45001-1,1s0.45001,1,1,1h18V31z M23.84003,19H16v-3h7.04999
		C23.15997,17.06,23.42999,18.06,23.84003,19z M33,23c-4.40997,0-8-3.59003-8-8c0-4.41003,3.59003-8,8-8s8,3.58997,8,8
		C41,19.40997,37.40997,23,33,23z"/>
</g>
</svg>
