<?xml version="1.0" encoding="utf-8"?>
<!-- Generator: Adobe Illustrator 27.3.1, SVG Export Plug-In . SVG Version: 6.00 Build 0)  -->
<svg version="1.1" id="Outline" xmlns="http://www.w3.org/2000/svg" xmlns:xlink="http://www.w3.org/1999/xlink" x="0px" y="0px"
	 viewBox="0 0 48 48" enable-background="new 0 0 48 48" xml:space="preserve">
<g>
	<circle cx="8" cy="24" r="1"/>
	<path d="M41,35V16c0-1.6543-1.3457-3-3-3h-5V8c0-0.45898-0.31251-0.8584-0.75781-0.96973l-8-2
		c-0.1582-0.04102-0.32617-0.04102-0.48438,0l-8,2C15.31249,7.1416,15,7.54102,15,8v5h-5c-1.6543,0-3,1.3457-3,3v4
		c0,0.55273,0.44727,1,1,1s1-0.44727,1-1v-4c0-0.55176,0.44824-1,1-1h5v1c0,4.80078,7.56543,10.21777,8.42773,10.82031
		C23.59961,26.94043,23.7998,27,24,27s0.40039-0.05957,0.57227-0.17969C25.43457,26.21777,33,20.80078,33,16v-1h5
		c0.55176,0,1,0.44824,1,1v19c0,0-10,0-10.00001,0c-0.26419,0-0.5219,0.10722-0.7083,0.29425L26.58594,37h-5.17188
		c0,0-1.70443-1.70443-1.70575-1.70575C19.52149,35.10742,19.26432,35,19,35H9v-7c0-0.55273-0.44727-1-1-1s-1,0.44727-1,1v7
		c-1.10254,0-2,0.89746-2,2v3c0,1.6543,1.3457,3,3,3h32c1.6543,0,3-1.3457,3-3v-3C43,35.89746,42.10254,35,41,35z M31,15h-6V7.28125
		l6,1.5V15z M17,8.78125l6-1.5V15h-6V8.78125z M17.1651,17H23v6.98669C20.83081,22.2301,17.87341,19.39935,17.1651,17z M25,23.98572
		V17h5.83453C30.12537,19.39642,27.16827,22.22784,25,23.98572z M22,39h4v2h-4V39z M7,40l-0.00195-3H7h1h10.58594L20,38.41406V41H8
		C7.44824,41,7,40.55176,7,40z M41,40c0,0.55176-0.44824,1-1,1H28v-2.58594L29.41406,37H32v1c0,0.55273,0.44727,1,1,1s1-0.44727,1-1
		v-1h2v1c0,0.55273,0.44727,1,1,1s1-0.44727,1-1v-1h2h1V40z"/>
	<circle cx="24" cy="34" r="1"/>
	<path d="M12,29h4c0.55273,0,1-0.44727,1-1s-0.44727-1-1-1h-4c-0.55273,0-1,0.44727-1,1S11.44727,29,12,29z"/>
	<path d="M12,33h6c0.55273,0,1-0.44727,1-1s-0.44727-1-1-1h-6c-0.55273,0-1,0.44727-1,1S11.44727,33,12,33z"/>
	<path d="M36,29c0.55273,0,1-0.44727,1-1s-0.44727-1-1-1h-4c-0.55273,0-1,0.44727-1,1s0.44727,1,1,1H36z"/>
	<path d="M29,32c0,0.55273,0.44727,1,1,1h6c0.55273,0,1-0.44727,1-1s-0.44727-1-1-1h-6C29.44727,31,29,31.44727,29,32z"/>
</g>
</svg>
