<?xml version="1.0" encoding="utf-8"?>
<!-- Generator: Adobe Illustrator 27.3.1, SVG Export Plug-In . SVG Version: 6.00 Build 0)  -->
<svg version="1.1" id="Outline" xmlns="http://www.w3.org/2000/svg" xmlns:xlink="http://www.w3.org/1999/xlink" x="0px" y="0px"
	 viewBox="0 0 48 48" enable-background="new 0 0 48 48" xml:space="preserve">
<g>
	<circle cx="6" cy="20" r="1"/>
	<path d="M10,17c-0.55225,0-1,0.44775-1,1v8c0,0.55273,0.44775,1,1,1s1-0.44727,1-1v-3h2v3c0,0.55273,0.44775,1,1,1s1-0.44727,1-1
		v-8c0-0.55225-0.44775-1-1-1s-1,0.44775-1,1v3h-2v-3C11,17.44775,10.55225,17,10,17z"/>
	<path d="M20,19c0.55225,0,1-0.44775,1-1s-0.44775-1-1-1h-2c-0.55225,0-1,0.44775-1,1v8c0,0.55273,0.44775,1,1,1h2
		c0.55225,0,1-0.44727,1-1s-0.44775-1-1-1h-1v-2h1c0.55225,0,1-0.44775,1-1s-0.44775-1-1-1h-1v-2H20z"/>
	<path d="M24,17c-0.55225,0-1,0.44775-1,1v8c0,0.55273,0.44775,1,1,1h2c0.55273,0,1-0.44727,1-1s-0.44727-1-1-1h-1v-7
		C25,17.44775,24.55225,17,24,17z"/>
	<path d="M31,26v-3h1c1.6543,0,3-1.3457,3-3s-1.3457-3-3-3h-2c-0.55273,0-1,0.44775-1,1v1v3v4c0,0.55273,0.44727,1,1,1
		S31,26.55273,31,26z M32,19c0.55176,0,1,0.44873,1,1s-0.44824,1-1,1h-1v-2H32z"/>
	<path d="M40,5H28c-1.65002,0-3,1.34998-3,3v1H8c-1.65002,0-3,1.34998-3,3v4c0,0.54999,0.45001,1,1,1s1-0.45001,1-1v-4
		c0-0.54999,0.45001-1,1-1h17v1c0,1.64996,1.34998,3,3,3h6.41998c0.63,1,1.52002,1.78998,2.58002,2.31V29H7v-5
		c0-0.54999-0.45001-1-1-1s-1,0.45001-1,1v8c0,1.64996,1.34998,3,3,3h10v2h-3c-1.09998,0-2,0.89996-2,2v2c0,1.09998,0.90002,2,2,2
		h16c1.09998,0,2-0.90002,2-2v-2c0-1.10004-0.90002-2-2-2h-3v-2h8c1.65002,0,3-1.35004,3-3V18c0.21002,0,0.40997-0.06,0.58002-0.19
		C39.84998,17.62,40,17.32001,40,17v-2c1.65002,0,3-1.35004,3-3V8C43,6.34998,41.65002,5,40,5z M10,33H8c-0.54999,0-1-0.45001-1-1
		v-1h3V33z M15,33h-3v-2h3V33z M31,39v2H15v-2H31z M20,37v-2h6v2H20z M37,32c0,0.54999-0.45001,1-1,1H17v-2h20V32z M41,12
		c0,0.54999-0.45001,1-1,1h-1c-0.54999,0-1,0.45001-1,1v1.58997c-0.90997-0.41998-1.65002-1.13-2.10999-2.03998
		C35.71997,13.20996,35.38,13,35,13h-7c-0.54999,0-1-0.45001-1-1V8c0-0.54999,0.45001-1,1-1h12c0.54999,0,1,0.45001,1,1V12z"/>
	<circle cx="30" cy="10" r="1"/>
	<circle cx="34" cy="10" r="1"/>
	<circle cx="38" cy="10" r="1"/>
</g>
</svg>
