<?xml version="1.0" encoding="utf-8"?>
<!-- Generator: Adobe Illustrator 27.3.1, SVG Export Plug-In . SVG Version: 6.00 Build 0)  -->
<svg version="1.1" id="Outline" xmlns="http://www.w3.org/2000/svg" xmlns:xlink="http://www.w3.org/1999/xlink" x="0px" y="0px"
	 viewBox="0 0 48 48" enable-background="new 0 0 48 48" xml:space="preserve">
<g>
	<circle cx="6" cy="19" r="1"/>
	<path d="M42.42773,15.40234C41.9209,15.10938,41.61914,14.58545,41.61914,14s0.30176-1.10938,0.80859-1.40234
		c0.47852-0.27588,0.64258-0.8877,0.36621-1.36572c0,0-1.99661-3.458-2-3.46386c-0.27261-0.47215-0.89431-0.63984-1.36621-0.36573
		c-0.50781,0.29199-1.11426,0.2915-1.61816-0.00049C37.30273,7.10938,37,6.58545,37,6c0-0.55225-0.44727-1-1-1h-4
		c-0.55273,0-1,0.44775-1,1c0,0.42358-0.16266,0.81177-0.4422,1.10663l-8.31561-2.07684c-0.1582-0.04004-0.32617-0.04004-0.48438,0
		L8.78809,8.27002c-0.2168,0.0542-0.4082,0.17871-0.5459,0.35449l-3.03027,3.87988C5.07422,12.68018,5,12.89697,5,13.12012V15
		c0,0.55225,0.44727,1,1,1s1-0.44775,1-1v-1.53564l2.60645-3.3374L22,7.03076l4.922,1.22925l-1.03815,1.79803L22.24219,9.1499
		c-0.16113-0.04004-0.32617-0.04004-0.48535,0l-10.66016,2.66992c-0.21582,0.0542-0.40723,0.17871-0.54395,0.35352L9.21289,13.8833
		C9.0752,14.05908,9,14.27637,9,14.5V24c0,4.49805,6.71094,10.43359,12.45703,14.14941
		c0.16504,0.10645,0.35449,0.16016,0.54297,0.16016s0.37793-0.05371,0.54297-0.16016C28.28906,34.43359,35,28.49805,35,24v-1h1
		c0.55273,0,1-0.44775,1-1v2c0,7.31836-12.34766,15.22266-15,16.83594C19.34668,39.22363,7,31.3252,7,24v-1c0-0.55225-0.44727-1-1-1
		s-1,0.44775-1,1v1c0,9.3125,15.8291,18.48242,16.50293,18.86816C21.65723,42.95605,21.82812,43,22,43
		s0.34277-0.04395,0.49707-0.13184C23.1709,42.48242,39,33.3125,39,24v-3.57123c0.14695,0.03637,0.29109,0.09007,0.42767,0.16885
		c0.472,0.27224,1.09453,0.10388,1.36628-0.36569l2-3.46387C43.07031,16.29004,42.90625,15.67822,42.42773,15.40234z
		 M27.81348,20.69775c0.00879,0.00238,0.01801-0.00037,0.02686,0.00177C27.93585,21.12262,28,21.55426,28,22
		c0,3.30859-2.69141,6-6,6s-6-2.69141-6-6s2.69141-6,6-6c1.22821,0,2.38617,0.37012,3.37085,1.05353l1.83521,3.17841
		C27.33887,20.46143,27.55762,20.62939,27.81348,20.69775z M33,24c0,3.18262-5.44629,8.41699-11,12.11328
		C16.44629,32.41699,11,27.18262,11,24v-9.15479l0.91504-1.16846l10.08594-2.52588l3.10046,0.77325
		c0.05408,0.27295,0.21075,0.52362,0.47083,0.67352C26.0791,12.89062,26.38086,13.41455,26.38086,14
		c0,0.40948-0.15491,0.78369-0.41705,1.07501C24.76788,14.38177,23.4198,14,22,14c-4.41113,0-8,3.58887-8,8s3.58887,8,8,8
		s8-3.58887,8-8c0-0.52545-0.05414-1.04144-0.1543-1.5459c0.11786,0.03607,0.23444,0.08002,0.34473,0.14404
		C30.69727,20.89062,31,21.41455,31,22c0,0.55225,0.44727,1,1,1h1V24z M40.63086,16.51514l-1.1377,1.96973
		c-0.5824-0.14795-1.1839-0.13025-1.76355,0.0199c-0.04285,0.01227-0.08936,0.01355-0.1297,0.03125
		c-0.27057,0.08093-0.53687,0.18335-0.79034,0.32971C35.97559,19.34717,35.38867,20.10938,35.1377,21H32.8623
		c-0.25098-0.89062-0.83789-1.65283-1.67188-2.13428c-0.83301-0.48096-1.78418-0.60938-2.68359-0.38086l-1.1377-1.96973
		c0.64551-0.66309,1.01172-1.55225,1.01172-2.51514s-0.36621-1.85205-1.01172-2.51514l1.1377-1.96973
		c0.89941,0.22803,1.85059,0.1001,2.68359-0.38086c0.03015-0.0174,0.05408-0.04144,0.08362-0.05957
		c0.05176-0.02753,0.0946-0.06415,0.14087-0.10028C32.12384,8.49182,32.63568,7.80414,32.8623,7h2.27539
		c0.25098,0.89062,0.83789,1.65283,1.67188,2.13428c0.83301,0.48096,1.78418,0.60889,2.68359,0.38086l1.1377,1.96973
		C39.98535,12.14795,39.61914,13.03711,39.61914,14S39.98535,15.85205,40.63086,16.51514z"/>
	<path d="M34,10c-2.20605,0-4,1.79443-4,4s1.79395,4,4,4s4-1.79443,4-4S36.20605,10,34,10z M34,16c-1.10254,0-2-0.89697-2-2
		s0.89746-2,2-2s2,0.89697,2,2S35.10254,16,34,16z"/>
</g>
</svg>
