<?xml version="1.0" encoding="utf-8"?>
<!-- Generator: Adobe Illustrator 27.3.1, SVG Export Plug-In . SVG Version: 6.00 Build 0)  -->
<svg version="1.1" id="Outline" xmlns="http://www.w3.org/2000/svg" xmlns:xlink="http://www.w3.org/1999/xlink" x="0px" y="0px"
	 viewBox="0 0 48 48" enable-background="new 0 0 48 48" xml:space="preserve">
<g>
	<circle cx="41" cy="14" r="1"/>
	<path d="M17,9c-3.85986,0-7,3.14014-7,7c0,0.55225,0.44775,1,1,1s1-0.44775,1-1c0-2.75684,2.24316-5,5-5c0.55225,0,1-0.44775,1-1
		S17.55225,9,17,9z"/>
	<path d="M40.48389,16.99512c-0.4834-0.26758-1.0918-0.09229-1.35889,0.39111C37.89258,19.61523,35.5459,21,33,21
		c-2.06818,0-3.97382-0.89539-5.30884-2.4563C27.88593,17.72565,28,16.87677,28,16c0-1.83875-0.45923-3.57031-1.26025-5.09521
		C27.91492,8.52509,30.31445,7,33,7c2.5459,0,4.89258,1.38477,6.125,3.61377c0.26709,0.48389,0.87549,0.65918,1.35889,0.39111
		c0.4834-0.26709,0.65869-0.87549,0.39111-1.35889C39.29102,6.78027,36.27344,5,33,5c-3.06738,0-5.84631,1.5498-7.49072,4.03943
		C23.49036,6.57581,20.42633,5,17,5C10.93457,5,6,9.93457,6,16c0,4.66492,2.92377,8.65076,7.03107,10.24744l0.99872,3.99475
		C14.14111,30.6875,14.54102,31,15,31h1v2h-1c-0.55225,0-1,0.44727-1,1v6c0,1.6543,1.3457,3,3,3s3-1.3457,3-3v-6
		c0-0.55273-0.44775-1-1-1h-1v-2h1c0.45898,0,0.85889-0.3125,0.97021-0.75781l0.99872-3.99475
		c2.64276-1.02734,4.78766-3.04395,5.98541-5.59705C28.59741,22.15192,30.72113,23,33,23c3.27344,0,6.29102-1.78027,7.875-4.646
		C41.14258,17.87061,40.96729,17.26221,40.48389,16.99512z M18,40c0,0.55176-0.44873,1-1,1s-1-0.44824-1-1v-5h2V40z M18.71924,27
		l-0.5,2h-2.43848l-0.5-2H18.71924z M17,25c-4.9624,0-9-4.0376-9-9s4.0376-9,9-9s9,4.0376,9,9S21.9624,25,17,25z"/>
	<path d="M34,14.70996c0-0.35889,0.16504-0.67969,0.41992-0.81689C35.39453,13.36865,36,12.35596,36,11.25c0-1.6543-1.3457-3-3-3
		s-3,1.3457-3,3c0,0.55225,0.44775,1,1,1s1-0.44775,1-1c0-0.55127,0.44873-1,1-1s1,0.44873,1,1
		c0,0.36865-0.20215,0.70654-0.52832,0.88184C32.56396,12.62109,32,13.60889,32,14.70996V15.25c0,0.55225,0.44775,1,1,1
		s1-0.44775,1-1V14.70996z"/>
	<circle cx="33" cy="18.5" r="1"/>
</g>
</svg>
