<?xml version="1.0" encoding="utf-8"?>
<!-- Generator: Adobe Illustrator 27.3.1, SVG Export Plug-In . SVG Version: 6.00 Build 0)  -->
<svg version="1.1" id="Outline" xmlns="http://www.w3.org/2000/svg" xmlns:xlink="http://www.w3.org/1999/xlink" x="0px" y="0px"
	 viewBox="0 0 48 48" enable-background="new 0 0 48 48" xml:space="preserve">
<g>
	<circle cx="20" cy="38" r="1"/>
	<path d="M42,37h-4.78516l-1.33301-2l1.33301-2c0,0,4.77532,0,4.78514,0c0.72117,0,1.21342-0.77399,0.90431-1.42725
		C41.57129,28.75195,38.80273,27,35.67969,27c-2.90527,0-5.50391,1.5166-6.9248,4h-15.7627C12.125,30.35254,11.07617,30,10,30
		c-2.75684,0-5,2.24316-5,5s2.24316,5,5,5c1.07617,0,2.125-0.35254,2.99219-1H16c0.55273,0,1-0.44775,1-1s-0.44727-1-1-1h-3.36035
		c-0.24219,0-0.47559,0.08789-0.6582,0.24707C11.42578,37.73242,10.72168,38,10,38c-1.6543,0-3-1.3457-3-3s1.3457-3,3-3
		c0.72168,0,1.42578,0.26758,1.98145,0.75293C12.16406,32.91211,12.39746,33,12.63965,33h16.7207
		c0.38672,0,0.73926-0.22314,0.9043-0.57275C31.26367,30.31348,33.33887,29,35.67969,29c1.75586,0,3.36328,0.73877,4.47754,2
		h-3.47754c-0.33398,0-0.64648,0.16699-0.83203,0.44531l-2,3c-0.22363,0.33594-0.22363,0.77344,0,1.10938l2,3
		C36.0332,38.83301,36.3457,39,36.67969,39h3.47754c-1.11426,1.26123-2.72168,2-4.47754,2
		c-2.34082,0-4.41602-1.31348-5.41504-3.42725C30.09961,37.22314,29.74707,37,29.36035,37H24c-0.55273,0-1,0.44775-1,1
		s0.44727,1,1,1h4.75488c1.4209,2.4834,4.01953,4,6.9248,4c3.12299,0,5.89151-1.75189,7.22454-4.57261
		C43.21238,37.77534,42.71663,37,42,37z"/>
	<circle cx="10" cy="35" r="1"/>
	<path d="M12.97363,19.90186c-0.47852,0.27637-0.64258,0.88818-0.36621,1.36621l2,3.46387
		c0.27539,0.47803,0.88867,0.6416,1.36621,0.36621c1.0498-0.60596,2.30273-0.60498,3.35059,0C20.37402,25.7041,21,26.78857,21,28
		c0,0.55225,0.44727,1,1,1h4c0.55273,0,1-0.44775,1-1c0-1.21143,0.62598-2.2959,1.67578-2.90186
		c1.04785-0.60498,2.30078-0.60596,3.35059,0c0.47656,0.27539,1.08887,0.11182,1.36621-0.36621l2-3.46387
		c0.27637-0.47803,0.1123-1.08984-0.36621-1.36621C33.97754,19.29639,33.35059,18.21143,33.35059,17
		s0.62695-2.29639,1.67578-2.90186c0.47852-0.27637,0.64258-0.88818,0.36621-1.36621l-2-3.46387
		c-0.27734-0.47852-0.88965-0.64209-1.36621-0.36621c-1.0498,0.60596-2.30273,0.60498-3.35059,0C27.62598,8.2959,27,7.21143,27,6
		c0-0.55225-0.44727-1-1-1h-4c-0.55273,0-1,0.44775-1,1c0,1.21143-0.62598,2.2959-1.67578,2.90186
		c-1.04785,0.60498-2.30078,0.60596-3.35059,0c-0.47754-0.27588-1.09082-0.1123-1.36621,0.36621l-2,3.46387
		c-0.27637,0.47803-0.1123,1.08984,0.36621,1.36621c1.04883,0.60547,1.67578,1.69043,1.67578,2.90186
		S14.02246,19.29639,12.97363,19.90186z M14.79395,12.94482l1.0918-1.88965c1.45508,0.51562,3.05859,0.375,4.43848-0.42139
		C21.70508,9.83691,22.62695,8.52051,22.90918,7h2.18164c0.28223,1.52051,1.2041,2.83691,2.58496,3.63379
		c1.37891,0.79688,2.98145,0.93701,4.43848,0.42139l1.0918,1.88965C32.03027,13.94971,31.35059,15.40625,31.35059,17
		s0.67969,3.05029,1.85547,4.05518l-1.0918,1.88965c-1.45703-0.51611-3.06055-0.37598-4.43848,0.42139
		C26.29492,24.16309,25.37305,25.47949,25.09082,27h-2.18164c-0.28223-1.52051-1.2041-2.83691-2.58496-3.63379
		c-1.37988-0.79639-2.98047-0.93799-4.43848-0.42139l-1.0918-1.88965c1.17578-1.00488,1.85547-2.46143,1.85547-4.05518
		S15.96973,13.94971,14.79395,12.94482z"/>
	<path d="M24,23c3.30859,0,6-2.69141,6-6s-2.69141-6-6-6s-6,2.69141-6,6S20.69141,23,24,23z M24,13c2.20605,0,4,1.79443,4,4
		s-1.79395,4-4,4s-4-1.79443-4-4S21.79395,13,24,13z"/>
</g>
</svg>
