<?xml version="1.0" encoding="utf-8"?>
<!-- Generator: Adobe Illustrator 27.3.1, SVG Export Plug-In . SVG Version: 6.00 Build 0)  -->
<svg version="1.1" id="Outline" xmlns="http://www.w3.org/2000/svg" xmlns:xlink="http://www.w3.org/1999/xlink" x="0px" y="0px"
	 viewBox="0 0 48 48" enable-background="new 0 0 48 48" xml:space="preserve">
<g>
	<circle cx="6" cy="17" r="1"/>
	<path d="M40,6H8C6.34998,6,5,7.34998,5,9v4c0,0.54999,0.45001,1,1,1s1-0.45001,1-1V9c0-0.54999,0.45001-1,1-1h32
		c0.54999,0,1,0.45001,1,1v19h-2v-2.44c0-1.38-0.92999-2.57001-2.27002-2.91003l-0.19995-0.04999
		C36.82001,22.14001,37,21.58997,37,21v-1c0-1.65002-1.34998-3-3-3s-3,1.34998-3,3v1c0,0.58997,0.17999,1.14001,0.46997,1.59998
		l-0.19995,0.04999C29.92999,22.98999,29,24.17999,29,25.56V28H7v-7c0-0.54999-0.45001-1-1-1s-1,0.45001-1,1v10
		c0,1.64996,1.34998,3,3,3h11v2h-3c-1.09998,0-2,0.89996-2,2v2c0,1.09998,0.90002,2,2,2h16c1.09998,0,2-0.90002,2-2v-2
		c0-1.10004-0.90002-2-2-2h-3v-2h11c1.65002,0,3-1.35004,3-3V9C43,7.34998,41.65002,6,40,6z M33,20c0-0.54999,0.45001-1,1-1
		s1,0.45001,1,1v1c0,0.54999-0.45001,1-1,1s-1-0.45001-1-1V20z M31,25.56c0-0.46002,0.31-0.85999,0.76001-0.97003L33,24.27997V25
		c0,0.54999,0.45001,1,1,1s1-0.45001,1-1v-0.72003l1.23999,0.31C36.69,24.70001,37,25.09998,37,25.56V28h-6V25.56z M10,32H8
		c-0.54999,0-1-0.45001-1-1v-1h3V32z M15,32h-3v-2h3V32z M32,38v2H16v-2H32z M21,36v-2h6v2H21z M41,31c0,0.54999-0.45001,1-1,1H17
		v-2h24V31z"/>
	<path d="M18.4165,20c0.78516,1.25049,1.96875,2.18262,3.38819,2.65576c0.56353,0.18784,1.22296,0.55598,1.77978,0.15527
		C23.8457,22.62305,24,22.32129,24,22v-2c1.6543,0,3-1.3457,3-3v-4c0-1.6543-1.3457-3-3-3H12c-1.6543,0-3,1.3457-3,3v4
		c0,1.6543,1.3457,3,3,3H18.4165z M11,17v-4c0-0.55127,0.44873-1,1-1h12c0.55127,0,1,0.44873,1,1v4c0,0.55127-0.44873,1-1,1h-1
		c-0.55225,0-1,0.44775-1,1v1.58691c-0.91309-0.41553-1.65088-1.12451-2.10547-2.03418C19.7251,18.21387,19.37891,18,19,18h-7
		C11.44873,18,11,17.55127,11,17z"/>
	<circle cx="14" cy="15" r="1"/>
	<circle cx="18" cy="15" r="1"/>
	<circle cx="22" cy="15" r="1"/>
</g>
</svg>
