<?xml version="1.0" encoding="UTF-8"?>
<svg xmlns="http://www.w3.org/2000/svg" version="1.1" viewBox="0 0 48 48">
  <!-- Generator: Adobe Illustrator 28.7.1, SVG Export Plug-In . SVG Version: 1.2.0 Build 142)  -->
  <g>
    <g id="GLYPH">
      <g>
        <path d="M24,15c-5.17664,0-9.44592,3.95367-9.94934,9h2.94934c.55225,0,1,.44775,1,1s-.44775,1-1,1h-2.94934c.47058,4.71729,4.23206,8.47876,8.94934,8.94934v-2.94934c0-.55225.44775-1,1-1s1,.44775,1,1v2.94934c5.04633-.50342,9-4.77271,9-9.94934,0-5.51416-4.48584-10-10-10ZM32,25c0,.55225-.44775,1-1,1h-4.18427c-.41412,1.1615-1.51379,2-2.81573,2-1.6543,0-3-1.3457-3-3,0-1.30194.8385-2.40161,2-2.81573v-4.18427c0-.55225.44775-1,1-1s1,.44775,1,1v4.18427c.84717.30206,1.51367.96857,1.81573,1.81573h4.18427c.55225,0,1,.44775,1,1Z"/>
        <circle cx="24" cy="25" r="1"/>
        <path d="M25,10.04999v-3.04999h3c.54999,0,1-.45001,1-1s-.45001-1-1-1h-8c-.54999,0-1,.45001-1,1s.45001,1,1,1h3v3.04999c-7.79999.52002-14,7.02002-14,14.95001,0,8.26996,6.72998,15,15,15s15-6.73004,15-15c0-7.92999-6.20001-14.42999-14-14.95001ZM24,37c-6.62,0-12-5.38-12-12s5.38-12,12-12,12,5.38,12,12-5.38,12-12,12Z"/>
        <path d="M9.37994,39.73004c-.69873.86261-.39581,2.21844.44,2.85986.85614.65698,2.18567.49988,2.81006-.3999l2.29999-2.83002c-1.15997-.71997-2.21997-1.59003-3.15997-2.58002,0,0-2.38879,2.94849-2.39008,2.95007Z"/>
        <path d="M16.70001,9.64996c-.92999-1.01996-2.27002-1.64996-3.70001-1.64996-2.76001,0-5,2.23999-5,5,0,1.31.5,2.51996,1.34003,3.41998,1.70996-2.92999,4.27997-5.29999,7.35999-6.77002Z"/>
        <path d="M36.22998,36.77997c-.94.98999-2,1.86005-3.15997,2.58002,0,0,2.29425,2.82294,2.29999,2.83002.69165.85107,1.91193,1.09271,2.80988.40002.8833-.6814,1.0708-1.94446.44012-2.86005l-2.39001-2.95001Z"/>
        <path d="M38.65997,16.41998c.84003-.90002,1.34003-2.10999,1.34003-3.41998,0-2.76001-2.23999-5-5-5-1.42999,0-2.77002.63-3.70001,1.64996,3.08002,1.47003,5.65002,3.84003,7.35999,6.77002Z"/>
      </g>
    </g>
  </g>
</svg>