<?xml version="1.0" encoding="UTF-8"?>
<svg xmlns="http://www.w3.org/2000/svg" version="1.1" viewBox="0 0 48 48">
  <!-- Generator: Adobe Illustrator 28.7.1, SVG Export Plug-In . SVG Version: 1.2.0 Build 142)  -->
  <g>
    <g id="GLYPH">
      <g>
        <path d="M13,27c-4.41144,0-8,3.58899-8,8s3.58856,8,8,8,8-3.58899,8-8-3.58856-8-8-8ZM13,40c-.55231,0-1-.44775-1-1,0-.55231.44769-1,1-1s1,.44769,1,1c0,.55225-.44769,1-1,1ZM14,35c0,.55225-.44727,1-1,1s-1-.44775-1-1v-4c0-.55225.44727-1,1-1s1,.44775,1,1v4Z"/>
        <rect x="27" y="5" width="2" height="6"/>
        <rect x="19" y="5" width="2" height="6"/>
        <rect x="35" y="5" width="2" height="6"/>
        <rect x="29" y="29" width="2" height="2"/>
        <path d="M41,8h-2v4c0,.54999-.45001,1-1,1h-4c-.54999,0-1-.45001-1-1v-4h-2v4c0,.54999-.45001,1-1,1h-4c-.54999,0-1-.45001-1-1v-4h-2v4c0,.54999-.45001,1-1,1h-4c-.54999,0-1-.45001-1-1v-4h-8c-1.09998,0-2,.89996-2,2v5h36v-5c0-1.10004-.90002-2-2-2Z"/>
        <rect x="37" y="29" width="2" height="2"/>
        <rect x="37" y="21" width="2" height="2"/>
        <path d="M7,27.01001c1.66998-1.26001,3.75-2.01001,6-2.01001,5.51001,0,10,4.48999,10,10h20v-18H7v10.01001ZM35,20c0-.54999.45001-1,1-1h4c.54999,0,1,.45001,1,1v4c0,.54999-.45001,1-1,1h-4c-.54999,0-1-.45001-1-1v-4ZM35,28c0-.54999.45001-1,1-1h4c.54999,0,1,.45001,1,1v4c0,.54999-.45001,1-1,1h-4c-.54999,0-1-.45001-1-1v-4ZM27,28c0-.54999.45001-1,1-1h4c.54999,0,1,.45001,1,1v4c0,.54999-.45001,1-1,1h-4c-.54999,0-1-.45001-1-1v-4Z"/>
        <path d="M20.98999,41h20.01001c1.09998,0,2-.90002,2-2v-2h-20.20996c-.30237,1.47681-.92401,2.83887-1.80005,4Z"/>
      </g>
    </g>
  </g>
</svg>