<?xml version="1.0" encoding="UTF-8"?>
<svg xmlns="http://www.w3.org/2000/svg" version="1.1" viewBox="0 0 48 48">
  <!-- Generator: Adobe Illustrator 28.7.1, SVG Export Plug-In . SVG Version: 1.2.0 Build 142)  -->
  <g>
    <g id="GLYPH">
      <g>
        <path d="M12,29c-3.85974,0-7,3.14026-7,7s3.14026,7,7,7,7-3.14026,7-7-3.14026-7-7-7ZM15.70703,34.70703l-4,4c-.19531.19531-.45117.29297-.70703.29297s-.51172-.09766-.70703-.29297l-2-2c-.39062-.39062-.39062-1.02344,0-1.41406s1.02344-.39062,1.41406,0l1.29297,1.29297,3.29297-3.29297c.39062-.39062,1.02344-.39062,1.41406,0s.39062,1.02344,0,1.41406Z"/>
        <rect x="13" y="5" width="2" height="6"/>
        <rect x="21" y="5" width="2" height="6"/>
        <rect x="36" y="30" width="2" height="2"/>
        <rect x="28" y="30" width="2" height="2"/>
        <path d="M41,8h-16v4c0,.54999-.45001,1-1,1h-4c-.54999,0-1-.45001-1-1v-4h-2v4c0,.54999-.45001,1-1,1h-4c-.54999,0-1-.45001-1-1v-4h-2c-1.09998,0-2,.89996-2,2v5h36v-5c0-1.10004-.90002-2-2-2Z"/>
        <rect x="36" y="22" width="2" height="2"/>
        <path d="M7,28.51996c1.42999-.95996,3.15002-1.51996,5-1.51996,4.96002,0,9,4.03998,9,9,0,1.84998-.56,3.57001-1.52002,5h21.52002c1.09998,0,2-.90002,2-2v-22H7v11.51996ZM34,21c0-.55225.44775-1,1-1h4c.55225,0,1,.44775,1,1v4c0,.55225-.44775,1-1,1h-4c-.55225,0-1-.44775-1-1v-4ZM34,29c0-.55225.44775-1,1-1h4c.55225,0,1,.44775,1,1v4c0,.55225-.44775,1-1,1h-4c-.55225,0-1-.44775-1-1v-4ZM26,21c0-.55225.44775-1,1-1h4c.55225,0,1,.44775,1,1v4c0,.55225-.44775,1-1,1h-4c-.55225,0-1-.44775-1-1v-4ZM26,29c0-.55225.44775-1,1-1h4c.55225,0,1,.44775,1,1v4c0,.55225-.44775,1-1,1h-4c-.55225,0-1-.44775-1-1v-4Z"/>
        <rect x="28" y="22" width="2" height="2"/>
      </g>
    </g>
  </g>
</svg>