<?xml version="1.0" encoding="UTF-8"?>
<svg xmlns="http://www.w3.org/2000/svg" version="1.1" viewBox="0 0 48 48">
  <!-- Generator: Adobe Illustrator 28.7.1, SVG Export Plug-In . SVG Version: 1.2.0 Build 142)  -->
  <g>
    <g id="GLYPH">
      <g>
        <rect x="35" y="37" width="2" height="6"/>
        <path d="M42,37h-3v6h3c.55273,0,1-.44775,1-1v-4c0-.55225-.44727-1-1-1Z"/>
        <rect x="23" y="5" width="2" height="4"/>
        <rect x="15" y="5" width="2" height="4"/>
        <rect x="31" y="5" width="2" height="4"/>
        <rect x="10" y="20" width="2" height="2"/>
        <rect x="18" y="28" width="2" height="2"/>
        <rect x="10" y="28" width="2" height="2"/>
        <rect x="18" y="20" width="2" height="2"/>
        <path d="M5,33c0,1.09998.90002,2,2,2h34c1.09998,0,2-.90002,2-2V15H5v18ZM24,27c0-.54999.45001-1,1-1h4c.54999,0,1,.45001,1,1v4c0,.54999-.45001,1-1,1h-4c-.54999,0-1-.45001-1-1v-4ZM16,19c0-.54999.45001-1,1-1h4c.54999,0,1,.45001,1,1v4c0,.54999-.45001,1-1,1h-4c-.54999,0-1-.45001-1-1v-4ZM16,27c0-.54999.45001-1,1-1h4c.54999,0,1,.45001,1,1v4c0,.54999-.45001,1-1,1h-4c-.54999,0-1-.45001-1-1v-4ZM8,19c0-.54999.45001-1,1-1h4c.54999,0,1,.45001,1,1v4c0,.54999-.45001,1-1,1h-4c-.54999,0-1-.45001-1-1v-4ZM8,27c0-.54999.45001-1,1-1h4c.54999,0,1,.45001,1,1v4c0,.54999-.45001,1-1,1h-4c-.54999,0-1-.45001-1-1v-4Z"/>
        <path d="M9.54999,37.10999l-4,2c-.33997.15997-.54999.51001-.54999.89001s.21002.72998.54999.89001l4,2c.14001.06995.29004.10999.45001.10999h23v-6H10c-.15997,0-.31.03998-.45001.10999Z"/>
        <rect x="26" y="28" width="2" height="2"/>
        <path d="M41,7h-6v3c0,.54999-.45001,1-1,1h-4c-.54999,0-1-.45001-1-1v-3h-2v3c0,.54999-.45001,1-1,1h-4c-.54999,0-1-.45001-1-1v-3h-2v3c0,.54999-.45001,1-1,1h-4c-.54999,0-1-.45001-1-1v-3h-6c-1.09998,0-2,.89996-2,2v4h38v-4c0-1.10004-.90002-2-2-2Z"/>
      </g>
    </g>
  </g>
</svg>