<?xml version="1.0" encoding="UTF-8"?>
<svg xmlns="http://www.w3.org/2000/svg" version="1.1" viewBox="0 0 48 48">
  <!-- Generator: Adobe Illustrator 28.7.1, SVG Export Plug-In . SVG Version: 1.2.0 Build 142)  -->
  <g>
    <g id="GLYPH">
      <g>
        <path d="M28,40h13c1.09998,0,2-.90002,2-2h-15v2Z"/>
        <rect x="15" y="22" width="6" height="2"/>
        <rect x="23" y="5" width="2" height="4"/>
        <rect x="15" y="5" width="2" height="4"/>
        <rect x="31" y="5" width="2" height="4"/>
        <path d="M25,24h-2v1c0,.54999-.45001,1-1,1h-8c-.54999,0-1-.45001-1-1v-1h-2c-.55231,0-1,.44769-1,1v17c0,.55225.44769,1,1,1h14c.55231,0,1-.44775,1-1v-17c0-.55231-.44769-1-1-1ZM13,28h6c.55225,0,1,.44727,1,1s-.44775,1-1,1h-6c-.55225,0-1-.44727-1-1s.44775-1,1-1ZM21,34h-8c-.55225,0-1-.44727-1-1s.44775-1,1-1h8c.55225,0,1,.44727,1,1s-.44775,1-1,1Z"/>
        <path d="M41,7h-6v3c0,.54999-.45001,1-1,1h-4c-.54999,0-1-.45001-1-1v-3h-2v3c0,.54999-.45001,1-1,1h-4c-.54999,0-1-.45001-1-1v-3h-2v3c0,.54999-.45001,1-1,1h-4c-.54999,0-1-.45001-1-1v-3h-6c-1.09998,0-2,.89996-2,2v29c0,1.09998.90002,2,2,2h1v-15c0-1.65002,1.34998-3,3-3h2v-1c0-.54999.45001-1,1-1h8c.54999,0,1,.45001,1,1v1h2c1.65002,0,3,1.34998,3,3v11h15V9c0-1.10004-.90002-2-2-2ZM39,20h-10c-.54999,0-1-.45001-1-1s.45001-1,1-1h10c.54999,0,1,.45001,1,1s-.45001,1-1,1ZM39,16h-6c-.54999,0-1-.45001-1-1s.45001-1,1-1h6c.54999,0,1,.45001,1,1s-.45001,1-1,1Z"/>
      </g>
    </g>
  </g>
</svg>