<?xml version="1.0" encoding="UTF-8"?>
<svg xmlns="http://www.w3.org/2000/svg" version="1.1" viewBox="0 0 48 48">
  <!-- Generator: Adobe Illustrator 28.7.1, SVG Export Plug-In . SVG Version: 1.2.0 Build 142)  -->
  <g>
    <g id="GLYPH">
      <g>
        <rect x="35" y="5" width="2" height="6"/>
        <rect x="27" y="5" width="2" height="6"/>
        <path d="M12,29c-3.85974,0-7,3.14026-7,7s3.14026,7,7,7,7-3.14026,7-7-3.14026-7-7-7ZM13,36c0,.55225-.44775,1-1,1h-3c-.55225,0-1-.44775-1-1s.44775-1,1-1h2v-2c0-.55225.44775-1,1-1s1,.44775,1,1v3Z"/>
        <rect x="37" y="29" width="2" height="2"/>
        <path d="M19.47998,41h21.52002c1.09998,0,2-.90002,2-2v-2h-22.07532c-.16357,1.46674-.66107,2.83276-1.4447,4Z"/>
        <rect x="29" y="29" width="2" height="2"/>
        <path d="M41,8h-2v4c0,.54999-.45001,1-1,1h-4c-.54999,0-1-.45001-1-1v-4h-2v4c0,.54999-.45001,1-1,1h-4c-.54999,0-1-.45001-1-1v-4H9c-1.09998,0-2,.89996-2,2v5h36v-5c0-1.10004-.90002-2-2-2Z"/>
        <rect x="37" y="21" width="2" height="2"/>
        <rect x="29" y="21" width="2" height="2"/>
        <path d="M7,28.51996c1.42999-.95996,3.15002-1.51996,5-1.51996,4.62,0,8.44,3.51001,8.94,8h22.06v-18H7v11.51996ZM35,20c0-.54999.45001-1,1-1h4c.54999,0,1,.45001,1,1v4c0,.54999-.45001,1-1,1h-4c-.54999,0-1-.45001-1-1v-4ZM35,28c0-.54999.45001-1,1-1h4c.54999,0,1,.45001,1,1v4c0,.54999-.45001,1-1,1h-4c-.54999,0-1-.45001-1-1v-4ZM27,20c0-.54999.45001-1,1-1h4c.54999,0,1,.45001,1,1v4c0,.54999-.45001,1-1,1h-4c-.54999,0-1-.45001-1-1v-4ZM27,28c0-.54999.45001-1,1-1h4c.54999,0,1,.45001,1,1v4c0,.54999-.45001,1-1,1h-4c-.54999,0-1-.45001-1-1v-4ZM19,20c0-.54999.45001-1,1-1h4c.54999,0,1,.45001,1,1v4c0,.54999-.45001,1-1,1h-4c-.54999,0-1-.45001-1-1v-4Z"/>
        <rect x="21" y="21" width="2" height="2"/>
      </g>
    </g>
  </g>
</svg>