<?xml version="1.0" encoding="UTF-8"?>
<svg xmlns="http://www.w3.org/2000/svg" version="1.1" viewBox="0 0 48 48">
  <!-- Generator: Adobe Illustrator 28.7.1, SVG Export Plug-In . SVG Version: 1.2.0 Build 142)  -->
  <g>
    <g id="GLYPH">
      <g>
        <path d="M12,29c-3.85999,0-7,3.14001-7,7s3.14001,7,7,7,7-3.14001,7-7-3.14001-7-7-7ZM13,36c0,.54999-.45001,1-1,1h-3c-.54999,0-1-.45001-1-1s.45001-1,1-1h2v-2c0-.54999.45001-1,1-1s1,.45001,1,1v3Z"/>
        <path d="M17,28.52997c2.40997,1.62,4,4.36005,4,7.47003,0,2.82996-1.31,5.34998-3.35999,7h21.35999V9h-22v19.52997ZM34,22c0-.54999.45001-1,1-1s1,.45001,1,1v6c0,.54999-.45001,1-1,1s-1-.45001-1-1v-6Z"/>
        <path d="M41,5H15c-1.09998,0-2,.89996-2,2v20.06c.69458.07581,1.36169.24017,2,.46637V8c0-.55273.44727-1,1-1h24c.55273,0,1,.44727,1,1v35h1c.54999,0,1-.45001,1-1V7c0-1.10004-.90002-2-2-2Z"/>
      </g>
    </g>
  </g>
</svg>