<?xml version="1.0" encoding="UTF-8"?>
<svg xmlns="http://www.w3.org/2000/svg" version="1.1" viewBox="0 0 48 48">
  <!-- Generator: Adobe Illustrator 28.7.1, SVG Export Plug-In . SVG Version: 1.2.0 Build 142)  -->
  <g>
    <g id="GLYPH">
      <g>
        <path d="M4.979,27.61627v13.38373c0,.02563.00659.04938.00757.07477l11.22058-7.84979-11.22815-5.6087Z"/>
        <path d="M42.97296,41.05994c.00061-.02039.00604-.03943.00604-.05994v-13.37134l-11.1911,5.59558,11.18506,7.83569Z"/>
        <path d="M25.57806,23.40741c-.47089.36584-.9986.59259-1.57806.59259s-1.10718-.22675-1.57806-.59259l-4.08014,2.03986,1.27637,2.55273h8.76367l1.27637-2.55273-4.08014-2.03986Z"/>
        <path d="M24,22c.74756,0,2-2.50488,2-4,0-1.10254-.89697-2-2-2s-2,.89746-2,2c0,1.49512,1.25244,4,2,4Z"/>
        <path d="M9,19h-2.021c-1.10455,0-2,.89539-2,2v4.3808l4.021,2.00848v-8.38928Z"/>
        <path d="M37,28.38V6c0-.54999-.45001-1-1-1H12c-.54999,0-1,.45001-1,1v22.39001l13,6.48999,13-6.5ZM30,7h4c.54999,0,1,.45001,1,1s-.45001,1-1,1h-4c-.54999,0-1-.45001-1-1s.45001-1,1-1ZM29,11h5c.54999,0,1,.45001,1,1s-.45001,1-1,1h-5c-.54999,0-1-.45001-1-1s.45001-1,1-1ZM14,7h4c.54999,0,1,.45001,1,1s-.45001,1-1,1h-4c-.54999,0-1-.45001-1-1s.45001-1,1-1ZM13,12c0-.54999.45001-1,1-1h5c.54999,0,1,.45001,1,1s-.45001,1-1,1h-5c-.54999,0-1-.45001-1-1ZM18.10999,29.45001l-2-4c-.12-.24005-.14001-.51001-.06-.77002.09003-.25.27002-.46002.5-.57001l4.57001-2.28998c-.71997-1.25-1.12-2.78003-1.12-3.82001,0-2.21002,1.78998-4,4-4s4,1.78998,4,4c0,1.03998-.40002,2.57001-1.12,3.82001l4.57001,2.28998c.22998.10999.40997.32001.5.57001.08002.26001.06.52997-.06.77002l-2,4c-.16003.33997-.51001.54999-.89001.54999h-10c-.38,0-.72998-.21002-.89001-.54999Z"/>
        <path d="M24.45001,36.89001c-.14001.06995-.29999.10999-.45001.10999s-.31-.04004-.45001-.10999l-5.31-2.65002-12.17999,8.52997c.28003.14001.59003.23004.91998.23004h34c.34003,0,.65002-.09003.92999-.23999l-12.15997-8.52002-5.29999,2.65002Z"/>
        <path d="M40.979,19h-1.979v8.38184l3.979-1.9895v-4.39233c0-1.10461-.89545-2-2-2Z"/>
      </g>
    </g>
  </g>
</svg>