<?xml version="1.0" encoding="UTF-8"?>
<svg xmlns="http://www.w3.org/2000/svg" version="1.1" viewBox="0 0 48 48">
  <!-- Generator: Adobe Illustrator 28.7.1, SVG Export Plug-In . SVG Version: 1.2.0 Build 142)  -->
  <g>
    <g id="GLYPH">
      <g>
        <path d="M30,15.66663c0-3.30859-2.69141-6-6-6s-6,2.69141-6,6,2.69141,6,6,6,6-2.69141,6-6ZM20,15.66663c0-.55225.44727-1,1-1h2v-2c0-.55225.44727-1,1-1s1,.44775,1,1v3c0,.55225-.44727,1-1,1h-3c-.55273,0-1-.44775-1-1Z"/>
        <path d="M33.97998,24.46997c-2.77997,4.85999-6.64996,9.53003-7.76001,10.84003-.54999.64996-1.35999,1.01996-2.21997,1.01996s-1.66998-.37-2.21997-1.01996c-1.11005-1.31-4.98004-5.98004-7.76001-10.84003-5.61005,1.78003-9.02002,4.96002-9.02002,8.53003,0,5.60999,8.34998,10,19,10s19-4.39001,19-10c0-3.57001-3.40997-6.75-9.02002-8.53003Z"/>
        <path d="M24,34.32996c.27002,0,.52002-.10999.70001-.31995.41998-.49005,10.29999-12.18005,10.29999-18.01001,0-6.07001-4.92999-11-11-11s-11,4.92999-11,11c0,5.82996,9.88,17.51996,10.29999,18.01001.17999.20996.42999.31995.70001.31995ZM16,15.66998c0-4.40997,3.59003-8,8-8s8,3.59003,8,8-3.59003,8-8,8-8-3.59003-8-8Z"/>
        <path d="M6,13h4c.55273,0,1-.44775,1-1s-.44727-1-1-1h-4c-.55273,0-1,.44775-1,1s.44727,1,1,1Z"/>
        <path d="M6.55273,6.89453l4,2c.48853.24426,1.09753.03986,1.3418-.44727.24707-.49414.04688-1.09473-.44727-1.3418l-4-2c-.49414-.24805-1.09473-.04736-1.3418.44727-.24707.49414-.04688,1.09473.44727,1.3418Z"/>
        <path d="M37,12c0,.55225.44727,1,1,1h4c.55273,0,1-.44775,1-1s-.44727-1-1-1h-4c-.55273,0-1,.44775-1,1Z"/>
        <path d="M37.00098,8.99597c.15173.00171.30475-.0307.44629-.10144l4-2c.49414-.24707.69434-.84766.44727-1.3418-.24707-.49463-.84766-.69531-1.3418-.44727,0,0-3.99359,1.99677-4,2-.92462.46228-.57764,1.87891.44824,1.8905Z"/>
      </g>
    </g>
  </g>
</svg>