<?xml version="1.0" encoding="UTF-8"?>
<svg xmlns="http://www.w3.org/2000/svg" version="1.1" viewBox="0 0 48 48">
  <!-- Generator: Adobe Illustrator 28.7.1, SVG Export Plug-In . SVG Version: 1.2.0 Build 142)  -->
  <g>
    <g id="GLYPH">
      <g>
        <path d="M42,37h-9.70001c-.19,0-.39001.06-.54999.16998l-2.75,1.83002h-10l-2.75-1.83002c-.15997-.10999-.35999-.16998-.54999-.16998H6c-.54999,0-1,.45001-1,1v1c0,2.20996,1.78998,4,4,4h30c2.21002,0,4-1.79004,4-4v-1c0-.54999-.45001-1-1-1Z"/>
        <path d="M12,25h-1v2h1c.55127,0,1-.44824,1-1s-.44873-1-1-1Z"/>
        <path d="M28,21c-.55127,0-1,.44824-1,1v4c0,.55176.44873,1,1,1s1-.44824,1-1v-4c0-.55176-.44873-1-1-1Z"/>
        <path d="M12,21h-1v2h1c.55127,0,1-.44824,1-1s-.44873-1-1-1Z"/>
        <path d="M20,21c-.55127,0-1,.44824-1,1v4c0,.55176.44873,1,1,1s1-.44824,1-1v-4c0-.55176-.44873-1-1-1Z"/>
        <path d="M41,5H7c-1.09998,0-2,.89996-2,2v26c0,1.09998.90002,2,2,2h34c1.09998,0,2-.90002,2-2V7c0-1.10004-.90002-2-2-2ZM10,9h6c.54999,0,1,.45001,1,1s-.45001,1-1,1h-6c-.54999,0-1-.45001-1-1s.45001-1,1-1ZM10,13h8c.54999,0,1,.45001,1,1s-.45001,1-1,1h-8c-.54999,0-1-.45001-1-1s.45001-1,1-1ZM15,26c0,1.64996-1.34998,3-3,3h-2c-.54999,0-1-.45001-1-1v-8c0-.54999.45001-1,1-1h2c1.65002,0,3,1.34998,3,3,0,.76996-.29999,1.46997-.78003,2,.48004.52997.78003,1.22998.78003,2ZM23,26c0,1.64996-1.34998,3-3,3s-3-1.35004-3-3v-4c0-1.65002,1.34998-3,3-3s3,1.34998,3,3v4ZM31,26c0,1.64996-1.34998,3-3,3s-3-1.35004-3-3v-4c0-1.65002,1.34998-3,3-3s3,1.34998,3,3v4ZM38.32001,28.95001c-.10999.02997-.22003.04999-.32001.04999-.41998,0-.81-.26001-.95001-.67999l-1.29999-3.91003-.75.94v2.65002c0,.54999-.45001,1-1,1s-1-.45001-1-1v-8c0-.54999.45001-1,1-1s1,.45001,1,1v2.14996l2.21997-2.76996c.34003-.44.97003-.5,1.40002-.16003.44.34003.51001.97003.16003,1.40002l-1.54004,1.92999,1.71002,5.13c.16998.52997-.10999,1.08997-.63,1.27002Z"/>
      </g>
    </g>
  </g>
</svg>