<?xml version="1.0" encoding="UTF-8"?>
<svg xmlns="http://www.w3.org/2000/svg" version="1.1" viewBox="0 0 48 48">
  <!-- Generator: Adobe Illustrator 28.7.1, SVG Export Plug-In . SVG Version: 1.2.0 Build 142)  -->
  <g>
    <g id="GLYPH">
      <g>
        <rect x="23" y="5" width="2" height="6"/>
        <rect x="15" y="5" width="2" height="6"/>
        <rect x="31" y="5" width="2" height="6"/>
        <path d="M17,27c.74756,0,2-2.50488,2-4,0-1.10303-.89697-2-2-2s-2,.89697-2,2c0,1.49512,1.25244,4,2,4Z"/>
        <path d="M41,7h-6v5c0,.54999-.45001,1-1,1h-4c-.54999,0-1-.45001-1-1v-5h-2v5c0,.54999-.45001,1-1,1h-4c-.54999,0-1-.45001-1-1v-5h-2v5c0,.54999-.45001,1-1,1h-4c-.54999,0-1-.45001-1-1v-5h-6c-1.09998,0-2,.89996-2,2v6h38v-6c0-1.10004-.90002-2-2-2Z"/>
        <path d="M21.38184,33l1.27637-2.55273-4.0802-2.03986c-.47089.36584-.99854.59259-1.578.59259s-1.10712-.22675-1.578-.59259l-4.0802,2.03986,1.27637,2.55273h8.76367Z"/>
        <path d="M5,41c0,1.09998.90002,2,2,2h34c1.09998,0,2-.90002,2-2v-2H5v2Z"/>
        <path d="M5,37h38v-20H5v20ZM33,20h6c.54999,0,1,.45001,1,1s-.45001,1-1,1h-6c-.54999,0-1-.45001-1-1s.45001-1,1-1ZM31,24h8c.54999,0,1,.45001,1,1s-.45001,1-1,1h-8c-.54999,0-1-.45001-1-1s.45001-1,1-1ZM9.04999,29.67999c.09003-.25.27002-.46002.5-.57001l4.57001-2.28998c-.71997-1.25-1.12-2.78003-1.12-3.82001,0-2.21002,1.78998-4,4-4s4,1.78998,4,4c0,1.03998-.40002,2.57001-1.12,3.82001l4.57001,2.28998c.22998.10999.40997.32001.5.57001.08002.26001.06.52997-.06.77002l-2,4c-.16003.33997-.51001.54999-.89001.54999h-10c-.38,0-.72998-.21002-.89001-.54999l-2-4c-.12-.24005-.14001-.51001-.06-.77002Z"/>
      </g>
    </g>
  </g>
</svg>