<?xml version="1.0" encoding="UTF-8"?>
<svg xmlns="http://www.w3.org/2000/svg" version="1.1" viewBox="0 0 48 48">
  <!-- Generator: Adobe Illustrator 28.7.1, SVG Export Plug-In . SVG Version: 1.2.0 Build 142)  -->
  <g>
    <g id="GLYPH">
      <g>
        <path d="M7,37.06v2.94c0,1.09998.90002,2,2,2h4.09003l-1.56-1.82001c-1.73004-.73999-3.27002-1.81-4.53003-3.12Z"/>
        <path d="M29,27.31c0-6.62-5.38-12-12-12s-12,5.38-12,12c0,4.95996,3.09998,9.42999,7.72998,11.20001l3.57001,4.16998c.16998.20001.42999.32001.70001.32001s.53003-.12.70001-.32001l3.57001-4.16998c4.63-1.77002,7.72998-6.24005,7.72998-11.20001ZM17.75,34.31l-7.90997-7.91998c-1.12006-1.11005-1.12006-2.93005,0-4.05005l2.62994-2.63995c.73004-.73004,2.01001-.73004,2.74005,0l1.97998,1.97998c.75.75.75,1.97998,0,2.72998l-.65997.66003,2.62994,2.54999.56-.66003c.74005-.72998,2.01001-.72998,2.74005,0l1.96997,1.98004c.76001.75.76001,1.97998,0,2.72998l-2.63,2.64001c-.53998.53998-1.26001.83997-2.02997.83997-.76001,0-1.48004-.28998-2.02002-.83997Z"/>
        <path d="M21.04199,28.37305l-.56152.66016c-.73047.73145-2.00391.73145-2.73438,0l-2.63574-2.64014c-.75293-.75342-.75293-1.97949.00098-2.7334l.6582-.65967-1.97754-1.88721-2.53809,2.64014c-.33789.33838-.33789.88867,0,1.22705l7.9082,7.92041c.16309.16309.37988.25342.61035.25342h.00098c.23047,0,.44629-.09033.60938-.25342l2.58984-2.59375-1.93066-1.93359Z"/>
        <path d="M41,5H9c-1.09998,0-2,.89996-2,2v10.52997c2.53998-2.60999,6.09003-4.21997,10-4.21997,7.71997,0,14,6.27997,14,14,0,5.58002-3.40997,10.69-8.53003,12.87l-1.56,1.82001h20.09003c1.09998,0,2-.90002,2-2V7c0-1.10004-.90002-2-2-2ZM28.77002,13.64996c-.79651-.00006-1.26599-.93262-.82001-1.57996l2.59998-3.65002c.32001-.45001.94-.56,1.39001-.22998.45001.32001.56.94.23999,1.38995l-2.58997,3.64001c-.20001.28003-.51001.42999-.82001.42999ZM30.65002,16.17999c-.26001-.48999-.07001-1.10004.40997-1.35999l3.53003-1.88c.48999-.25,1.09998-.07001,1.35999.41998.26001.47998.07001,1.09003-.41998,1.34998,0,0-3.52686,1.8783-3.53003,1.88-.46716.24878-1.0835.07861-1.34998-.40997ZM37.03003,20.58997l-4.48004.12h-.01996c-.54004,0-.99005-.42999-1-.97998-.01001-.54999.41998-1.01001.96997-1.02002l4.46997-.12h.03003c.53998,0,.98999.42999,1,.98004.01001.54999-.41998,1.00995-.96997,1.01996Z"/>
      </g>
    </g>
  </g>
</svg>