<?xml version="1.0" encoding="UTF-8"?>
<svg xmlns="http://www.w3.org/2000/svg" version="1.1" viewBox="0 0 48 48">
  <!-- Generator: Adobe Illustrator 28.7.1, SVG Export Plug-In . SVG Version: 1.2.0 Build 142)  -->
  <g>
    <g id="GLYPH">
      <g>
        <rect x="26" y="7" width="14" height="8" rx="1" ry="1"/>
        <rect x="30" y="17" width="6" height="2"/>
        <path d="M16,12.5c1.83179,0,3-2.95459,3-4.5,0-1.65454-1.34546-3-3-3s-3,1.34546-3,3c0,1.54541,1.16821,4.5,3,4.5Z"/>
        <path d="M9.04999,19h13.90002l.98999-2.65002c.17999-.47998-.03003-1.02002-.48999-1.23999l-4.31-2.15002c-.79999.91003-1.85004,1.54004-3.14001,1.54004s-2.34003-.63-3.14001-1.54004l-4.31,2.15002c-.45996.21997-.66998.76001-.48999,1.23999l.98999,2.65002Z"/>
        <rect x="5" y="21" width="38" height="2"/>
        <rect x="7" y="25" width="34" height="6"/>
        <rect x="5" y="37" width="38" height="4" rx="1" ry="1"/>
        <rect x="7" y="33" width="34" height="2"/>
      </g>
    </g>
  </g>
</svg>