<?xml version="1.0" encoding="UTF-8"?>
<svg xmlns="http://www.w3.org/2000/svg" version="1.1" viewBox="0 0 48 48">
  <!-- Generator: Adobe Illustrator 28.7.1, SVG Export Plug-In . SVG Version: 1.2.0 Build 142)  -->
  <g>
    <g id="GLYPH">
      <g>
        <path d="M24,15c-4.41113,0-8,3.58887-8,8s3.58887,8,8,8,8-3.58887,8-8-3.58887-8-8-8ZM28.89453,26.44727c-.24384.48767-.8551.68896-1.3418.44727l-4-2c-.33887-.16992-.55273-.51562-.55273-.89453v-5c0-.55273.44727-1,1-1s1,.44727,1,1v4.38184l3.44727,1.72363c.49414.24707.69434.8476.44727,1.3418Z"/>
        <path d="M24,11c-6.61719,0-12,5.38281-12,12s5.38281,12,12,12,12-5.38281,12-12-5.38281-12-12-12ZM24,33c-5.51367,0-10-4.48633-10-10s4.48633-10,10-10,10,4.48633,10,10-4.48633,10-10,10Z"/>
        <path d="M41,5H7c-1.09998,0-2,.89996-2,2v31c0,1.09998.90002,2,2,2h11.65002l4.72998,3.77997c.17999.15002.40002.22003.62.22003s.44-.07001.62-.22003l4.72998-3.77997h11.65002c1.09998,0,2-.90002,2-2V7c0-1.10004-.90002-2-2-2ZM24,37c-7.71997,0-14-6.28003-14-14s6.28003-14,14-14,14,6.27997,14,14-6.28003,14-14,14Z"/>
      </g>
    </g>
  </g>
</svg>