<?xml version="1.0" encoding="UTF-8"?>
<svg xmlns="http://www.w3.org/2000/svg" version="1.1" viewBox="0 0 48 48">
  <!-- Generator: Adobe Illustrator 28.7.1, SVG Export Plug-In . SVG Version: 1.2.0 Build 142)  -->
  <g>
    <g id="GLYPH">
      <g>
        <path d="M8,42c0,.54999.45001,1,1,1h4c.54999,0,1-.45001,1-1v-1h-6v1Z"/>
        <path d="M34,42c0,.54999.45001,1,1,1h4c.54999,0,1-.45001,1-1v-1h-6v1Z"/>
        <path d="M12,13h5.08002c.48999,3.39001,3.39996,6,6.91998,6s6.42999-2.60999,6.91998-6h5.08002c.54999,0,1-.45001,1-1s-.45001-1-1-1h-5.08002c-.09998-.71002-.31-1.38-.60999-2h3.69c.54999,0,1-.45001,1-1s-.45001-1-1-1h-5.10999c-1.26001-1.23999-2.98999-2-4.89001-2s-3.63.76001-4.89001,2h-5.10999c-.54999,0-1,.45001-1,1s.45001,1,1,1h3.69c-.29999.62-.51001,1.28998-.60999,2h-5.08002c-.54999,0-1,.45001-1,1s.45001,1,1,1ZM21,11h2v-2c0-.54999.45001-1,1-1s1,.45001,1,1v3c0,.54999-.45001,1-1,1h-3c-.54999,0-1-.45001-1-1s.45001-1,1-1Z"/>
        <path d="M13,26v3c0,1.09998.90002,2,2,2h18c1.09998,0,2-.90002,2-2v-3c0-1.66003,1.34003-3,3-3h3v-2c0-2.21002-1.78998-4-4-4h-5.52002c-1.62,2.40997-4.37,4-7.47998,4s-5.85999-1.59003-7.47998-4h-5.52002c-2.21002,0-4,1.78998-4,4v2h3c1.65997,0,3,1.33997,3,3Z"/>
        <path d="M41,25h-2c-1.09998,0-2,.89996-2,2v3c0,1.65686-1.34314,3-3,3H14c-1.65686,0-3-1.34314-3-3v-3c0-1.10004-.90002-2-2-2h-2c-1.09998,0-2,.89996-2,2v10c0,1.09998.90002,2,2,2h34c1.09998,0,2-.90002,2-2v-10c0-1.10004-.90002-2-2-2Z"/>
      </g>
    </g>
  </g>
</svg>