<?xml version="1.0" encoding="utf-8"?>
<!-- Generator: Adobe Illustrator 27.3.1, SVG Export Plug-In . SVG Version: 6.00 Build 0)  -->
<svg version="1.1" id="Glyph" xmlns="http://www.w3.org/2000/svg" xmlns:xlink="http://www.w3.org/1999/xlink" x="0px" y="0px"
	 viewBox="0 0 48 48" enable-background="new 0 0 48 48" xml:space="preserve">
<g>
	<path d="M42.6983,9.59076L35.41406,16.875l7.28424,7.28424C42.88605,23.76807,43,23.33582,43,22.875v-12
		C43,10.41418,42.88605,9.98193,42.6983,9.59076z"/>
	<path d="M41.28424,8.1767C40.89307,7.98895,40.46082,7.875,40,7.875H22c-0.46082,0-0.89307,0.11395-1.28424,0.3017L31,18.46094
		L41.28424,8.1767z"/>
	<path d="M31.70703,20.58203C31.51172,20.77734,31.25586,20.875,31,20.875s-0.51172-0.09766-0.70703-0.29297L28,18.28906
		l-3.3916,3.3916c2.22009,0.27234,4.00153,1.98456,4.3316,4.19434H40c0.46082,0,0.89307-0.11395,1.28424-0.3017L34,18.28906
		L31.70703,20.58203z"/>
	<path d="M26.58594,16.875L19.3017,9.59076C19.11395,9.98193,19,10.41418,19,10.875v10.75h2.83594L26.58594,16.875z"/>
	<path d="M25.44806,24.01288C25.01703,23.77325,24.52814,23.625,24,23.625H8c-0.52814,0-1.01703,0.14825-1.44806,0.38788
		L16,33.46094L25.44806,24.01288z"/>
	<path d="M20.41406,31.875l6.36615,6.36615C26.91913,37.89557,27,37.52026,27,37.125v-10.5
		c0-0.39526-0.08087-0.77057-0.21979-1.11615L20.41406,31.875z"/>
	<path d="M16.70703,35.58203C16.51172,35.77734,16.25586,35.875,16,35.875s-0.51172-0.09766-0.70703-0.29297L13,33.28906
		l-6.44806,6.44806C6.98297,39.97675,7.47186,40.125,8,40.125h16c0.52814,0,1.01703-0.14825,1.44806-0.38788L19,33.28906
		L16.70703,35.58203z"/>
	<path d="M5.21979,25.50885C5.08087,25.85443,5,26.22974,5,26.625v10.5c0,0.39526,0.08087,0.77057,0.21979,1.11615l6.36615-6.36615
		L5.21979,25.50885z"/>
	<path d="M10,19.875c0.55225,0,1-0.44727,1-1v-3h2.58594l-0.29297,0.29297c-0.39062,0.39062-0.39062,1.02344,0.00001,1.41408
		c0.38601,0.386,1.02803,0.386,1.41405-0.00001c0.00002-0.00002,2-2,2-2c0.39062-0.39062,0.39062-1.02344,0-1.41406l-2-2
		c-0.39062-0.39062-1.02344-0.39062-1.41406,0s-0.39062,1.02344,0,1.41406l0.29297,0.29297H10c-0.55225,0-1,0.44727-1,1v4
		C9,19.42773,9.44775,19.875,10,19.875z"/>
	<path d="M38,27.875c-0.55225,0-1,0.44727-1,1v3h-2.58594l0.29297-0.29297c0.39062-0.39062,0.39062-1.02344,0-1.41406
		s-1.02344-0.39062-1.41406,0l-2,2c-0.39062,0.39062-0.39062,1.02344,0,1.41406c0,0,2,2,2.00001,2.00001
		c0.38621,0.3862,1.02771,0.38634,1.41405-0.00001c0.39062-0.39062,0.39062-1.02344,0-1.41406L34.41406,33.875H38
		c0.55225,0,1-0.44727,1-1v-4C39,28.32227,38.55225,27.875,38,27.875z"/>
</g>
</svg>
