<?xml version="1.0" encoding="utf-8"?>
<!-- Generator: Adobe Illustrator 27.3.1, SVG Export Plug-In . SVG Version: 6.00 Build 0)  -->
<svg version="1.1" id="Glyph" xmlns="http://www.w3.org/2000/svg" xmlns:xlink="http://www.w3.org/1999/xlink" x="0px" y="0px"
	 viewBox="0 0 48 48" enable-background="new 0 0 48 48" xml:space="preserve">
<g>
	<ellipse cx="35" cy="13.03735" rx="2" ry="1.99335"/>
	<path d="M42.55176,14.28918c-0.4541-0.26117-0.72534-0.72949-0.72534-1.25183c0-0.52246,0.27124-0.99072,0.72534-1.25195
		c0.42877-0.24677,0.57532-0.79321,0.32812-1.22003l-1.79199-3.09338c-0.24762-0.4278-0.79449-0.57428-1.22412-0.32703
		c-0.45374,0.2616-0.99622,0.2616-1.45081,0c-0.45367-0.26123-0.72491-0.72913-0.72491-1.25189
		C37.68805,5.39984,37.28687,5,36.79199,5h-3.58398c-0.49487,0-0.89606,0.39984-0.89606,0.89307
		c0,0.52277-0.27124,0.99066-0.72491,1.25189c-0.45459,0.2616-0.99707,0.2616-1.45081,0
		c-0.43005-0.24725-0.97693-0.10077-1.22412,0.32703l-1.79199,3.09338c-0.24719,0.42682-0.10065,0.97327,0.32812,1.22003
		c0.4541,0.26123,0.72534,0.72949,0.72534,1.25195c0,0.52234-0.27124,0.99066-0.72534,1.25183
		c-0.42877,0.24683-0.57532,0.79321-0.32812,1.22009l1.79199,3.09338c0.24719,0.42639,0.79407,0.57251,1.22412,0.32703
		c0.45374-0.26123,0.99622-0.26208,1.45081,0c0.45367,0.26117,0.72491,0.72906,0.72491,1.25189
		c0,0.49316,0.40118,0.89307,0.89606,0.89307h3.58398c0.49487,0,0.89606-0.3999,0.89606-0.89307
		c0-0.52283,0.27124-0.99072,0.72491-1.25189c0.45459-0.26208,0.99707-0.26123,1.45081,0
		c0.42963,0.24548,0.9765,0.09937,1.22412-0.32703l1.79199-3.09338C43.12708,15.0824,42.98053,14.53601,42.55176,14.28918z
		 M35,17.02405c-2.20557,0-4-1.78845-4-3.98669s1.79443-3.98676,4-3.98676s4,1.78851,4,3.98676S37.20557,17.02405,35,17.02405z"/>
	<path d="M14,42.00482c0,0.34882,0.17999,0.66779,0.46997,0.84717c0.30005,0.17938,0.67004,0.19934,0.98004,0.03992L17,42.12445
		c0,0,1.54999,0.76746,1.55005,0.76746c0.31042,0.15454,0.68408,0.14441,0.97998-0.03992C19.82001,42.67261,20,42.35364,20,42.00482
		v-3.98669h-6V42.00482z"/>
	<path d="M5,37.02142c0,2.15649,1.81238,3.98676,4,3.98676h3v-2.99005h-1c-0.54999,0-1-0.44855-1-0.9967s0.45001-0.99664,1-0.99664
		h24v-2.99005H9C6.78998,33.03473,5,34.81879,5,37.02142z"/>
	<rect x="22" y="38.01813" width="13" height="2.99005"/>
	<path d="M10,12.00641c-1.6947,0.0932-3.39093,0.41956-5,0.96307v5.58826c1.62299-0.4892,3.31311-0.77655,5-0.86035V12.00641z"/>
	<path d="M10,5.12781c-2.76001,0-5,2.23254-5,4.9834v0.76221c1.62299-0.4892,3.31311-0.77655,5-0.86035V5.12781z"/>
	<path d="M10,19.69073c-1.6947,0.0932-3.39093,0.41956-5,0.96313v6.16638c1.62299-0.48926,3.31311-0.77655,5-0.86035V19.69073z"/>
	<path d="M25.19214,16.09125H16v1.99335h10.30237l-0.91235-1.57477C25.3111,16.3736,25.2467,16.23334,25.19214,16.09125z"/>
	<path d="M17,8.00995c0.15332,0,0.30664,0.03503,0.44727,0.1051L18,8.3905v-3.2627h-2v3.2627l0.55273-0.27545
		C16.69336,8.04498,16.84668,8.00995,17,8.00995z"/>
	<path d="M10,31.04138v-3.08813c-1.6947,0.0932-3.39093,0.41956-5,0.96307v3.65991c1.06-0.95685,2.46002-1.53485,4-1.53485H10z"/>
	<path d="M33.21002,23.06799c-1.33002,0-2.46002-0.89703-2.79004-2.12292c-0.23999,0.06976-0.48999,0.09961-0.72998,0.09961
		c-0.82471,0-1.59283-0.36884-2.13788-0.96674H15c-0.55225,0-1-0.44629-1-0.9967v-3.98669c0-0.55042,0.44775-0.99664,1-0.99664
		h10.17419c0.13928-0.39032,0.35583-0.75415,0.65582-1.05652c-0.89001-0.90698-1.11005-2.32227-0.44-3.46844l1.78998-3.09967
		c0.38-0.66772,1.02002-1.14612,1.76001-1.34546H20v4.87549c0,0.34552-0.17969,0.66626-0.47412,0.84778
		c-0.29364,0.1806-0.66467,0.19696-0.97314,0.04376L17,10.12109l-1.55273,0.77374c-0.30957,0.15381-0.67822,0.13776-0.97314-0.04376
		C14.17969,10.66956,14,10.34882,14,10.0033V5.12781h-2v25.91357h23v-7.09631l-0.04999-0.87708H33.21002z M20.70703,24.76935
		l-3,2.98999c-0.19531,0.1947-0.45117,0.29199-0.70703,0.29199s-0.51172-0.09729-0.70703-0.29199l-2-1.99335
		c-0.39062-0.38928-0.39062-1.02002,0-1.40936c0.39062-0.38928,1.02344-0.38928,1.41406,0L17,25.64532l2.29297-2.28534
		c0.39062-0.38934,1.02344-0.38934,1.41406,0C21.09766,23.74927,21.09766,24.38,20.70703,24.76935z M29,29.04803h-5
		c-0.55225,0-1-0.44629-1-0.9967s0.44775-0.99664,1-0.99664h5c0.55225,0,1,0.44623,1,0.99664S29.55225,29.04803,29,29.04803z
		 M29,25.06134h-5c-0.55225,0-1-0.44629-1-0.9967s0.44775-0.99664,1-0.99664h5c0.55225,0,1,0.44623,1,0.99664
		S29.55225,25.06134,29,25.06134z"/>
</g>
</svg>
