<?xml version="1.0" encoding="UTF-8"?>
<svg id="Layer_2" data-name="Layer 2" xmlns="http://www.w3.org/2000/svg" viewBox="0 0 240.51 34.53">
  <g id="Layer_1-2" data-name="Layer 1">
    <g>
      <path d="M5.78,17.37c-2.01,0-3.85-.41-5.54-1.23l.83-2.72c.76.37,1.51.66,2.25.86.74.2,1.5.31,2.28.31.94,0,1.65-.17,2.14-.52.49-.35.73-.82.73-1.43,0-.44-.19-.85-.56-1.23s-1.15-.75-2.32-1.12l-1.38-.45c-.84-.3-1.57-.66-2.2-1.07-.63-.41-1.12-.91-1.48-1.52-.36-.6-.53-1.35-.53-2.24,0-1.47.54-2.68,1.61-3.62C2.69.47,4.22,0,6.21,0c1.07,0,2.02.11,2.86.32.84.21,1.58.5,2.22.85l-.83,2.72c-.71-.35-1.4-.63-2.08-.83-.68-.2-1.33-.29-1.97-.29-.87,0-1.54.17-2.01.52-.47.35-.71.8-.71,1.37s.21,1.03.64,1.32c.43.29,1.07.59,1.94.89l1.6.51c1.31.44,2.36,1.07,3.13,1.89.77.82,1.16,1.81,1.16,2.98,0,.94-.24,1.8-.72,2.58-.48.78-1.19,1.4-2.14,1.85-.95.45-2.13.68-3.53.68Z" style="fill: #fff;"/>
      <path d="M18.03,17.1V3.2h-4.66V.32h13.05v2.88h-4.74v13.9h-3.65Z" style="fill: #fff;"/>
      <path d="M35.53,17.37c-2.2,0-3.93-.58-5.18-1.73-1.25-1.15-1.88-2.95-1.88-5.38V.32h3.65v10.04c0,1.38.28,2.43.83,3.14.55.71,1.41,1.07,2.58,1.07s1.99-.36,2.52-1.09.79-1.66.79-2.8V.32h3.65v10.07c0,4.65-2.32,6.98-6.95,6.98Z" style="fill: #fff;"/>
      <path d="M46.13,17.1V.32h5.86c1.72,0,3.24.3,4.54.89,1.3.6,2.32,1.49,3.05,2.68.73,1.19,1.09,2.67,1.09,4.45,0,1.51-.24,2.82-.73,3.93-.49,1.11-1.17,2.02-2.04,2.73-.87.71-1.87,1.24-3.01,1.59-1.14.35-2.35.52-3.65.52h-5.11ZM49.78,14.28h1.23c1.01,0,1.96-.17,2.84-.52.88-.35,1.59-.95,2.14-1.81.55-.86.83-2.06.83-3.61,0-1.69-.48-2.97-1.44-3.86s-2.25-1.33-3.86-1.33h-1.73v11.13Z" style="fill: #fff;"/>
      <path d="M63.55,17.1V.32h10.92v2.82h-7.27v3.84h6.58v2.8h-6.58v4.5h7.35v2.82h-11Z" style="fill: #fff;"/>
      <path d="M77.34,17.1V.32h3.33l4.66,6.87c.57.83,1.12,1.7,1.65,2.61.53.91.94,1.72,1.22,2.45h.05c-.07-.94-.11-1.9-.13-2.86-.02-.97-.03-1.93-.03-2.89V.32h3.41v16.78h-3.33l-4.82-6.92c-.55-.8-1.06-1.62-1.52-2.48-.46-.85-.87-1.74-1.23-2.66h-.05c.09,1.01.14,2,.15,2.96s.01,1.94.01,2.93v6.18h-3.38Z" style="fill: #fff;"/>
      <path d="M98.28,17.1V3.2h-4.66V.32h13.05v2.88h-4.74v13.9h-3.65Z" style="fill: #fff;"/>
      <path d="M118.78,34.53c-3.99,0-7.66-.81-11.02-2.44l1.64-5.4c1.52.74,3.01,1.31,4.47,1.72,1.47.41,2.97.61,4.53.61,1.87,0,3.29-.34,4.26-1.03.97-.69,1.46-1.63,1.46-2.83,0-.88-.37-1.7-1.11-2.44s-2.28-1.48-4.61-2.22l-2.75-.9c-1.66-.6-3.12-1.31-4.37-2.12-1.25-.81-2.23-1.82-2.94-3.02-.71-1.2-1.06-2.68-1.06-4.45,0-2.93,1.07-5.33,3.2-7.2,2.14-1.87,5.18-2.81,9.14-2.81,2.12,0,4.01.21,5.69.64,1.68.42,3.15.99,4.42,1.7l-1.64,5.4c-1.41-.7-2.79-1.25-4.13-1.64-1.34-.39-2.65-.58-3.92-.58-1.73,0-3.06.34-4,1.03-.94.69-1.4,1.6-1.4,2.73s.42,2.04,1.27,2.62c.85.58,2.14,1.17,3.87,1.77l3.18,1.01c2.61.88,4.69,2.14,6.22,3.76,1.53,1.62,2.3,3.6,2.3,5.93,0,1.87-.48,3.58-1.43,5.14-.95,1.55-2.37,2.78-4.26,3.68-1.89.9-4.23,1.35-7.02,1.35Z" style="fill: #fff;"/>
      <g>
        <path d="M137.73,34.26v-13.99h-4.69v-2.89h13.13v2.89h-4.77v13.99h-3.67Z" style="fill: #fff;"/>
        <path d="M155.34,34.53c-2.22,0-3.95-.58-5.21-1.74-1.26-1.16-1.89-2.97-1.89-5.41v-11.84l3.67-3.68v15.63c0,1.39.27,2.45.83,3.16.55.72,1.42,1.07,2.6,1.07s2.01-.37,2.53-1.1.79-1.67.79-2.81v-10.43h3.67v10.13c0,4.68-2.33,7.02-6.99,7.02Z" style="fill: #fff;"/>
        <path d="M166.01,34.26v-16.88h5.9c1.73,0,3.26.3,4.57.9,1.31.6,2.34,1.5,3.07,2.69.73,1.2,1.1,2.69,1.1,4.48,0,1.52-.25,2.84-.74,3.95-.49,1.12-1.18,2.03-2.05,2.75-.88.72-1.89,1.25-3.03,1.6-1.14.35-2.37.52-3.67.52h-5.15ZM169.68,31.42h1.23c1.02,0,1.97-.17,2.85-.52.88-.35,1.6-.96,2.16-1.82.55-.87.83-2.08.83-3.63,0-1.7-.48-2.99-1.45-3.89s-2.26-1.34-3.89-1.34h-1.74v11.2Z" style="fill: #fff;"/>
        <path d="M183.53,34.26v-16.88h10.99v2.84h-7.32v3.86h6.62v2.81h-6.62v4.53h7.4v2.84h-11.07Z" style="fill: #fff;"/>
        <path d="M197.42,34.26v-16.88h3.35l4.69,6.92c.57.84,1.13,1.72,1.66,2.63.54.91.95,1.73,1.23,2.47h.05c-.07-.95-.12-1.91-.13-2.88-.02-.97-.03-1.94-.03-2.91v-6.22h3.43v16.88h-3.35l-4.85-6.97c-.55-.8-1.06-1.63-1.53-2.49-.47-.86-.88-1.75-1.23-2.68h-.05c.09,1.02.14,2.01.15,2.97s.01,1.95.01,2.95v6.22h-3.4Z" style="fill: #fff;"/>
        <path d="M218.48,34.26v-13.99h-4.69v-2.89h13.13v2.89h-4.77v13.99h-3.67Z" style="fill: #fff;"/>
        <path d="M234.08,34.53c-2.02,0-3.88-.41-5.57-1.23l.83-2.73c.77.38,1.52.67,2.26.87.74.21,1.5.31,2.29.31.95,0,1.67-.17,2.16-.52.49-.35.74-.83.74-1.43,0-.45-.19-.86-.56-1.23s-1.15-.75-2.33-1.13l-1.39-.46c-.84-.3-1.58-.66-2.21-1.07-.63-.41-1.13-.92-1.49-1.53-.36-.61-.54-1.36-.54-2.25,0-1.48.54-2.7,1.62-3.64,1.08-.95,2.62-1.42,4.62-1.42,1.07,0,2.03.11,2.88.32.85.21,1.59.5,2.24.86l-.83,2.73c-.72-.36-1.41-.63-2.09-.83-.68-.2-1.34-.29-1.98-.29-.88,0-1.55.17-2.02.52-.47.35-.71.81-.71,1.38s.21,1.03.64,1.33c.43.29,1.08.59,1.96.9l1.61.51c1.32.45,2.37,1.08,3.15,1.9.78.82,1.17,1.82,1.17,3,0,.95-.24,1.81-.72,2.6-.48.79-1.2,1.41-2.16,1.86-.96.46-2.14.68-3.55.68Z" style="fill: #fff;"/>
      </g>
    </g>
    <g>
      <path d="M148.25,11.26h0V1.81h3.72v4.48h3.95V1.81h1.56v10.66h-1.56v-4.86h-3.95l-3.72,3.65Z" style="fill: #fff;"/>
      <path d="M163.65,12.62c-.76,0-1.45-.14-2.09-.43-.64-.29-1.15-.73-1.52-1.34-.38-.6-.57-1.38-.57-2.34,0-.83.16-1.56.48-2.17s.78-1.09,1.36-1.43c.59-.34,1.27-.51,2.06-.51.68,0,1.27.15,1.77.44.5.29.89.7,1.17,1.22.28.52.42,1.13.42,1.83v.78h-5.7v.07c0,.88.24,1.56.72,2.03.48.47,1.13.71,1.95.71.43,0,.81-.03,1.15-.1.34-.07.7-.18,1.08-.34l.3,1.1c-.33.15-.72.27-1.17.36s-.92.13-1.42.13ZM161.06,7.63l4.13-.03c0-.59-.15-1.09-.45-1.5s-.78-.62-1.45-.62c-.62,0-1.13.2-1.51.6-.39.4-.63.92-.72,1.55Z" style="fill: #fff;"/>
      <path d="M168.55,12.46V.45h1.46v12.01h-1.46Z" style="fill: #fff;"/>
      <path d="M172.31,16.36V4.39h1.23l.22,1.03c.3-.28.65-.52,1.03-.73.38-.2.83-.3,1.35-.3,1.05,0,1.88.34,2.5,1.02.61.68.92,1.65.92,2.9,0,.99-.19,1.8-.57,2.44-.38.63-.86,1.1-1.46,1.4-.59.3-1.21.46-1.87.46-.36,0-.71-.05-1.04-.15s-.62-.24-.85-.41v4.3h-1.47ZM175.49,11.47c.42,0,.82-.1,1.2-.3s.7-.52.95-.98c.25-.46.37-1.07.37-1.84,0-.85-.18-1.51-.53-2-.36-.49-.91-.74-1.65-.74-.46,0-.87.12-1.23.35s-.63.46-.82.7v4.25c.26.19.54.33.83.42.29.09.59.14.88.14Z" style="fill: #fff;"/>
      <path d="M182.34,2.47c-.26,0-.48-.09-.67-.26-.19-.17-.28-.39-.28-.65s.09-.48.28-.66c.19-.18.41-.27.67-.27s.47.09.66.27c.19.18.29.4.29.66s-.1.48-.29.65c-.19.17-.41.26-.66.26ZM181.6,12.46v-7.95h1.49v7.95h-1.49Z" style="fill: #fff;"/>
      <path d="M185.52,12.46v-7.95h1.17l.22,1.1c.4-.4.81-.7,1.25-.91s.94-.31,1.49-.31c.81,0,1.45.23,1.91.69.46.46.69,1.09.69,1.9v5.48h-1.49v-5.26c0-.48-.13-.87-.38-1.16-.25-.29-.64-.43-1.16-.43-.79,0-1.53.36-2.22,1.07v5.79h-1.49Z" style="fill: #fff;"/>
      <path d="M197.63,16.36c-1.15,0-2.07-.21-2.75-.62s-1.02-1.02-1.02-1.82c0-.42.14-.77.41-1.05.27-.28.61-.5,1.03-.64-.23-.16-.39-.32-.51-.5s-.17-.41-.17-.7c0-.35.11-.65.32-.9.21-.25.5-.45.85-.59-.45-.2-.8-.5-1.06-.9-.25-.39-.38-.89-.38-1.49,0-.89.3-1.57.91-2.05.61-.47,1.38-.71,2.3-.71.17,0,.34.01.5.03.16.02.32.05.46.08h3.43v1.1h-.52l-1.35-.19c.21.23.38.49.5.78s.18.6.18.93c0,.89-.3,1.57-.9,2.05-.6.47-1.37.71-2.3.71-.16,0-.31,0-.47-.02s-.3-.03-.45-.05c-.25.09-.43.21-.53.35s-.16.29-.16.45c0,.25.09.42.27.52s.41.14.69.14h2.1c.87,0,1.54.2,2.01.6.47.4.71.94.71,1.63,0,.88-.37,1.57-1.11,2.08-.74.51-1.74.76-3,.76ZM197.7,15.17c.63,0,1.14-.08,1.51-.23.38-.15.65-.35.82-.58.17-.24.25-.48.25-.73,0-.47-.16-.79-.48-.94s-.72-.23-1.21-.23h-2.44c-.58.26-.86.67-.86,1.22,0,.99.8,1.49,2.4,1.49ZM197.57,8.83c.51,0,.92-.13,1.23-.41.31-.27.47-.68.47-1.23,0-.6-.15-1.04-.47-1.32-.31-.28-.72-.42-1.23-.42s-.92.14-1.23.42c-.31.28-.47.7-.47,1.25,0,.59.16,1.02.47,1.29.32.28.72.41,1.22.41Z" style="fill: #fff;"/>
    </g>
  </g>
</svg>