<?xml version="1.0" encoding="UTF-8"?><svg id="Layer_2" xmlns="http://www.w3.org/2000/svg" viewBox="0 0 131.4 100.02"><g id="Layer_1-2"><g><path d="M12.54,80.87c.98-1.81,1.49-3.85,1.49-5.9V41.79c0-5.24,2.41-10.04,6.61-13.18,1.21-.9,1.46-2.62,.55-3.83-.9-1.21-2.62-1.46-3.83-.55-5.6,4.18-8.81,10.58-8.81,17.56v33.18c0,1.15-.29,2.29-.83,3.29L.73,91.21c-1.23,2.29-.88,5,.89,6.9,1.17,1.25,2.72,1.91,4.33,1.91,.84,0,1.68-.18,2.5-.55l15.72-7.13c.9-.41,1.87-.62,2.87-.62h56.86c7.91,0,15.24-4.29,19.12-11.19,.74-1.32,.27-2.99-1.05-3.73-1.32-.75-2.99-.27-3.73,1.05-2.91,5.18-8.41,8.4-14.35,8.4H27.03c-1.78,0-3.51,.37-5.13,1.11l-15.72,7.13c-.1,.04-.32,.15-.56-.11-.24-.26-.12-.47-.07-.56l6.99-12.95Z"/><path d="M107.24,72.47l15.72,7.13c.81,.37,1.66,.55,2.5,.55,1.6,0,3.16-.66,4.33-1.91,1.78-1.9,2.12-4.61,.89-6.9l-6.99-12.95c-.54-1.01-.83-2.15-.83-3.29V21.92c0-12.09-9.83-21.92-21.92-21.92H47.51c-12.08,0-21.92,9.83-21.92,21.92v28.02c0,12.09,9.83,21.92,21.92,21.92h56.86c1,0,1.96,.21,2.87,.62ZM31.07,49.94V21.92c0-9.07,7.38-16.44,16.44-16.44h53.42c9.07,0,16.44,7.38,16.44,16.44V55.1c0,2.05,.51,4.09,1.49,5.9l6.99,12.95c.05,.09,.17,.31-.07,.56-.24,.26-.46,.16-.56,.11l-15.72-7.13c-1.62-.74-3.35-1.11-5.13-1.11H47.51c-9.07,0-16.44-7.38-16.44-16.44Z"/><path d="M74.13,49.43c-1.51,0-2.74,1.31-2.74,2.82s1.23,2.74,2.74,2.74,2.74-1.23,2.74-2.74v-.17c0-1.51-1.23-2.65-2.74-2.65Z"/><path d="M77.21,16.33h-3.74c-5.56,0-10.08,4.52-10.08,10.08,0,1.51,1.23,2.74,2.74,2.74s2.74-1.23,2.74-2.74c0-2.54,2.07-4.61,4.6-4.61h3.74c2.54,0,4.61,2.07,4.61,4.61,0,1.23-.48,2.39-1.35,3.26l-6.02,6.02c-1.97,1.97-3.06,4.59-3.06,7.38,0,1.51,1.23,2.74,2.74,2.74s2.74-1.23,2.74-2.74c0-1.33,.52-2.57,1.45-3.51l6.01-6.02c1.91-1.9,2.96-4.43,2.96-7.13,0-5.56-4.52-10.08-10.08-10.08Z"/></g></g></svg>