<?xml version="1.0" encoding="UTF-8"?><svg id="Layer_2" xmlns="http://www.w3.org/2000/svg" viewBox="0 0 128.48 130.01"><g id="Layer_1-2"><g><path d="M73.78,71.86c-3.13,3.13-8.58,3.13-11.7,0-1.07-1.07-2.8-1.07-3.87,0s-1.07,2.8,0,3.87c2.6,2.6,6.05,4.03,9.72,4.03s7.13-1.43,9.72-4.03c1.07-1.07,1.07-2.8,0-3.87s-2.8-1.07-3.87,0Z"/><path d="M57.42,49.86c0-1.51-1.23-2.74-2.74-2.74s-2.74,1.22-2.74,2.74v8.82c0,1.51,1.23,2.74,2.74,2.74s2.74-1.22,2.74-2.74v-8.82Z"/><path d="M81.18,47.12c-1.51,0-2.74,1.22-2.74,2.74v8.82c0,1.51,1.23,2.74,2.74,2.74s2.74-1.22,2.74-2.74v-8.82c0-1.51-1.23-2.74-2.74-2.74Z"/><path d="M59.21,107.13l-6.19-1.7c-4.33-1.18-8.92,1.04-10.68,5.17l-.65,1.54c-3.15-.95-9.05-3.07-13.24-6.68h0c-4.19-3.61-7.17-9.12-8.58-12.1l1.42-.88c3.83-2.35,5.34-7.22,3.52-11.33l-2.61-5.87c-1.85-4.16-6.52-6.3-10.88-4.96l-4.92,1.51c-4.07,1.25-6.74,5.19-6.35,9.37,2.04,21.9,17.71,35.38,18.34,35.92,.63,.55,14.96,12.88,35.4,12.88,.95,0,1.91-.03,2.88-.08,4.19-.24,7.69-3.47,8.32-7.68l.76-5.1c.67-4.5-2.14-8.81-6.53-10.02Zm.36,14.3c-.25,1.66-1.6,2.93-3.21,3.02-19.68,1.12-34.23-11.33-34.4-11.48-.15-.13-14.64-12.66-16.47-32.27-.15-1.61,.91-3.14,2.51-3.63l4.92-1.51c.34-.1,.69-.16,1.03-.16,1.37,0,2.66,.8,3.24,2.1l2.61,5.87c.72,1.61,.12,3.53-1.38,4.45l-3.46,2.13c-1.12,.69-1.59,2.09-1.12,3.31,.16,.42,4.03,10.32,11.03,16.34,7,6.03,17.37,8.37,17.81,8.47,1.28,.27,2.59-.39,3.11-1.6l1.59-3.74c.69-1.62,2.49-2.5,4.19-2.03l6.2,1.7c1.72,.47,2.83,2.16,2.56,3.93l-.76,5.09Z"/><path d="M67.93,17.79c-23.39,0-42.42,19.03-42.42,42.42s19.03,42.42,42.42,42.42,42.42-19.03,42.42-42.42-19.03-42.42-42.42-42.42Zm0,79.37c-20.37,0-36.95-16.57-36.95-36.95S47.56,23.26,67.93,23.26s36.95,16.58,36.95,36.95-16.58,36.95-36.95,36.95Z"/><path d="M110.63,95.04c-.96,1.15-.79,2.87,.38,3.83,.52,.44,1.12,.63,1.73,.63,.79,0,1.59-.36,2.13-1.01,.96-1.15,.77-2.87-.38-3.83-1.18-.96-2.9-.79-3.86,.38Z"/><path d="M101.26,104.07c-1.2,.9-1.42,2.63-.52,3.83,.55,.71,1.37,1.07,2.19,1.07,.57,0,1.15-.17,1.64-.55,1.2-.9,1.45-2.63,.52-3.83-.9-1.2-2.63-1.45-3.83-.52Z"/><path d="M120.04,34.95c1.31-.74,1.81-2.41,1.07-3.72-.71-1.31-2.38-1.81-3.69-1.09-1.34,.74-1.83,2.38-1.1,3.72,.49,.9,1.42,1.42,2.41,1.42,.44,0,.88-.11,1.31-.33Z"/><path d="M125.68,55.97c-1.53,.06-2.71,1.32-2.68,2.82,.03,1.48,1.26,2.65,2.74,2.65h.08c1.51-.03,2.68-1.29,2.66-2.79-.03-1.51-1.29-2.71-2.79-2.68Z"/><path d="M125.05,69.64c-1.48-.3-2.93,.63-3.26,2.11-.3,1.48,.63,2.93,2.11,3.26,.19,.03,.41,.06,.58,.06,1.29,0,2.41-.88,2.68-2.16,.33-1.48-.63-2.93-2.11-3.26Z"/><path d="M123.79,47.95c.25,0,.47-.03,.71-.08,1.45-.41,2.33-1.92,1.94-3.37-.41-1.45-1.89-2.33-3.37-1.94-1.45,.41-2.33,1.89-1.94,3.37,.33,1.23,1.45,2.03,2.66,2.03Z"/><path d="M121.25,82.77c-1.34-.66-2.98-.08-3.64,1.29-.66,1.37-.08,2.99,1.29,3.64,.38,.19,.79,.28,1.18,.28,1.01,0,2-.57,2.46-1.53,.66-1.37,.08-3.01-1.29-3.67Z"/><path d="M98.25,10.89c-.85,1.26-.52,2.96,.74,3.81,.47,.33,1.01,.49,1.53,.49,.88,0,1.72-.44,2.27-1.2,.85-1.26,.52-2.96-.74-3.81-1.23-.85-2.93-.55-3.8,.71Z"/><path d="M75.51,.13c-1.51-.19-2.85,.88-3.04,2.36-.19,1.51,.88,2.87,2.35,3.06,.14,.03,.25,.03,.36,.03,1.37,0,2.55-1.01,2.71-2.41,.19-1.51-.88-2.88-2.38-3.07v.03Z"/><path d="M34.53,9.69c-1.26,.82-1.61,2.54-.77,3.81,.52,.79,1.4,1.2,2.27,1.2,.52,0,1.04-.14,1.51-.44,1.26-.85,1.61-2.55,.79-3.81-.85-1.26-2.55-1.59-3.81-.77Z"/><path d="M50.81,4.9c-.52-1.42-2.11-2.16-3.53-1.64s-2.14,2.08-1.64,3.5c.41,1.12,1.48,1.81,2.57,1.81,.33,0,.63-.05,.96-.16h-.03c1.42-.52,2.16-2.08,1.67-3.5Z"/><path d="M58.81,3.03c.14,1.4,1.34,2.44,2.71,2.44,.11,0,.19,0,.3-.03,1.51-.16,2.6-1.51,2.41-3.01-.16-1.51-1.51-2.6-3.01-2.41-1.51,.16-2.57,1.51-2.41,3.01Z"/><path d="M110.82,24.17c.66,0,1.31-.25,1.83-.71,1.12-1.04,1.2-2.76,.19-3.89-1.01-1.12-2.74-1.2-3.86-.19-1.12,1.01-1.2,2.77-.19,3.86v.03c.52,.57,1.26,.9,2.03,.9Z"/><path d="M85.85,5.14c-.52,1.42,.19,3.01,1.59,3.53,.33,.14,.66,.19,.99,.19,1.1,0,2.14-.68,2.55-1.78,.55-1.42-.16-2.98-1.59-3.53-1.4-.52-2.98,.19-3.53,1.59Z"/><path d="M77.61,114.45c-1.48,.27-2.46,1.7-2.22,3.18,.25,1.34,1.4,2.27,2.71,2.27,.14,0,.3-.03,.47-.06,1.51-.27,2.49-1.7,2.22-3.18-.25-1.48-1.67-2.46-3.17-2.22Z"/><path d="M7.43,57.78c-.08,1.51,1.09,2.79,2.6,2.85h.14c1.45,0,2.66-1.15,2.74-2.63h-.03c.08-1.51-1.1-2.79-2.6-2.85-1.53-.05-2.79,1.12-2.85,2.63Z"/><path d="M90.07,110.67c-1.4,.6-2.03,2.22-1.4,3.61,.44,1.01,1.45,1.64,2.49,1.64,.36,0,.74-.08,1.1-.25,1.4-.6,2.03-2.22,1.42-3.61-.63-1.37-2.25-2-3.61-1.4Z"/><path d="M13.04,41.77c-1.45-.41-2.96,.44-3.37,1.89h-.03c-.41,1.45,.44,2.98,1.92,3.4,.25,.05,.49,.08,.74,.08,1.18,0,2.27-.77,2.63-1.97,.41-1.48-.44-2.98-1.89-3.39Z"/><path d="M15.17,30.46c-.74,1.31-.3,2.98,1.04,3.72,.41,.25,.88,.36,1.34,.36,.96,0,1.86-.49,2.38-1.4,.74-1.31,.27-2.98-1.04-3.72-1.31-.74-2.98-.27-3.72,1.04Z"/><path d="M23.63,18.91c-1.04,1.12-.99,2.85,.14,3.89,.52,.49,1.18,.74,1.86,.74s1.45-.3,2-.88c1.04-1.12,.96-2.85-.14-3.89-1.09-1.01-2.85-.96-3.86,.14Z"/></g></g></svg>