<?xml version="1.0" encoding="UTF-8"?><svg id="Layer_2" xmlns="http://www.w3.org/2000/svg" viewBox="0 0 131.4 131.4"><g id="Layer_1-2"><g><path d="M32.46,85.83l1.2,5.3c.96,4.26,4.75,7.31,9.04,7.31,.05,0,.11,0,.16,0,23.14-.42,38.51-15.79,39.12-16.41,.65-.64,16.03-16.02,16.45-39.16,.08-4.36-2.99-8.23-7.31-9.2l-5.29-1.2c-4.61-1.05-9.29,1.53-10.88,5.98l-2.27,6.38c-1.57,4.39,.38,9.32,4.52,11.46l1.69,.87c-1.23,3.22-3.96,9.38-8.15,13.58-4.2,4.2-10.36,6.92-13.58,8.15l-.87-1.69c-2.14-4.14-7.06-6.09-11.46-4.52l-6.38,2.28c-4.46,1.59-7.03,6.26-5.98,10.88Zm7.82-5.72l6.38-2.28c.43-.15,.86-.22,1.29-.22,1.42,0,2.78,.78,3.46,2.1l1.96,3.81c.61,1.17,1.97,1.75,3.22,1.37,.45-.14,11.14-3.41,18-10.27,6.86-6.86,10.14-17.55,10.27-18,.38-1.26-.19-2.62-1.36-3.22l-3.81-1.96c-1.72-.89-2.52-2.93-1.88-4.75l2.27-6.38c.66-1.85,2.59-2.91,4.51-2.48l5.3,1.2c1.79,.41,3.07,1.99,3.04,3.77-.37,20.84-14.67,35.21-14.84,35.38-.14,.14-14.51,14.44-35.35,14.81-.02,0-.04,0-.07,0-1.75,0-3.3-1.27-3.7-3.04l-1.2-5.3c-.43-1.91,.63-3.85,2.48-4.51Z"/><path d="M21,95.56c.53,.79,1.4,1.22,2.28,1.22,.52,0,1.05-.15,1.52-.46,1.26-.84,1.6-2.54,.76-3.8-5.31-7.96-8.11-17.24-8.11-26.83s2.81-18.86,8.11-26.83c.84-1.26,.5-2.96-.76-3.8-1.26-.84-2.96-.5-3.8,.76-5.91,8.87-9.03,19.19-9.03,29.86s3.12,21,9.03,29.86Z"/><path d="M92.53,105.84c-7.96,5.31-17.24,8.11-26.83,8.11s-18.86-2.81-26.83-8.11c-1.26-.84-2.96-.5-3.8,.76-.84,1.26-.5,2.96,.76,3.8,8.87,5.91,19.19,9.03,29.86,9.03s21-3.12,29.86-9.03c1.26-.84,1.6-2.54,.76-3.8-.84-1.26-2.54-1.6-3.8-.76Z"/><path d="M37.36,26.02c.52,0,1.05-.15,1.52-.46,7.96-5.31,17.24-8.11,26.83-8.11s18.87,2.81,26.83,8.11c1.26,.84,2.96,.5,3.8-.76,.84-1.26,.5-2.96-.76-3.8-8.86-5.91-19.19-9.03-29.86-9.03s-21,3.12-29.86,9.03c-1.26,.84-1.6,2.54-.76,3.8,.53,.79,1.4,1.22,2.28,1.22Z"/><path d="M106.6,96.32c.47,.31,.99,.46,1.52,.46,.88,0,1.75-.43,2.28-1.22,5.91-8.87,9.03-19.19,9.03-29.86s-3.12-21-9.03-29.86c-.84-1.26-2.54-1.6-3.8-.76-1.26,.84-1.6,2.54-.76,3.8,5.31,7.96,8.11,17.24,8.11,26.83s-2.81,18.86-8.11,26.83c-.84,1.26-.5,2.96,.76,3.8Z"/><path d="M14.84,102.97c1.26-.84,1.6-2.54,.76-3.8-6.63-9.94-10.13-21.52-10.13-33.48s3.5-23.54,10.13-33.48c.84-1.26,.5-2.96-.76-3.8-1.26-.84-2.96-.5-3.8,.76C3.82,40.02,0,52.65,0,65.7s3.82,25.68,11.05,36.52c.53,.79,1.4,1.22,2.28,1.22,.52,0,1.05-.15,1.52-.46Z"/><path d="M28.42,116.55c-.84,1.26-.5,2.96,.76,3.8,10.84,7.23,23.47,11.05,36.52,11.05s25.68-3.82,36.52-11.05c1.26-.84,1.6-2.54,.76-3.8-.84-1.26-2.54-1.6-3.8-.76-9.94,6.62-21.52,10.13-33.48,10.13s-23.54-3.5-33.48-10.13c-1.26-.84-2.96-.5-3.8,.76Z"/><path d="M102.22,11.05C91.37,3.82,78.75,0,65.7,0S40.02,3.82,29.18,11.05c-1.26,.84-1.6,2.54-.76,3.8,.84,1.26,2.54,1.6,3.8,.76,9.94-6.62,21.51-10.13,33.48-10.13s23.54,3.5,33.48,10.13c.47,.31,.99,.46,1.52,.46,.88,0,1.75-.43,2.28-1.22,.84-1.26,.5-2.96-.76-3.8Z"/><path d="M116.55,28.42c-1.26,.84-1.6,2.54-.76,3.8,6.63,9.94,10.13,21.52,10.13,33.48s-3.5,23.54-10.13,33.48c-.84,1.26-.5,2.96,.76,3.8,.47,.31,.99,.46,1.52,.46,.88,0,1.75-.43,2.28-1.22,7.23-10.84,11.05-23.47,11.05-36.52s-3.82-25.68-11.05-36.52c-.84-1.26-2.54-1.6-3.8-.76Z"/></g></g></svg>