<?xml version="1.0" encoding="UTF-8"?><svg id="Layer_2" xmlns="http://www.w3.org/2000/svg" viewBox="0 0 131.4 125.77"><g id="Layer_1-2"><g><path d="M106.5,45.85c.77,1.3,2.45,1.73,3.75,.96,1.3-.77,1.73-2.45,.96-3.75-9.08-15.27-26.51-24.76-45.51-24.76S28.33,28.26,19.47,44.31c-.73,1.32-.25,2.99,1.07,3.72,.42,.23,.87,.34,1.32,.34,.97,0,1.9-.51,2.4-1.41,7.9-14.3,23.78-23.19,41.44-23.19s32.71,8.46,40.8,22.08Z"/><path d="M20.29,87.6c6.55,11.39,17.89,19.84,31.33,23.43v9.02c0,2.32,1.38,4.39,3.52,5.27,.71,.29,1.45,.44,2.19,.44,1.48,0,2.94-.58,4.03-1.67l11.54-11.54c15.9-1.91,30.11-10.59,38.14-23.36,.8-1.28,.42-2.97-.86-3.77-1.28-.8-2.97-.42-3.77,.86-7.31,11.62-20.41,19.45-35.04,20.94-.63,.06-1.21,.34-1.66,.79l-12.22,12.22-.4-.16v-11.17c0-1.28-.89-2.39-2.14-2.67-12.88-2.9-23.79-10.67-29.93-21.34-.75-1.31-2.43-1.76-3.74-1.01-1.31,.75-1.76,2.43-1.01,3.74Z"/><path d="M123.48,48.84C122.02,21.7,96.68,0,65.64,0S9.26,21.71,7.81,48.85c-4.45,.93-7.81,4.88-7.81,9.6v15.34c0,5.41,4.4,9.81,9.81,9.81h6.26c2.74,0,4.97-2.23,4.97-4.97v-25.03c0-2.74-2.23-4.97-4.97-4.97h-2.77C14.88,24.62,37.72,5.47,65.64,5.47s50.71,19.09,52.34,43.17h-2.65c-2.74,0-4.97,2.23-4.97,4.97v25.03c0,2.74,2.23,4.97,4.97,4.97h6.26c5.41,0,9.81-4.4,9.81-9.81v-15.34c0-4.76-3.41-8.73-7.92-9.62ZM15.56,78.14h-5.75c-2.39,0-4.34-1.95-4.34-4.34v-15.34c0-2.39,1.95-4.34,4.34-4.34h5.75v24.02Zm110.36-4.34c0,2.39-1.95,4.34-4.34,4.34h-5.75v-24.02h5.75c2.39,0,4.34,1.94,4.34,4.34v15.34Z"/><circle cx="35.18" cy="66.12" r="2.74"/><circle cx="89.93" cy="66.12" r="2.74"/><circle cx="48.87" cy="66.12" r="2.74"/><circle cx="76.24" cy="66.12" r="2.74"/><circle cx="62.56" cy="66.12" r="2.74"/></g></g></svg>