<?xml version="1.0" encoding="UTF-8"?><svg id="Layer_2" xmlns="http://www.w3.org/2000/svg" viewBox="0 0 131.4 116.09"><g id="Layer_1-2"><g><path d="M20.84,77.19c1.19,5.25,5.85,9.01,11.14,9.01,.07,0,.13,0,.2,0,30.39-.55,50.58-20.73,51.39-21.56,.86-.84,21.04-21.03,21.59-51.42,.1-5.37-3.69-10.14-9.01-11.34l-7.04-1.59c-5.69-1.29-11.45,1.88-13.41,7.38l-3.02,8.48c-1.93,5.41,.47,11.49,5.57,14.12l2.96,1.53c-1.5,4.08-5.29,13.08-11.32,19.12-3,3-7.05,5.78-12.04,8.27-1.35,.68-1.9,2.32-1.23,3.67,.68,1.35,2.32,1.9,3.67,1.23,5.52-2.75,10.05-5.88,13.47-9.3,8.96-8.96,13.25-22.96,13.43-23.55,.38-1.26-.19-2.62-1.36-3.22l-5.06-2.61c-2.68-1.38-3.94-4.58-2.93-7.42l3.02-8.48c1.03-2.89,4.06-4.54,7.05-3.88l7.04,1.59c2.8,.63,4.8,3.12,4.75,5.9-.51,28.1-19.76,47.43-19.99,47.65-.19,.19-19.52,19.45-47.62,19.96-2.68,.12-5.27-1.94-5.9-4.75l-1.59-7.04c-.68-2.99,.99-6.02,3.88-7.05l8.48-3.02c2.85-1.01,6.04,.25,7.42,2.93l2.61,5.06c.69,1.34,2.34,1.87,3.69,1.18,1.34-.69,1.87-2.34,1.18-3.69l-2.61-5.06c-2.64-5.11-8.71-7.5-14.13-5.58l-8.48,3.02c-5.49,1.96-8.67,7.72-7.38,13.41l1.59,7.04Z"/><path d="M26.02,100.16h25.46l9.77,13.64c1.03,1.43,2.69,2.29,4.45,2.29s3.43-.86,4.45-2.29l10.59-14.79c.88-1.23,.6-2.94-.63-3.82-1.23-.88-2.94-.6-3.82,.63l-10.59,14.79-9.77-13.64c-1.03-1.43-2.69-2.29-4.45-2.29H26.02c-11.33,0-20.54-9.22-20.54-20.54V38.16c0-2.68,.51-5.29,1.51-7.74,.57-1.4-.1-3-1.5-3.57-1.41-.57-3,.1-3.57,1.5-1.27,3.12-1.91,6.42-1.91,9.81v35.99c0,14.35,11.67,26.02,26.02,26.02Z"/><path d="M60,17.62c1.51,0,2.74-1.23,2.74-2.74s-1.23-2.74-2.74-2.74H26.02c-5.82,0-11.32,1.88-15.91,5.43-1.2,.92-1.42,2.64-.49,3.84,.54,.7,1.35,1.06,2.17,1.06,.59,0,1.17-.19,1.67-.57,3.62-2.8,7.97-4.29,12.56-4.29H60Z"/><path d="M116.93,14.84c-1.36-.68-3-.12-3.67,1.23-.67,1.36-.12,3,1.23,3.67,7.05,3.5,11.43,10.56,11.43,18.42v35.99c0,11.33-9.22,20.54-20.54,20.54h-15.95c-1.51,0-2.74,1.23-2.74,2.74s1.23,2.74,2.74,2.74h15.95c14.35,0,26.02-11.67,26.02-26.02V38.16c0-9.96-5.54-18.89-14.47-23.32Z"/></g></g></svg>