<?xml version="1.0" encoding="UTF-8"?><svg id="Layer_2" xmlns="http://www.w3.org/2000/svg" viewBox="0 0 131.4 120.26"><g id="Layer_1-2"><g><path d="M101.62,57.14c.1-1.38-.84-2.61-2.2-2.88-8.85-1.76-14.98-10.82-15.04-10.91-.43-.64-1.1-1.07-1.86-1.19-.75-.12-1.54,.09-2.13,.57l-1.39,1.11c-12.9,10.38-29.09,16.07-45.63,16.07-.16,0-.36-.03-.46,0-.76,0-1.48,.31-2,.86-.52,.56-.79,1.3-.73,2.06l1.1,15.67c.75,10.68,6,20.03,13.7,26.1v12.9c0,1.51,1.23,2.74,2.74,2.74s2.74-1.23,2.74-2.74v-9.37c4.62,2.4,9.8,3.76,15.25,3.76s10.63-1.36,15.25-3.76v9.37c0,1.51,1.23,2.74,2.74,2.74s2.74-1.23,2.74-2.74v-12.9c7.7-6.07,12.95-15.42,13.7-26.1l1.5-21.38Zm-6.96,21c-1.11,15.87-13.83,28.3-28.96,28.3s-27.85-12.43-28.96-28.3l-.9-12.78c16.58-.53,32.7-6.36,45.79-16.6,2.53,3.03,7.57,8.12,14.37,10.27l-1.34,19.11Z"/><path d="M14.36,89.56h1.8c.79,0,1.54-.15,2.25-.37v13.86c0,2.89,2.35,5.23,5.23,5.23h15.12c1.51,0,2.74-1.23,2.74-2.74s-1.23-2.74-2.74-2.74h-14.88V57.63c0-22.63,18.4-41.38,41.01-41.8,10.74-.24,21.07,3.89,29.07,11.53,1.1,1.05,2.83,1,3.87-.09,1.04-1.09,1-2.83-.09-3.87-9.05-8.64-20.77-13.23-32.96-13.04-23.19,.44-42.4,17.93-45.8,40.26-.88-.35-1.84-.56-2.84-.56h-1.8c-.07,0-.14,.02-.21,.02,.81-5.6,2.48-11,5.07-16.08,.69-1.35,.15-3-1.19-3.68-1.35-.68-3-.15-3.68,1.19-3.18,6.23-5.11,12.91-5.87,19.84-4.98,2.26-8.47,7.25-8.47,13.06v10.79c0,7.92,6.44,14.36,14.36,14.36Zm-8.88-25.15c0-4.03,2.71-7.39,6.39-8.48,.06-.02,.11-.03,.17-.05,.75-.2,1.52-.35,2.33-.35h1.8c1.24,0,2.25,1.01,2.25,2.25v24.05c0,1.24-1.01,2.25-2.25,2.25h-1.8c-4.9,0-8.88-3.98-8.88-8.88v-10.79Z"/><path d="M122.93,51.35C119.76,22.42,95,0,65.7,0,46.88,0,29.19,9.25,18.39,24.75c-.86,1.24-.56,2.95,.68,3.81,1.24,.87,2.95,.56,3.81-.68C32.66,13.85,48.67,5.47,65.7,5.47c25.89,0,47.85,19.33,51.56,44.6-.07,0-.14-.02-.22-.02h-1.8c-1.05,0-2.05,.21-2.96,.6-1.18-6.92-3.83-13.53-7.88-19.44-.86-1.25-2.56-1.56-3.81-.71-1.25,.86-1.57,2.56-.71,3.81,4.99,7.29,7.63,15.76,7.63,24.5v44.01h-14.89c-1.51,0-2.74,1.23-2.74,2.74s1.23,2.74,2.74,2.74h15.13c2.89,0,5.23-2.35,5.23-5.23v-13.86c.72,.22,1.46,.37,2.25,.37h1.8c7.92,0,14.36-6.44,14.36-14.36v-10.79c0-5.81-3.49-10.81-8.47-13.06Zm2.99,23.85c0,4.9-3.98,8.88-8.88,8.88h-1.8c-1.24,0-2.25-1.01-2.25-2.25v-24.05c0-1.24,1.01-2.25,2.25-2.25h1.8c.81,0,1.58,.14,2.33,.35,.06,.02,.12,.03,.18,.06,3.67,1.09,6.38,4.46,6.38,8.48v10.79Z"/><path d="M71.59,86.9l-.83,.83c-2.85,2.85-7.48,2.84-10.32,0-1.07-1.07-2.8-1.07-3.87,0-1.07,1.07-1.07,2.8,0,3.87,2.49,2.49,5.76,3.74,9.03,3.74s6.54-1.25,9.03-3.73l.83-.82c1.07-1.07,1.07-2.8,0-3.87-1.07-1.07-2.8-1.07-3.87,0Z"/></g></g></svg>