<?xml version="1.0" encoding="UTF-8"?><svg id="Layer_2" xmlns="http://www.w3.org/2000/svg" viewBox="0 0 106.24 131.4"><g id="Layer_1-2"><g><path d="M86.27,29.42C85.11,13.01,71.42,0,54.71,0h-3.19c-16.69,0-30.37,12.99-31.56,29.38-3.12,1.05-5.39,3.98-5.39,7.45v5.5c0,4.35,3.54,7.89,7.89,7.89h.24c1.5,0,2.9-.45,4.1-1.18,2.06,5.7,5.89,10.55,10.85,13.86v8.9h-12.01c-12.51,0-22.68,10.18-22.68,22.68,0,1.51,1.23,2.74,2.74,2.74s2.74-1.23,2.74-2.74c0-9.49,7.72-17.21,17.21-17.21H59.82c1.51,0,2.74-1.23,2.74-2.74s-1.23-2.74-2.74-2.74h-16.68v-6.1c3.11,1.19,6.46,1.87,9.98,1.87,12.11,0,22.42-7.75,26.31-18.53,.42,.26,.86,.48,1.32,.65-.74,8.21-5.53,15.51-12.95,19.37-1.34,.7-1.86,2.35-1.16,3.69,.49,.94,1.44,1.47,2.43,1.47,.43,0,.86-.1,1.26-.31,9.21-4.8,15.1-13.91,15.89-24.13,3.14-1.04,5.43-3.97,5.43-7.46v-5.5c0-3.43-2.21-6.32-5.38-7.41ZM51.53,5.47h3.19c13.7,0,24.95,10.57,26.09,23.98-.48,.18-.93,.4-1.36,.66-3.89-10.79-14.2-18.53-26.31-18.53s-22.44,7.76-26.32,18.56c-.43-.26-.88-.48-1.35-.66,1.12-13.42,12.38-24.01,26.09-24.01ZM25.13,42.33c0,1.33-1.08,2.42-2.42,2.42h-.24c-1.33,0-2.42-1.08-2.42-2.42v-5.5c0-1.33,1.08-2.42,2.65-2.42,1.33,0,2.42,1.08,2.42,2.42v5.5Zm27.99,19.77c-12.42,0-22.52-10.1-22.52-22.52s10.1-22.52,22.52-22.52,22.52,10.1,22.52,22.52-10.1,22.52-22.52,22.52Zm27.99-25.27c0-1.33,1.08-2.42,2.65-2.42,1.33,0,2.42,1.08,2.42,2.42v5.5c0,1.33-1.08,2.42-2.42,2.42h-.24c-1.33,0-2.42-1.08-2.42-2.42v-5.5Z"/><path d="M80.59,70.71c-1.51,0-2.74,1.23-2.74,2.74s1.23,2.74,2.74,2.74c9.49,0,17.21,7.72,17.21,17.21v1.08c0,1.51,1.23,2.74,2.74,2.74s2.74-1.23,2.74-2.74v-1.08c0-12.51-10.17-22.68-22.68-22.68Z"/><path d="M68.41,112.9c-.32-.99-1.18-1.71-2.21-1.86l-7.34-1.07-3.29-6.65c-.92-1.87-3.99-1.87-4.91,0l-3.28,6.65-7.34,1.07c-1.03,.15-1.89,.87-2.21,1.86-.32,.99-.05,2.08,.69,2.81l5.31,5.18-1.25,7.31c-.18,1.03,.24,2.07,1.09,2.68,.48,.35,1.04,.52,1.61,.52,.44,0,.87-.1,1.27-.31l6.57-3.45,6.57,3.45c.92,.48,2.04,.41,2.88-.21,.84-.61,1.26-1.65,1.09-2.68l-1.26-7.31,5.31-5.18c.75-.73,1.02-1.82,.69-2.81Zm-10.86,5.07c-.65,.63-.94,1.54-.79,2.42l.56,3.27-2.93-1.54c-.4-.21-.84-.31-1.27-.31s-.88,.1-1.27,.31l-2.93,1.54,.56-3.27c.15-.89-.14-1.79-.79-2.42l-2.37-2.31,3.28-.48c.89-.13,1.66-.69,2.06-1.5l1.46-2.97,1.47,2.97c.4,.81,1.17,1.37,2.06,1.5l3.28,.48-2.37,2.31Z"/><path d="M30.72,112.9c-.32-.99-1.18-1.71-2.21-1.86l-7.34-1.07-3.28-6.65c-.46-.93-1.41-1.53-2.46-1.53s-1.99,.59-2.45,1.53l-3.29,6.65-7.34,1.07c-1.03,.15-1.89,.87-2.21,1.86-.32,.99-.05,2.08,.69,2.81l5.31,5.18-1.25,7.31c-.18,1.03,.24,2.06,1.09,2.68,.84,.61,1.96,.69,2.88,.21l6.57-3.45,6.57,3.45c.4,.21,.84,.31,1.27,.31,.57,0,1.13-.18,1.61-.52,.84-.61,1.26-1.65,1.09-2.68l-1.25-7.31,5.31-5.18c.75-.73,1.02-1.82,.69-2.81Zm-10.86,5.07c-.65,.63-.94,1.54-.79,2.42l.56,3.27-2.93-1.54c-.8-.42-1.75-.42-2.55,0l-2.93,1.54,.56-3.27c.15-.89-.14-1.79-.79-2.42l-2.37-2.31,3.28-.48c.89-.13,1.66-.69,2.06-1.5l1.47-2.97,1.46,2.97c.4,.81,1.17,1.37,2.06,1.5l3.28,.48-2.37,2.31Z"/><path d="M106.11,112.9c-.32-.99-1.18-1.71-2.21-1.86l-7.34-1.07-3.28-6.65c-.46-.93-1.41-1.53-2.46-1.53s-1.99,.59-2.45,1.53l-3.29,6.65-7.34,1.07c-1.03,.15-1.89,.87-2.21,1.86-.32,.99-.05,2.08,.69,2.81l5.31,5.18-1.26,7.31c-.18,1.03,.25,2.07,1.09,2.68,.85,.61,1.96,.69,2.88,.21l6.57-3.45,6.57,3.45c.4,.21,.84,.31,1.27,.31,.57,0,1.13-.18,1.61-.52,.84-.61,1.26-1.65,1.09-2.68l-1.25-7.31,5.31-5.18c.75-.73,1.02-1.82,.69-2.81Zm-10.86,5.07c-.65,.63-.94,1.54-.79,2.42l.56,3.27-2.93-1.54c-.8-.42-1.75-.42-2.55,0l-2.93,1.54,.56-3.27c.15-.89-.14-1.79-.79-2.42l-2.37-2.31,3.28-.48c.89-.13,1.66-.69,2.06-1.5l1.47-2.97,1.46,2.97c.4,.81,1.17,1.37,2.06,1.5l3.28,.48-2.37,2.31Z"/></g></g></svg>