<?xml version="1.0" encoding="UTF-8"?><svg id="Layer_2" xmlns="http://www.w3.org/2000/svg" viewBox="0 0 131.4 125.59"><g id="Layer_1-2"><g><path d="M114.11,57.05C114.11,25.59,88.51,0,57.05,0S0,25.59,0,57.05c0,5.22,.71,10.4,2.12,15.4,.41,1.45,1.93,2.3,3.38,1.89,1.45-.41,2.3-1.92,1.89-3.38-1.27-4.51-1.92-9.19-1.92-13.91C5.47,28.61,28.61,5.47,57.05,5.47s51.58,23.14,51.58,51.58-23.14,51.58-51.58,51.58c-12.28,0-24.19-4.43-33.55-12.46,0,0,0,0-.01,0,0,0-.01-.01-.02-.02-.05-.05-.12-.06-.18-.1-.23-.17-.47-.33-.74-.42-.15-.05-.31-.04-.46-.07-.19-.03-.38-.08-.58-.07-.23,.02-.46,.1-.68,.17-.11,.04-.22,.03-.33,.09h-.03s0,.02,0,.02l-12.45,5.97,5.93-14.24c.58-1.4-.08-3-1.48-3.58-1.4-.59-3,.08-3.58,1.48l-5.93,14.24c-.88,2.12-.37,4.5,1.29,6.08,1.05,.99,2.39,1.51,3.75,1.51,.8,0,1.62-.18,2.38-.55l10.95-5.25c10.13,8.16,22.72,12.68,35.72,12.68,31.46,0,57.05-25.59,57.05-57.05Z"/><path d="M124.32,102.07c-.58-1.4-2.18-2.06-3.58-1.48-1.4,.58-2.06,2.18-1.48,3.58l4.11,9.89-8.53-4.09c-.98-.47-2.15-.32-2.97,.39-7.3,6.28-16.61,9.74-26.2,9.74-3.76,0-7.47-.52-11.04-1.54-1.45-.4-2.97,.43-3.38,1.88-.42,1.45,.43,2.97,1.88,3.38,4.06,1.16,8.28,1.75,12.55,1.75,10.3,0,20.31-3.51,28.38-9.92l6.95,3.34c2.07,.98,4.47,.61,6.13-.97,1.66-1.58,2.17-3.96,1.29-6.07l-4.11-9.89Z"/><path d="M122.91,58.21c-1.35,.68-1.9,2.32-1.22,3.67,2.81,5.61,4.23,11.66,4.23,17.99,0,3.59-.48,7.16-1.42,10.59-.4,1.46,.46,2.96,1.92,3.36,.24,.07,.49,.1,.73,.1,1.2,0,2.3-.8,2.64-2.01,1.07-3.91,1.62-7.96,1.62-12.04,0-7.18-1.62-14.06-4.81-20.43-.68-1.36-2.32-1.9-3.67-1.22Z"/><path d="M37.99,81.68c0,3.02,2.46,5.47,5.47,5.47h27.68c3.02,0,5.47-2.46,5.47-5.47v-8.23s0-.03,0-.04c0-.32-.07-.63-.19-.93-.03-.08-.07-.15-.11-.22-.05-.1-.08-.21-.14-.3l-8.75-13.41c-.59-.91-.59-2.09,0-2.99l8.75-13.42c.06-.09,.09-.2,.14-.3,.04-.08,.08-.15,.11-.23,.11-.3,.18-.61,.19-.93,0-.02,0-.03,0-.04v-8.23c0-3.02-2.46-5.47-5.47-5.47h-27.68c-3.02,0-5.47,2.46-5.47,5.47v8.23s0,.03,0,.04c0,.32,.07,.63,.19,.93,.03,.08,.07,.15,.11,.23,.05,.1,.08,.2,.14,.3l8.75,13.42c.59,.91,.59,2.09,0,2.99l-8.75,13.41c-.06,.1-.09,.2-.14,.3-.04,.07-.08,.14-.11,.22-.11,.3-.18,.61-.19,.93,0,.02,0,.03,0,.04v8.23Zm33.16,0h-27.68v-5.49h27.68v5.49Zm-19.37-20.15c1.78-2.72,1.78-6.25,0-8.97l-5.99-9.19h2.56c1.51,0,2.74-1.22,2.74-2.74s-1.23-2.74-2.74-2.74h-4.88v-5.49h27.68v5.49h-14.1c-1.51,0-2.74,1.22-2.74,2.74s1.23,2.74,2.74,2.74h11.78l-5.99,9.19c-1.78,2.72-1.78,6.25,0,8.97l5.99,9.18h-23.05l5.99-9.18Z"/></g></g></svg>