<?xml version="1.0" encoding="UTF-8"?><svg id="Layer_2" xmlns="http://www.w3.org/2000/svg" viewBox="0 0 105.1 131.4"><g id="Layer_1-2"><g><circle cx="24.41" cy="36.83" r="2.74"/><circle cx="38.1" cy="36.83" r="2.74"/><circle cx="65.48" cy="36.83" r="2.74"/><path d="M79.14,34.1c-1.51,0-2.71,1.2-2.71,2.74s1.2,2.74,2.71,2.74,2.74-1.23,2.74-2.74-1.21-2.74-2.74-2.74Z"/><circle cx="51.79" cy="36.83" r="2.74"/><path d="M38.07,91.83c-1.51,0-2.71,1.23-2.71,2.74s1.2,2.74,2.71,2.74,2.76-1.23,2.76-2.74-1.23-2.74-2.76-2.74Z"/><circle cx="24.41" cy="94.57" r="2.74"/><path d="M51.79,91.83c-1.53,0-2.76,1.23-2.76,2.74s1.23,2.74,2.76,2.74,2.74-1.23,2.74-2.74-1.23-2.74-2.74-2.74Z"/><path d="M79.14,91.83c-1.51,0-2.71,1.23-2.71,2.74s1.2,2.74,2.71,2.74,2.76-1.23,2.76-2.74-1.23-2.74-2.76-2.74Z"/><path d="M65.48,91.83c-1.53,0-2.74,1.23-2.74,2.74s1.2,2.74,2.74,2.74,2.71-1.23,2.71-2.74-1.21-2.74-2.71-2.74Z"/><path d="M101,.23c-2.45-.71-5.03,.24-6.4,2.4l-6.95,10.85H20.51C9.2,13.48,0,22.68,0,33.99v6.69c0,11.31,9.2,20.51,20.51,20.51H84.59c11.31,0,20.51-9.2,20.51-20.51V5.7c0-2.55-1.65-4.75-4.1-5.47Zm-1.38,40.45c0,8.29-6.74,15.04-15.04,15.04H20.51c-8.29,0-15.04-6.74-15.04-15.04v-6.69c0-8.29,6.75-15.04,15.04-15.04H89.15c.93,0,1.8-.48,2.31-1.26l7.75-12.11-2.31-1.48,2.72,1.6V40.68Z"/><path d="M84.59,70.2H20.51c-11.31,0-20.51,9.2-20.51,20.51v34.98c0,2.55,1.65,4.75,4.1,5.47,.54,.16,1.09,.24,1.63,.24,1.9,0,3.7-.96,4.78-2.63l6.95-10.85H84.59c11.31,0,20.51-9.2,20.51-20.51v-6.69c0-11.31-9.2-20.51-20.51-20.51Zm15.04,27.2c0,8.29-6.74,15.03-15.04,15.03H15.95c-.93,0-1.8,.48-2.31,1.26l-7.75,12.12,2.31,1.48-2.72-1.6v-34.98c0-8.29,6.75-15.03,15.04-15.03H84.59c8.29,0,15.04,6.74,15.04,15.03v6.69Z"/></g></g></svg>