<?xml version="1.0" encoding="UTF-8"?><svg id="Layer_2" xmlns="http://www.w3.org/2000/svg" viewBox="0 0 120.28 116.45"><g id="Layer_1-2"><g><path d="M106.58,71.39h-27.78c-7.01,0-12.71,5.7-12.71,12.71v17.25c0,.38-.1,.76-.28,1.09l-3.63,6.73c-.92,1.69-.66,3.7,.66,5.11,.85,.92,2.03,1.4,3.23,1.4,.62,0,1.24-.13,1.82-.39l8.17-3.71c.3-.14,.62-.21,.95-.21h29.57c7.01,0,12.71-5.7,12.71-12.71v-14.57c0-7.01-5.7-12.71-12.71-12.71Zm7.24,27.28c0,3.99-3.25,7.24-7.24,7.24h-29.57c-1.11,0-2.19,.23-3.21,.69l-5.31,2.41,2.14-3.97c.61-1.13,.93-2.41,.93-3.69v-17.25c0-3.99,3.25-7.24,7.24-7.24h27.78c3.99,0,7.24,3.25,7.24,7.24v14.57Z"/><path d="M56.45,47.67c1.32-1.41,1.57-3.41,.66-5.11l-3.63-6.73c-.18-.33-.27-.71-.27-1.09V17.48c0-7.01-5.7-12.71-12.71-12.71H12.71C5.7,4.77,0,10.48,0,17.48v14.57c0,7.01,5.7,12.71,12.71,12.71h29.57c.33,0,.65,.07,.95,.2l8.17,3.71c.6,.27,1.23,.41,1.85,.41,1.19,0,2.34-.49,3.2-1.41Zm-10.96-7.69c-1.02-.46-2.09-.69-3.21-.69H12.71c-3.99,0-7.24-3.25-7.24-7.24v-14.57c0-3.99,3.25-7.24,7.24-7.24h27.78c3.99,0,7.24,3.25,7.24,7.24v17.25c0,1.29,.32,2.56,.93,3.69l2.14,3.96-5.31-2.41Z"/><path d="M25.97,88.92c10.06,0,18.24-8.18,18.24-18.24s-8.18-18.24-18.24-18.24S7.74,60.63,7.74,70.69s8.18,18.24,18.24,18.24Zm0-31c7.04,0,12.76,5.72,12.76,12.76s-5.72,12.76-12.76,12.76-12.76-5.72-12.76-12.76,5.72-12.76,12.76-12.76Z"/><path d="M0,110.98c0,3.02,2.46,5.47,5.47,5.47H46.47c3.02,0,5.47-2.46,5.47-5.47v-4.77c0-7.16-2.86-13.84-8.04-18.79-1.09-1.04-2.82-1.01-3.87,.09-1.04,1.09-1.01,2.83,.09,3.87,4.09,3.91,6.35,9.18,6.35,14.83v4.77H5.47v-4.77c0-5.7,2.29-11,6.44-14.92,1.1-1.04,1.15-2.77,.11-3.87s-2.77-1.15-3.87-.11C2.98,92.19,0,99.08,0,106.21v4.77Z"/><path d="M94.31,36.47c10.06,0,18.24-8.18,18.24-18.24S104.37,0,94.31,0s-18.24,8.18-18.24,18.24,8.18,18.24,18.24,18.24Zm0-31c7.04,0,12.76,5.72,12.76,12.76s-5.72,12.76-12.76,12.76-12.76-5.72-12.76-12.76,5.72-12.76,12.76-12.76Z"/><path d="M120.28,53.76c0-7.16-2.86-13.84-8.04-18.79-1.09-1.04-2.83-1-3.87,.09-1.04,1.09-1.01,2.83,.09,3.87,4.09,3.91,6.35,9.18,6.35,14.83v4.77h-40.99v-4.77c0-5.7,2.29-11,6.44-14.92,1.1-1.04,1.15-2.77,.11-3.87-1.04-1.1-2.77-1.15-3.87-.11-5.19,4.89-8.16,11.78-8.16,18.9v4.77c0,3.02,2.46,5.47,5.47,5.47h40.99c3.02,0,5.47-2.46,5.47-5.47v-4.77Z"/><path d="M38.79,22.21H14.42c-1.51,0-2.74,1.23-2.74,2.74s1.23,2.74,2.74,2.74h24.37c1.51,0,2.74-1.23,2.74-2.74s-1.23-2.74-2.74-2.74Z"/><path d="M104.73,89.19h-24.37c-1.51,0-2.74,1.23-2.74,2.74s1.23,2.74,2.74,2.74h24.37c1.51,0,2.74-1.23,2.74-2.74s-1.23-2.74-2.74-2.74Z"/></g></g></svg>