<?xml version="1.0" encoding="UTF-8"?><svg id="Layer_2" xmlns="http://www.w3.org/2000/svg" viewBox="0 0 133.24 127.53"><g id="Layer_1-2"><g><path d="M73.25,81.76c-3.66,3.66-9.61,3.66-13.26,0-1.07-1.07-2.8-1.07-3.87,0s-1.07,2.8,0,3.87c2.9,2.9,6.7,4.34,10.5,4.34s7.61-1.45,10.5-4.34c1.07-1.07,1.07-2.8,0-3.87s-2.8-1.07-3.87,0Z"/><path d="M108.06,46.46c.77,1.3,2.45,1.73,3.75,.96,1.3-.77,1.73-2.45,.96-3.75-9.2-15.48-26.88-25.1-46.14-25.1S28.73,28.67,19.75,44.94c-.73,1.32-.25,2.99,1.07,3.72,.42,.23,.87,.34,1.32,.34,.97,0,1.9-.51,2.4-1.41,8.02-14.53,24.15-23.55,42.08-23.55s33.22,8.59,41.44,22.42Z"/><path d="M20.58,88.83c6.65,11.56,18.16,20.13,31.8,23.76v9.19c0,2.33,1.39,4.42,3.55,5.31,.72,.3,1.46,.44,2.21,.44,1.49,0,2.96-.58,4.06-1.69l11.72-11.72c16.13-1.93,30.54-10.73,38.69-23.69,.8-1.28,.42-2.97-.86-3.77-1.28-.8-2.97-.42-3.77,.86-7.42,11.8-20.72,19.75-35.59,21.27-.63,.06-1.21,.34-1.66,.79l-12.4,12.4c-.05,.05-.13,.13-.3,.06-.17-.07-.17-.18-.17-.25v-11.33c0-1.28-.89-2.39-2.14-2.67-13.08-2.94-24.16-10.84-30.39-21.67-.76-1.31-2.43-1.76-3.74-1.01-1.31,.75-1.76,2.43-1.01,3.74Z"/><path d="M125.21,49.54C123.74,22.01,98.04,0,66.57,0S9.38,22.02,7.92,49.55c-4.51,.88-7.92,4.86-7.92,9.62v15.78c0,5.41,4.4,9.81,9.81,9.81h6.48c2.74,0,4.97-2.23,4.97-4.97v-25.46c0-2.74-2.23-4.97-4.97-4.97h-2.88C14.99,24.94,38.19,5.47,66.57,5.47s51.52,19.41,53.15,43.88h-2.77c-2.74,0-4.97,2.23-4.97,4.97v25.46c0,2.74,2.23,4.97,4.97,4.97h6.48c5.41,0,9.81-4.4,9.81-9.81v-15.78c0-4.8-3.47-8.79-8.04-9.63ZM15.79,79.28h-5.98c-2.39,0-4.34-1.95-4.34-4.34v-15.78c0-2.39,1.95-4.34,4.34-4.34h5.98v24.45Zm111.98-4.34c0,2.39-1.95,4.34-4.34,4.34h-5.98v-24.45h5.98c2.39,0,4.34,1.95,4.34,4.34v15.78Z"/><path d="M49.31,57.36v9.7c0,1.51,1.23,2.74,2.74,2.74s2.74-1.23,2.74-2.74v-9.7c0-1.51-1.23-2.74-2.74-2.74s-2.74,1.23-2.74,2.74Z"/><path d="M78.46,57.36v9.7c0,1.51,1.23,2.74,2.74,2.74s2.74-1.23,2.74-2.74v-9.7c0-1.51-1.23-2.74-2.74-2.74s-2.74,1.23-2.74,2.74Z"/></g></g></svg>