<?xml version="1.0" encoding="UTF-8"?><svg id="Layer_2" xmlns="http://www.w3.org/2000/svg" viewBox="0 0 131.4 125.58"><g id="Layer_1-2"><g><path d="M5.5,74.34c1.46-.41,2.3-1.92,1.89-3.38-1.27-4.51-1.92-9.19-1.92-13.91C5.47,28.61,28.61,5.47,57.05,5.47s51.58,23.14,51.58,51.58-23.14,51.58-51.58,51.58c-12.29,0-24.22-4.43-33.58-12.49-.08-.07-.18-.09-.27-.15-.21-.14-.41-.28-.65-.36-.17-.06-.34-.05-.51-.07-.18-.02-.35-.07-.53-.06-.22,.01-.43,.1-.64,.16-.12,.04-.25,.04-.37,.09l-12.48,5.99,5.93-14.24c.58-1.4-.08-3-1.48-3.58-1.4-.58-3,.08-3.58,1.48l-5.93,14.25c-.88,2.11-.37,4.5,1.29,6.07,1.05,.99,2.39,1.51,3.76,1.51,.8,0,1.61-.18,2.38-.55l10.95-5.25c10.13,8.16,22.72,12.68,35.72,12.68,31.46,0,57.05-25.59,57.05-57.05S88.51,0,57.05,0,0,25.59,0,57.05c0,5.22,.71,10.4,2.12,15.4,.41,1.46,1.93,2.31,3.38,1.89Z"/><path d="M111.88,110.37c-7.3,6.28-16.61,9.74-26.2,9.74-3.76,0-7.47-.52-11.05-1.53-1.45-.41-2.97,.43-3.38,1.88-.41,1.45,.43,2.97,1.88,3.38,4.06,1.16,8.28,1.74,12.55,1.74,10.3,0,20.31-3.51,28.38-9.91l6.95,3.33c2.06,.99,4.48,.61,6.13-.97,1.66-1.58,2.17-3.96,1.29-6.08l-4.11-9.89c-.58-1.39-2.18-2.05-3.58-1.48-1.4,.58-2.06,2.18-1.48,3.58l4.11,9.89-8.53-4.09c-.98-.47-2.14-.31-2.97,.39Z"/><path d="M125.92,79.87c0,3.59-.48,7.16-1.42,10.59-.4,1.46,.46,2.96,1.92,3.36,.24,.07,.49,.1,.73,.1,1.2,0,2.3-.8,2.64-2.01,1.07-3.91,1.62-7.96,1.62-12.04,0-7.18-1.62-14.06-4.81-20.44-.68-1.35-2.32-1.9-3.67-1.22-1.35,.68-1.9,2.32-1.22,3.67,2.81,5.61,4.23,11.66,4.23,17.99Z"/><path d="M68.62,40.06l1.22-5.54c.04-.19,.06-.39,.06-.59,0-7.16-5.83-12.99-12.99-12.99s-12.99,5.83-12.99,12.99c0,.2,.02,.39,.06,.59l5.4,24.58c.77,3.51,3.94,6.05,7.53,6.05s6.76-2.55,7.53-6.06l1.94-8.82c.32-1.48-.61-2.94-2.09-3.26-1.46-.32-2.94,.61-3.26,2.09l-1.94,8.82c-.22,1.02-1.14,1.76-2.18,1.76s-1.96-.74-2.18-1.76l-5.33-24.27c.14-4.02,3.46-7.24,7.51-7.24s7.37,3.23,7.51,7.24l-1.15,5.22c-.32,1.48,.61,2.94,2.09,3.26,1.47,.34,2.94-.61,3.26-2.09Z"/><path d="M57.1,68.97c-5.53,0-10.03,4.5-10.03,10.03s4.5,10.03,10.03,10.03,10.03-4.5,10.03-10.03-4.5-10.03-10.03-10.03Zm0,14.59c-2.51,0-4.56-2.04-4.56-4.56s2.04-4.56,4.56-4.56,4.56,2.04,4.56,4.56-2.04,4.56-4.56,4.56Z"/></g></g></svg>