<?xml version="1.0" encoding="UTF-8"?><svg id="Layer_2" xmlns="http://www.w3.org/2000/svg" viewBox="0 0 107.37 131.4"><g id="Layer_1-2"><g><path d="M2.74,131.4c1.51,0,2.74-1.23,2.74-2.74v-27.34c0-10.31,8.39-18.69,18.69-18.69h26.78v46.04c0,1.51,1.23,2.74,2.74,2.74s2.74-1.23,2.74-2.74v-46.04h4.46c1.51,0,2.74-1.23,2.74-2.74s-1.23-2.74-2.74-2.74h-18.13v-7.05c3.39,1.34,7.07,2.1,10.93,2.1,12.96,0,23.99-8.31,28.11-19.87,.55,.35,1.16,.61,1.79,.81-.79,8.92-5.97,16.85-14.02,21.04-1.34,.7-1.86,2.35-1.16,3.69,.49,.94,1.44,1.47,2.43,1.47,.43,0,.86-.1,1.26-.31,9.84-5.12,16.13-14.87,16.96-25.79,3.35-.91,5.83-3.95,5.83-7.58v-6.68c0-3.62-2.46-6.64-5.79-7.57C87.85,13.89,73.23,0,55.39,0h-3.42C34.14,0,19.51,13.89,18.27,31.41c-3.33,.93-5.79,3.95-5.79,7.57v6.68c0,4.35,3.54,7.89,7.89,7.89h1.02c1.54,0,2.96-.46,4.18-1.22,2.2,6.16,6.34,11.39,11.71,14.93v9.89h-13.11c-13.33,0-24.17,10.84-24.17,24.17v27.34c0,1.51,1.23,2.74,2.74,2.74ZM89.41,45.66c0,1.33-1.08,2.42-2.42,2.42h-1.02c-1.33,0-2.42-1.08-2.42-2.42v-6.68c0-1.33,1.08-2.42,2.42-2.42h1.02c1.33,0,2.42,1.08,2.42,2.42v6.68ZM51.97,5.47h3.42c14.84,0,27.04,11.47,28.23,26.01-.65,.2-1.27,.47-1.83,.83-4.13-11.56-15.16-19.87-28.11-19.87s-23.99,8.31-28.11,19.87c-.57-.36-1.18-.62-1.83-.83,1.2-14.54,13.39-26.01,28.23-26.01ZM23.81,45.66c0,1.33-1.08,2.42-2.42,2.42h-1.02c-1.33,0-2.42-1.08-2.42-2.42v-6.68c0-1.33,1.08-2.42,2.42-2.42h1.02c1.33,0,2.42,1.08,2.42,2.42v6.68Zm5.47-3.34c0-13.45,10.95-24.4,24.4-24.4s24.4,10.95,24.4,24.4-10.95,24.4-24.4,24.4-24.4-10.95-24.4-24.4Z"/><path d="M80.46,78.72c0,1.51,1.23,2.74,2.74,2.74,10.31,0,18.69,8.39,18.69,18.69v28.51c0,1.51,1.23,2.74,2.74,2.74s2.74-1.23,2.74-2.74v-28.51c0-13.33-10.84-24.17-24.17-24.17-1.51,0-2.74,1.23-2.74,2.74Z"/></g></g></svg>