<?xml version="1.0" encoding="UTF-8"?><svg id="Layer_2" xmlns="http://www.w3.org/2000/svg" viewBox="0 0 131.65 131.65"><g id="Layer_1-2"><g><path d="M121.35,98.91c-.58-1.4-2.18-2.06-3.58-1.48-1.4,.58-2.06,2.18-1.48,3.58l7.33,17.61-15.5-7.43s0,0-.01,0h-.03c-.08-.05-.17-.05-.26-.08-.25-.09-.5-.18-.76-.19-.17-.01-.33,.04-.49,.06-.19,.02-.37,.02-.55,.08-.24,.08-.46,.23-.67,.38-.08,.05-.17,.07-.24,.14,0,0-.02,.01-.03,.02,0,0,0,0,0,0-10.95,9.4-24.89,14.58-39.26,14.58-33.28,0-60.35-27.07-60.35-60.35,0-4.45,.49-8.88,1.44-13.17,.33-1.48-.6-2.94-2.08-3.27-1.46-.3-2.94,.6-3.27,2.08-1.04,4.68-1.57,9.52-1.57,14.36,0,36.3,29.53,65.82,65.82,65.82,15.09,0,29.7-5.28,41.43-14.8l14.01,6.72c.77,.37,1.58,.55,2.38,.55,1.37,0,2.71-.52,3.75-1.51,1.66-1.58,2.17-3.96,1.29-6.08l-7.33-17.61Z"/><path d="M65.82,0C40.26,0,16.81,14.99,6.06,38.19c-.64,1.37-.04,3,1.33,3.63,1.38,.64,3,.04,3.63-1.33C20.88,19.22,42.39,5.47,65.82,5.47c33.28,0,60.35,27.07,60.35,60.35,0,5.52-.76,11-2.24,16.28-.41,1.46,.44,2.97,1.89,3.38,.25,.07,.5,.1,.74,.1,1.19,0,2.29-.79,2.63-1.99,1.63-5.76,2.45-11.74,2.45-17.76C131.65,29.53,102.12,0,65.82,0Z"/><path d="M107.51,63.98l3.19-5.06c2.53-4,1.92-9.27-1.43-12.51-18.27-17.62-42.16-17.64-43.05-17.6-1.07-.03-24.83-.02-43.1,17.6-3.36,3.24-3.96,8.5-1.44,12.51l3.19,5.06c2.7,4.29,8.2,5.88,12.78,3.71l6.74-3.2c4.51-2.14,6.77-7.35,5.25-12.1l-1.43-4.49c-.46-1.44-2.01-2.24-3.44-1.78-1.44,.46-2.23,2-1.78,3.44l1.43,4.49c.69,2.16-.34,4.52-2.38,5.5l-6.74,3.2c-2.08,.99-4.57,.26-5.8-1.68l-3.19-5.06c-1.15-1.82-.89-4.2,.61-5.65,16.5-15.91,38.74-16.07,39.29-16.07h.01c.51,0,22.75,.16,39.25,16.07,1.5,1.45,1.76,3.82,.61,5.65l-3.19,5.06c-1.23,1.95-3.72,2.67-5.8,1.68l-6.74-3.2c-2.05-.97-3.08-3.33-2.39-5.49l1.43-4.49c.4-1.26-.15-2.62-1.31-3.25-.45-.25-11.27-5.99-21.88-5.99-3.98,0-8.42,.8-13.22,2.38-1.44,.47-2.22,2.02-1.75,3.46,.47,1.44,2.02,2.22,3.46,1.75,4.24-1.4,8.12-2.1,11.51-2.1,6.73,0,13.86,2.81,17.26,4.35l-.71,2.23c-1.52,4.76,.74,9.96,5.25,12.1l6.74,3.2c1.38,.65,2.84,.97,4.29,.97,3.35,0,6.6-1.68,8.49-4.68Z"/><path d="M74.34,50.04c-5.52-1.26-11.36-1.26-16.89,0-2.48,.56-4.21,2.73-4.21,5.28v7.27c0,1.06-.63,2.03-1.6,2.47l-16.36,7.34c-2.94,1.32-4.83,4.25-4.83,7.46v13.31c0,4.51,3.67,8.18,8.18,8.18h54.54c4.51,0,8.18-3.67,8.18-8.18v-13.31c0-3.22-1.9-6.15-4.83-7.47l-1.96-.88c-1.38-.61-3,0-3.62,1.38-.62,1.38,0,3,1.38,3.62l1.96,.88c.97,.44,1.6,1.41,1.6,2.47v13.31c0,1.49-1.21,2.71-2.71,2.71H38.63c-1.49,0-2.71-1.21-2.71-2.71v-13.31c0-1.06,.63-2.03,1.6-2.47l16.36-7.34c2.94-1.32,4.83-4.25,4.83-7.46l-.05-7.21c4.73-1.07,9.72-1.08,14.4-.06v7.27c0,3.22,1.9,6.15,4.83,7.46l4.42,1.98c1.38,.62,3,0,3.62-1.38,.62-1.38,0-3-1.38-3.62l-4.43-1.98c-.97-.44-1.6-1.41-1.6-2.47v-7.27c0-2.54-1.73-4.71-4.21-5.28Z"/><path d="M65.9,70.91c-5.73,0-10.39,4.66-10.39,10.39s4.66,10.39,10.39,10.39,10.39-4.66,10.39-10.39-4.66-10.39-10.39-10.39Zm0,15.31c-2.71,0-4.92-2.21-4.92-4.92s2.21-4.92,4.92-4.92,4.92,2.21,4.92,4.92-2.21,4.92-4.92,4.92Z"/></g></g></svg>