<?xml version="1.0" encoding="UTF-8"?><svg id="Layer_2" xmlns="http://www.w3.org/2000/svg" viewBox="0 0 131.4 140.58"><g id="Layer_1-2"><g><path d="M48.05,17.17c.25,0,.51-.04,.77-.11,.84-.24,1.68-.47,2.54-.68,1.47-.36,2.37-1.84,2.01-3.31-.36-1.47-1.84-2.37-3.31-2.01-.93,.23-1.85,.47-2.77,.74-1.45,.42-2.29,1.94-1.86,3.39,.35,1.19,1.44,1.97,2.63,1.97Z"/><path d="M33.03,23.79c.48,0,.97-.13,1.42-.4,.75-.45,1.51-.89,2.27-1.32,1.32-.73,1.81-2.39,1.08-3.72-.73-1.32-2.39-1.8-3.72-1.08-.84,.46-1.66,.94-2.48,1.43-1.29,.78-1.7,2.47-.92,3.76,.51,.85,1.42,1.32,2.34,1.32Z"/><path d="M9.17,46.99c.42,.23,.87,.34,1.32,.34,.97,0,1.9-.51,2.4-1.42,.42-.77,.86-1.53,1.32-2.28,.79-1.29,.37-2.98-.92-3.76-1.29-.78-2.98-.37-3.76,.92-.5,.82-.97,1.64-1.44,2.48-.73,1.32-.25,2.99,1.08,3.72Z"/><path d="M20.22,34.08c.72,0,1.44-.28,1.98-.84,.61-.63,1.23-1.25,1.86-1.86,1.09-1.05,1.13-2.78,.08-3.87-1.04-1.09-2.78-1.13-3.87-.08-.69,.66-1.37,1.34-2.03,2.03-1.05,1.09-1.01,2.82,.08,3.87,.53,.51,1.21,.76,1.89,.76Z"/><path d="M3.88,62.57c.22,.05,.44,.08,.65,.08,1.23,0,2.35-.84,2.66-2.09,.21-.85,.43-1.7,.68-2.54,.42-1.45-.41-2.97-1.86-3.4-1.44-.42-2.97,.41-3.4,1.86-.27,.92-.51,1.84-.74,2.78-.36,1.47,.54,2.95,2.01,3.31Z"/><path d="M65.7,140.58c36.23,0,65.7-29.47,65.7-65.7S103.87,11.18,69.33,9.29l4.62-4.62c1.07-1.07,1.07-2.8,0-3.87s-2.8-1.07-3.87,0l-9.18,9.18c-.51,.51-.8,1.21-.8,1.94s.29,1.42,.8,1.94l9.18,9.18c.53,.53,1.24,.8,1.94,.8s1.4-.27,1.94-.8c1.07-1.07,1.07-2.8,0-3.87l-4.37-4.37c31.41,2.01,56.35,28.18,56.35,60.09s-27.02,60.22-60.22,60.22S5.47,108.09,5.47,74.88v-1.31c.05-1.51-1.15-2.76-2.67-2.79-1.4,0-2.76,1.17-2.79,2.68,0,.47-.01,.95-.01,1.42,0,36.23,29.47,65.7,65.7,65.7Z"/><path d="M29.38,91.53c1.51,0,2.74-1.23,2.74-2.74v-11.17h10.07c1.51,0,2.74-1.23,2.74-2.74s-1.23-2.74-2.74-2.74h-10.07v-8.43h12.89c1.51,0,2.74-1.23,2.74-2.74s-1.23-2.74-2.74-2.74h-12.89c-3.02,0-5.47,2.46-5.47,5.47v25.08c0,1.51,1.23,2.74,2.74,2.74Z"/><path d="M72.62,91.53c1.51,0,2.74-1.23,2.74-2.74v-19.6c0-6.04-4.91-10.95-10.95-10.95h-2.03c-6.04,0-10.95,4.91-10.95,10.95v19.6c0,1.51,1.23,2.74,2.74,2.74s2.74-1.23,2.74-2.74v-11.17h12.98v11.17c0,1.51,1.23,2.74,2.74,2.74Zm-15.72-19.38v-2.96c0-3.02,2.46-5.47,5.47-5.47h2.03c3.02,0,5.47,2.46,5.47,5.47v2.96h-12.98Z"/><path d="M104.76,69.19c0-6.04-4.91-10.95-10.95-10.95h-2.03c-6.04,0-10.95,4.91-10.95,10.95v11.39c0,6.04,4.91,10.95,10.95,10.95h2.03c2.02,0,3.9-.59,5.53-1.55l.75,.75c.53,.53,1.24,.8,1.94,.8s1.4-.27,1.94-.8c1.07-1.07,1.07-2.8,0-3.87l-.75-.75c.96-1.63,1.55-3.5,1.55-5.53v-11.39Zm-7.25,11.22c-1.07-1.07-2.8-1.07-3.87,0-1.07,1.07-1.07,2.8,0,3.87l1.57,1.57c-.45,.12-.91,.2-1.4,.2h-2.03c-3.02,0-5.47-2.46-5.47-5.47v-11.39c0-3.02,2.46-5.47,5.47-5.47h2.03c3.02,0,5.47,2.46,5.47,5.47v11.39c0,.49-.08,.95-.2,1.4l-1.57-1.57Z"/></g></g></svg>